%TF.GenerationSoftware,KiCad,Pcbnew,10.0.3*%
%TF.CreationDate,2026-07-14T22:36:17+02:00*%
%TF.ProjectId,CDJAY100S,43444a41-5931-4303-9053-2e6b69636164,rev?*%
%TF.SameCoordinates,Original*%
%TF.FileFunction,Paste,Top*%
%TF.FilePolarity,Positive*%
%FSLAX46Y46*%
G04 Gerber Fmt 4.6, Leading zero omitted, Abs format (unit mm)*
G04 Created by KiCad (PCBNEW 10.0.3) date 2026-07-14 22:36:17*
%MOMM*%
%LPD*%
G01*
G04 APERTURE LIST*
G04 Aperture macros list*
%AMRoundRect*
0 Rectangle with rounded corners*
0 $1 Rounding radius*
0 $2 $3 $4 $5 $6 $7 $8 $9 X,Y pos of 4 corners*
0 Add a 4 corners polygon primitive as box body*
4,1,4,$2,$3,$4,$5,$6,$7,$8,$9,$2,$3,0*
0 Add four circle primitives for the rounded corners*
1,1,$1+$1,$2,$3*
1,1,$1+$1,$4,$5*
1,1,$1+$1,$6,$7*
1,1,$1+$1,$8,$9*
0 Add four rect primitives between the rounded corners*
20,1,$1+$1,$2,$3,$4,$5,0*
20,1,$1+$1,$4,$5,$6,$7,0*
20,1,$1+$1,$6,$7,$8,$9,0*
20,1,$1+$1,$8,$9,$2,$3,0*%
G04 Aperture macros list end*
%ADD10RoundRect,0.250000X-0.625000X0.400000X-0.625000X-0.400000X0.625000X-0.400000X0.625000X0.400000X0*%
%ADD11RoundRect,0.125000X-0.125000X0.125000X-0.125000X-0.125000X0.125000X-0.125000X0.125000X0.125000X0*%
%ADD12RoundRect,0.250000X0.650000X-0.412500X0.650000X0.412500X-0.650000X0.412500X-0.650000X-0.412500X0*%
%ADD13RoundRect,0.250000X-0.400000X-0.625000X0.400000X-0.625000X0.400000X0.625000X-0.400000X0.625000X0*%
%ADD14RoundRect,0.150000X-0.625000X-0.150000X0.625000X-0.150000X0.625000X0.150000X-0.625000X0.150000X0*%
%ADD15RoundRect,0.150000X-0.150000X-0.625000X0.150000X-0.625000X0.150000X0.625000X-0.150000X0.625000X0*%
%ADD16RoundRect,0.250000X0.412500X0.650000X-0.412500X0.650000X-0.412500X-0.650000X0.412500X-0.650000X0*%
%ADD17RoundRect,0.100000X-0.637500X-0.100000X0.637500X-0.100000X0.637500X0.100000X-0.637500X0.100000X0*%
%ADD18RoundRect,0.250000X-0.412500X-0.650000X0.412500X-0.650000X0.412500X0.650000X-0.412500X0.650000X0*%
%ADD19RoundRect,0.250000X-0.650000X0.412500X-0.650000X-0.412500X0.650000X-0.412500X0.650000X0.412500X0*%
%ADD20RoundRect,0.250000X0.625000X-0.400000X0.625000X0.400000X-0.625000X0.400000X-0.625000X-0.400000X0*%
%ADD21RoundRect,0.100000X-0.100000X0.637500X-0.100000X-0.637500X0.100000X-0.637500X0.100000X0.637500X0*%
%ADD22RoundRect,0.250000X0.400000X0.625000X-0.400000X0.625000X-0.400000X-0.625000X0.400000X-0.625000X0*%
%ADD23R,1.092200X1.143000*%
G04 APERTURE END LIST*
D10*
%TO.C,R11*%
X87500000Y-30950000D03*
X87500000Y-34050000D03*
%TD*%
%TO.C,R12*%
X145000000Y-35550000D03*
X145000000Y-32450000D03*
%TD*%
D11*
%TO.C,D10*%
X135000000Y-148600000D03*
X135000000Y-146400000D03*
%TD*%
D12*
%TO.C,C17*%
X118000000Y-75562500D03*
X118000000Y-72437500D03*
%TD*%
D13*
%TO.C,R17*%
X152962500Y-132500000D03*
X156062500Y-132500000D03*
%TD*%
D14*
%TO.C,U1*%
X165325000Y-161000000D03*
X165325000Y-162000000D03*
X165325000Y-163000000D03*
X165325000Y-164000000D03*
X165325000Y-165000000D03*
X165325000Y-166000000D03*
X165325000Y-167000000D03*
X165325000Y-168000000D03*
X165325000Y-169000000D03*
X165325000Y-170000000D03*
X165325000Y-171000000D03*
X165325000Y-172000000D03*
X165325000Y-173000000D03*
D15*
X167000000Y-174675000D03*
X168000000Y-174675000D03*
X169000000Y-174675000D03*
X170000000Y-174675000D03*
X171000000Y-174675000D03*
X172000000Y-174675000D03*
X173000000Y-174675000D03*
X174000000Y-174675000D03*
X175000000Y-174675000D03*
X176000000Y-174675000D03*
X177000000Y-174675000D03*
X178000000Y-174675000D03*
X179000000Y-174675000D03*
D14*
X180675000Y-173000000D03*
X180675000Y-172000000D03*
X180675000Y-171000000D03*
X180675000Y-170000000D03*
X180675000Y-169000000D03*
X180675000Y-168000000D03*
X180675000Y-167000000D03*
X180675000Y-166000000D03*
X180675000Y-165000000D03*
X180675000Y-164000000D03*
X180675000Y-163000000D03*
X180675000Y-162000000D03*
X180675000Y-161000000D03*
D15*
X179000000Y-159325000D03*
X178000000Y-159325000D03*
X177000000Y-159325000D03*
X176000000Y-159325000D03*
X175000000Y-159325000D03*
X174000000Y-159325000D03*
X173000000Y-159325000D03*
X172000000Y-159325000D03*
X171000000Y-159325000D03*
X170000000Y-159325000D03*
X169000000Y-159325000D03*
X168000000Y-159325000D03*
X167000000Y-159325000D03*
%TD*%
D16*
%TO.C,C10*%
X81562500Y-45500000D03*
X78437500Y-45500000D03*
%TD*%
D17*
%TO.C,i2S_Audio1*%
X189637500Y-41550000D03*
X189637500Y-42200000D03*
X189637500Y-42850000D03*
X189637500Y-43500000D03*
X189637500Y-44150000D03*
X189637500Y-44800000D03*
X189637500Y-45450000D03*
X189637500Y-46100000D03*
X189637500Y-46750000D03*
X189637500Y-47400000D03*
X195362500Y-47400000D03*
X195362500Y-46750000D03*
X195362500Y-46100000D03*
X195362500Y-45450000D03*
X195362500Y-44800000D03*
X195362500Y-44150000D03*
X195362500Y-43500000D03*
X195362500Y-42850000D03*
X195362500Y-42200000D03*
X195362500Y-41550000D03*
%TD*%
D18*
%TO.C,C19*%
X146437500Y-125000000D03*
X149562500Y-125000000D03*
%TD*%
%TO.C,C18*%
X134437500Y-34000000D03*
X137562500Y-34000000D03*
%TD*%
%TO.C,C11*%
X181575000Y-42500000D03*
X184700000Y-42500000D03*
%TD*%
D19*
%TO.C,C1*%
X172000000Y-91437500D03*
X172000000Y-94562500D03*
%TD*%
D20*
%TO.C,R10*%
X77500000Y-34050000D03*
X77500000Y-30950000D03*
%TD*%
D21*
%TO.C,SPi_Level1*%
X135925000Y-91637500D03*
X135275000Y-91637500D03*
X134625000Y-91637500D03*
X133975000Y-91637500D03*
X133325000Y-91637500D03*
X132675000Y-91637500D03*
X132025000Y-91637500D03*
X131375000Y-91637500D03*
X130725000Y-91637500D03*
X130075000Y-91637500D03*
X130075000Y-97362500D03*
X130725000Y-97362500D03*
X131375000Y-97362500D03*
X132025000Y-97362500D03*
X132675000Y-97362500D03*
X133325000Y-97362500D03*
X133975000Y-97362500D03*
X134625000Y-97362500D03*
X135275000Y-97362500D03*
X135925000Y-97362500D03*
%TD*%
D12*
%TO.C,C12*%
X124500000Y-75562500D03*
X124500000Y-72437500D03*
%TD*%
D10*
%TO.C,R6*%
X180000000Y-107450000D03*
X180000000Y-110550000D03*
%TD*%
D13*
%TO.C,R13*%
X127400000Y-31000000D03*
X130500000Y-31000000D03*
%TD*%
%TO.C,R20*%
X153462500Y-141000000D03*
X156562500Y-141000000D03*
%TD*%
D18*
%TO.C,C13*%
X181575000Y-37000000D03*
X184700000Y-37000000D03*
%TD*%
D10*
%TO.C,R2*%
X180000000Y-91950000D03*
X180000000Y-95050000D03*
%TD*%
D11*
%TO.C,D12*%
X141000000Y-158400000D03*
X141000000Y-160600000D03*
%TD*%
D10*
%TO.C,R1*%
X180000000Y-83950000D03*
X180000000Y-87050000D03*
%TD*%
D13*
%TO.C,R19*%
X146462500Y-141000000D03*
X149562500Y-141000000D03*
%TD*%
D19*
%TO.C,C4*%
X172500000Y-107437500D03*
X172500000Y-110562500D03*
%TD*%
D10*
%TO.C,R5*%
X180000000Y-99450000D03*
X180000000Y-102550000D03*
%TD*%
D11*
%TO.C,D11*%
X138000000Y-152400000D03*
X138000000Y-154600000D03*
%TD*%
D18*
%TO.C,C21*%
X159437500Y-125000000D03*
X162562500Y-125000000D03*
%TD*%
D12*
%TO.C,C16*%
X162500000Y-83500000D03*
X162500000Y-80375000D03*
%TD*%
D18*
%TO.C,C14*%
X181437500Y-53500000D03*
X184562500Y-53500000D03*
%TD*%
%TO.C,C15*%
X181437500Y-48000000D03*
X184562500Y-48000000D03*
%TD*%
D11*
%TO.C,D9*%
X132000000Y-140400000D03*
X132000000Y-142600000D03*
%TD*%
D22*
%TO.C,R3*%
X177550000Y-89500000D03*
X174450000Y-89500000D03*
%TD*%
D23*
%TO.C,CR2*%
X140000000Y-40963300D03*
X140000000Y-44036700D03*
%TD*%
D19*
%TO.C,C3*%
X167500000Y-107437500D03*
X167500000Y-110562500D03*
%TD*%
D11*
%TO.C,D8*%
X129000000Y-134400000D03*
X129000000Y-136600000D03*
%TD*%
D13*
%TO.C,R15*%
X142450000Y-85000000D03*
X145550000Y-85000000D03*
%TD*%
D23*
%TO.C,CR1*%
X140500000Y-28036700D03*
X140500000Y-24963300D03*
%TD*%
D18*
%TO.C,C20*%
X152937500Y-125000000D03*
X156062500Y-125000000D03*
%TD*%
D20*
%TO.C,R9*%
X82500000Y-34050000D03*
X82500000Y-30950000D03*
%TD*%
D13*
%TO.C,R16*%
X146462500Y-132500000D03*
X149562500Y-132500000D03*
%TD*%
%TO.C,R18*%
X159462500Y-132500000D03*
X162562500Y-132500000D03*
%TD*%
%TO.C,R14*%
X119400000Y-31000000D03*
X122500000Y-31000000D03*
%TD*%
D22*
%TO.C,R4*%
X177550000Y-105000000D03*
X174450000Y-105000000D03*
%TD*%
D19*
%TO.C,C9*%
X77500000Y-37437500D03*
X77500000Y-40562500D03*
%TD*%
%TO.C,C2*%
X167000000Y-91437500D03*
X167000000Y-94562500D03*
%TD*%
M02*
