%TF.GenerationSoftware,KiCad,Pcbnew,10.0.3*%
%TF.CreationDate,2026-07-14T22:36:17+02:00*%
%TF.ProjectId,CDJAY100S,43444a41-5931-4303-9053-2e6b69636164,rev?*%
%TF.SameCoordinates,Original*%
%TF.FileFunction,Copper,L1,Top*%
%TF.FilePolarity,Positive*%
%FSLAX46Y46*%
G04 Gerber Fmt 4.6, Leading zero omitted, Abs format (unit mm)*
G04 Created by KiCad (PCBNEW 10.0.3) date 2026-07-14 22:36:17*
%MOMM*%
%LPD*%
G01*
G04 APERTURE LIST*
G04 Aperture macros list*
%AMRoundRect*
0 Rectangle with rounded corners*
0 $1 Rounding radius*
0 $2 $3 $4 $5 $6 $7 $8 $9 X,Y pos of 4 corners*
0 Add a 4 corners polygon primitive as box body*
4,1,4,$2,$3,$4,$5,$6,$7,$8,$9,$2,$3,0*
0 Add four circle primitives for the rounded corners*
1,1,$1+$1,$2,$3*
1,1,$1+$1,$4,$5*
1,1,$1+$1,$6,$7*
1,1,$1+$1,$8,$9*
0 Add four rect primitives between the rounded corners*
20,1,$1+$1,$2,$3,$4,$5,0*
20,1,$1+$1,$4,$5,$6,$7,0*
20,1,$1+$1,$6,$7,$8,$9,0*
20,1,$1+$1,$8,$9,$2,$3,0*%
%AMFreePoly0*
4,1,37,0.800000,0.796148,0.878414,0.796148,1.032228,0.765552,1.177117,0.705537,1.307515,0.618408,1.418408,0.507515,1.505537,0.377117,1.565552,0.232228,1.596148,0.078414,1.596148,-0.078414,1.565552,-0.232228,1.505537,-0.377117,1.418408,-0.507515,1.307515,-0.618408,1.177117,-0.705537,1.032228,-0.765552,0.878414,-0.796148,0.800000,-0.796148,0.800000,-0.800000,-1.400000,-0.800000,
-1.403843,-0.796157,-1.439018,-0.796157,-1.511114,-0.766294,-1.566294,-0.711114,-1.596157,-0.639018,-1.596157,-0.603843,-1.600000,-0.600000,-1.600000,0.600000,-1.596157,0.603843,-1.596157,0.639018,-1.566294,0.711114,-1.511114,0.766294,-1.439018,0.796157,-1.403843,0.796157,-1.400000,0.800000,0.800000,0.800000,0.800000,0.796148,0.800000,0.796148,$1*%
%AMFreePoly1*
4,1,37,0.000000,0.796148,0.078414,0.796148,0.232228,0.765552,0.377117,0.705537,0.507515,0.618408,0.618408,0.507515,0.705537,0.377117,0.765552,0.232228,0.796148,0.078414,0.796148,-0.078414,0.765552,-0.232228,0.705537,-0.377117,0.618408,-0.507515,0.507515,-0.618408,0.377117,-0.705537,0.232228,-0.765552,0.078414,-0.796148,0.000000,-0.796148,0.000000,-0.800000,-0.600000,-0.800000,
-0.603843,-0.796157,-0.639018,-0.796157,-0.711114,-0.766294,-0.766294,-0.711114,-0.796157,-0.639018,-0.796157,-0.603843,-0.800000,-0.600000,-0.800000,0.600000,-0.796157,0.603843,-0.796157,0.639018,-0.766294,0.711114,-0.711114,0.766294,-0.639018,0.796157,-0.603843,0.796157,-0.600000,0.800000,0.000000,0.800000,0.000000,0.796148,0.000000,0.796148,$1*%
%AMFreePoly2*
4,1,37,0.603843,0.796157,0.639018,0.796157,0.711114,0.766294,0.766294,0.711114,0.796157,0.639018,0.796157,0.603843,0.800000,0.600000,0.800000,-0.600000,0.796157,-0.603843,0.796157,-0.639018,0.766294,-0.711114,0.711114,-0.766294,0.639018,-0.796157,0.603843,-0.796157,0.600000,-0.800000,0.000000,-0.800000,0.000000,-0.796148,-0.078414,-0.796148,-0.232228,-0.765552,-0.377117,-0.705537,
-0.507515,-0.618408,-0.618408,-0.507515,-0.705537,-0.377117,-0.765552,-0.232228,-0.796148,-0.078414,-0.796148,0.078414,-0.765552,0.232228,-0.705537,0.377117,-0.618408,0.507515,-0.507515,0.618408,-0.377117,0.705537,-0.232228,0.765552,-0.078414,0.796148,0.000000,0.796148,0.000000,0.800000,0.600000,0.800000,0.603843,0.796157,0.603843,0.796157,$1*%
%AMFreePoly3*
4,1,37,1.403843,0.796157,1.439018,0.796157,1.511114,0.766294,1.566294,0.711114,1.596157,0.639018,1.596157,0.603843,1.600000,0.600000,1.600000,-0.600000,1.596157,-0.603843,1.596157,-0.639018,1.566294,-0.711114,1.511114,-0.766294,1.439018,-0.796157,1.403843,-0.796157,1.400000,-0.800000,-0.800000,-0.800000,-0.800000,-0.796148,-0.878414,-0.796148,-1.032228,-0.765552,-1.177117,-0.705537,
-1.307515,-0.618408,-1.418408,-0.507515,-1.505537,-0.377117,-1.565552,-0.232228,-1.596148,-0.078414,-1.596148,0.078414,-1.565552,0.232228,-1.505537,0.377117,-1.418408,0.507515,-1.307515,0.618408,-1.177117,0.705537,-1.032228,0.765552,-0.878414,0.796148,-0.800000,0.796148,-0.800000,0.800000,1.400000,0.800000,1.403843,0.796157,1.403843,0.796157,$1*%
G04 Aperture macros list end*
%TA.AperFunction,SMDPad,CuDef*%
%ADD10RoundRect,0.250000X-0.625000X0.400000X-0.625000X-0.400000X0.625000X-0.400000X0.625000X0.400000X0*%
%TD*%
%TA.AperFunction,ComponentPad*%
%ADD11R,1.700000X1.700000*%
%TD*%
%TA.AperFunction,ComponentPad*%
%ADD12C,1.700000*%
%TD*%
%TA.AperFunction,ComponentPad*%
%ADD13O,0.900000X1.400000*%
%TD*%
%TA.AperFunction,ComponentPad*%
%ADD14RoundRect,0.225000X-0.225000X-0.475000X0.225000X-0.475000X0.225000X0.475000X-0.225000X0.475000X0*%
%TD*%
%TA.AperFunction,SMDPad,CuDef*%
%ADD15RoundRect,0.800000X-0.800000X-0.000010X0.800000X-0.000010X0.800000X0.000010X-0.800000X0.000010X0*%
%TD*%
%TA.AperFunction,ComponentPad*%
%ADD16C,1.600000*%
%TD*%
%TA.AperFunction,SMDPad,CuDef*%
%ADD17FreePoly0,0.000000*%
%TD*%
%TA.AperFunction,ComponentPad*%
%ADD18FreePoly1,0.000000*%
%TD*%
%TA.AperFunction,ComponentPad*%
%ADD19FreePoly2,0.000000*%
%TD*%
%TA.AperFunction,SMDPad,CuDef*%
%ADD20FreePoly3,0.000000*%
%TD*%
%TA.AperFunction,ComponentPad*%
%ADD21RoundRect,0.200000X-0.600000X-0.600000X0.600000X-0.600000X0.600000X0.600000X-0.600000X0.600000X0*%
%TD*%
%TA.AperFunction,SMDPad,CuDef*%
%ADD22RoundRect,0.125000X-0.125000X0.125000X-0.125000X-0.125000X0.125000X-0.125000X0.125000X0.125000X0*%
%TD*%
%TA.AperFunction,ComponentPad*%
%ADD23R,1.350000X1.350000*%
%TD*%
%TA.AperFunction,ComponentPad*%
%ADD24C,1.350000*%
%TD*%
%TA.AperFunction,SMDPad,CuDef*%
%ADD25RoundRect,0.250000X0.650000X-0.412500X0.650000X0.412500X-0.650000X0.412500X-0.650000X-0.412500X0*%
%TD*%
%TA.AperFunction,SMDPad,CuDef*%
%ADD26RoundRect,0.250000X-0.400000X-0.625000X0.400000X-0.625000X0.400000X0.625000X-0.400000X0.625000X0*%
%TD*%
%TA.AperFunction,SMDPad,CuDef*%
%ADD27RoundRect,0.150000X-0.625000X-0.150000X0.625000X-0.150000X0.625000X0.150000X-0.625000X0.150000X0*%
%TD*%
%TA.AperFunction,SMDPad,CuDef*%
%ADD28RoundRect,0.150000X-0.150000X-0.625000X0.150000X-0.625000X0.150000X0.625000X-0.150000X0.625000X0*%
%TD*%
%TA.AperFunction,SMDPad,CuDef*%
%ADD29RoundRect,0.250000X0.412500X0.650000X-0.412500X0.650000X-0.412500X-0.650000X0.412500X-0.650000X0*%
%TD*%
%TA.AperFunction,SMDPad,CuDef*%
%ADD30RoundRect,0.100000X-0.637500X-0.100000X0.637500X-0.100000X0.637500X0.100000X-0.637500X0.100000X0*%
%TD*%
%TA.AperFunction,SMDPad,CuDef*%
%ADD31RoundRect,0.250000X-0.412500X-0.650000X0.412500X-0.650000X0.412500X0.650000X-0.412500X0.650000X0*%
%TD*%
%TA.AperFunction,SMDPad,CuDef*%
%ADD32RoundRect,0.250000X-0.650000X0.412500X-0.650000X-0.412500X0.650000X-0.412500X0.650000X0.412500X0*%
%TD*%
%TA.AperFunction,SMDPad,CuDef*%
%ADD33RoundRect,0.250000X0.625000X-0.400000X0.625000X0.400000X-0.625000X0.400000X-0.625000X-0.400000X0*%
%TD*%
%TA.AperFunction,SMDPad,CuDef*%
%ADD34RoundRect,0.100000X-0.100000X0.637500X-0.100000X-0.637500X0.100000X-0.637500X0.100000X0.637500X0*%
%TD*%
%TA.AperFunction,SMDPad,CuDef*%
%ADD35RoundRect,0.250000X0.400000X0.625000X-0.400000X0.625000X-0.400000X-0.625000X0.400000X-0.625000X0*%
%TD*%
%TA.AperFunction,SMDPad,CuDef*%
%ADD36R,1.092200X1.143000*%
%TD*%
%TA.AperFunction,ComponentPad*%
%ADD37RoundRect,0.225000X0.525000X-0.525000X0.525000X0.525000X-0.525000X0.525000X-0.525000X-0.525000X0*%
%TD*%
%TA.AperFunction,ViaPad*%
%ADD38C,0.600000*%
%TD*%
%TA.AperFunction,Conductor*%
%ADD39C,0.200000*%
%TD*%
G04 APERTURE END LIST*
D10*
%TO.P,R11,1*%
%TO.N,Net-(R11-Pad1)*%
X87500000Y-30950000D03*
%TO.P,R11,2*%
%TO.N,Net-(rPi1-GPIO6)*%
X87500000Y-34050000D03*
%TD*%
D11*
%TO.P,SW1,1*%
%TO.N,Net-(R10-Pad2)*%
X75920000Y-24000000D03*
D12*
%TO.P,SW1,2*%
%TO.N,Net-(R9-Pad2)*%
X78460000Y-24000000D03*
%TO.P,SW1,3*%
%TO.N,/GNDD*%
X81000000Y-24000000D03*
%TO.P,SW1,4*%
%TO.N,Net-(R11-Pad1)*%
X83540000Y-24000000D03*
%TO.P,SW1,5*%
%TO.N,/GNDD*%
X86080000Y-24000000D03*
%TD*%
D13*
%TO.P,Control,2,Pin_2_2*%
%TO.N,Net-(ControlJack1-Pin_2)*%
X196250000Y-32000000D03*
D14*
%TO.P,Control,1,Pin_1_1*%
%TO.N,Net-(ControlJack1-Pin_1)*%
X195000000Y-32000000D03*
%TD*%
D10*
%TO.P,R12,2*%
%TO.N,Net-(rPi1-VSYS)*%
X145000000Y-35550000D03*
%TO.P,R12,1*%
%TO.N,Net-(rPi1-3V3_EN)*%
X145000000Y-32450000D03*
%TD*%
D15*
%TO.P,rPi1,40,VBUS_40*%
%TO.N,Net-(rPi1-VBUS)*%
X175580000Y-22220000D03*
D16*
X174780000Y-22220000D03*
D15*
%TO.P,rPi1,39,VSYS_39*%
%TO.N,Net-(rPi1-VSYS)*%
X175580000Y-24760000D03*
D16*
X174780000Y-24760000D03*
D17*
%TO.P,rPi1,38,GND_38*%
%TO.N,/GNDD*%
X175580000Y-27300000D03*
D18*
X174780000Y-27300000D03*
D15*
%TO.P,rPi1,37,3V3_EN_37*%
%TO.N,Net-(rPi1-3V3_EN)*%
X175580000Y-29840000D03*
D16*
X174780000Y-29840000D03*
D15*
%TO.P,rPi1,36,3V3_36*%
%TO.N,Net-(SPi_Level1-A8)*%
X175580000Y-32380000D03*
D16*
X174780000Y-32380000D03*
D15*
%TO.P,rPi1,35,ADC_VREF_35*%
%TO.N,unconnected-(rPi1-ADC_VREF-Pad35)*%
X175580000Y-34920000D03*
D16*
X174780000Y-34920000D03*
D15*
%TO.P,rPi1,34,GPIO28_ADC2_34*%
%TO.N,unconnected-(rPi1-GPIO28_ADC2-Pad34)*%
X175580000Y-37460000D03*
D16*
X174780000Y-37460000D03*
D17*
%TO.P,rPi1,33,AGND_33*%
%TO.N,GND*%
X175580000Y-40000000D03*
D18*
X174780000Y-40000000D03*
D15*
%TO.P,rPi1,32,GPIO27_ADC1_32*%
%TO.N,/CT*%
X175580000Y-42540000D03*
D16*
X174780000Y-42540000D03*
D15*
%TO.P,rPi1,31,GPIO26_ADC0_31*%
%TO.N,Net-(rPi1-GPIO26_ADC0)*%
X175580000Y-45080000D03*
D16*
X174780000Y-45080000D03*
D15*
%TO.P,rPi1,30,RUN_30*%
%TO.N,unconnected-(rPi1-RUN-Pad30)*%
X175580000Y-47620000D03*
D16*
X174780000Y-47620000D03*
D15*
%TO.P,rPi1,29,GPIO22_29*%
%TO.N,Net-(ControlJack1-Pin_2)*%
X175580000Y-50160000D03*
D16*
X174780000Y-50160000D03*
D17*
%TO.P,rPi1,28,GND_28*%
%TO.N,/GNDD*%
X175580000Y-52700000D03*
D18*
X174780000Y-52700000D03*
D15*
%TO.P,rPi1,27,GPIO21_27*%
%TO.N,Net-(i2S_Audio1-BCK)*%
X175580000Y-55240000D03*
D16*
X174780000Y-55240000D03*
D15*
%TO.P,rPi1,26,GPIO20_26*%
%TO.N,Net-(i2S_Audio1-DIN)*%
X175580000Y-57780000D03*
D16*
X174780000Y-57780000D03*
D15*
%TO.P,rPi1,25,GPIO19_25*%
%TO.N,Net-(i2S_Audio1-LRCK)*%
X175580000Y-60320000D03*
D16*
X174780000Y-60320000D03*
D15*
%TO.P,rPi1,24,GPIO18_24*%
%TO.N,Net-(rPi1-GPIO18)*%
X175580000Y-62860000D03*
D16*
X174780000Y-62860000D03*
D17*
%TO.P,rPi1,23,GND_23*%
%TO.N,/GNDD*%
X175580000Y-65400000D03*
D18*
X174780000Y-65400000D03*
D15*
%TO.P,rPi1,22,GPIO17_22*%
%TO.N,/JOG2*%
X175580000Y-67940000D03*
D16*
X174780000Y-67940000D03*
D15*
%TO.P,rPi1,21,GPIO16_21*%
%TO.N,/JOG1*%
X175580000Y-70480000D03*
D16*
X174780000Y-70480000D03*
%TO.P,rPi1,20,GPIO15_20*%
%TO.N,Net-(ControlJack1-Pin_1)*%
X157000000Y-70480000D03*
D15*
X156200000Y-70480000D03*
D16*
%TO.P,rPi1,19,GPIO14_19*%
%TO.N,Net-(D12-K)*%
X157000000Y-67940000D03*
D15*
X156200000Y-67940000D03*
D19*
%TO.P,rPi1,18,GND_18*%
%TO.N,/GNDD*%
X157000000Y-65400000D03*
D20*
X156200000Y-65400000D03*
D16*
%TO.P,rPi1,17,GPIO13_17*%
%TO.N,Net-(D11-K)*%
X157000000Y-62860000D03*
D15*
X156200000Y-62860000D03*
D16*
%TO.P,rPi1,16,GPIO12_16*%
%TO.N,Net-(D10-K)*%
X157000000Y-60320000D03*
D15*
X156200000Y-60320000D03*
D16*
%TO.P,rPi1,15,GPIO11_15*%
%TO.N,Net-(D9-K)*%
X157000000Y-57780000D03*
D15*
X156200000Y-57780000D03*
D16*
%TO.P,rPi1,14,GPIO10_14*%
%TO.N,Net-(D8-K)*%
X157000000Y-55240000D03*
D15*
X156200000Y-55240000D03*
D19*
%TO.P,rPi1,13,GND_13*%
%TO.N,/GNDD*%
X157000000Y-52700000D03*
D20*
X156200000Y-52700000D03*
D16*
%TO.P,rPi1,12,GPIO9_12*%
%TO.N,Net-(SPi_Level1-A1)*%
X157000000Y-50160000D03*
D15*
X156200000Y-50160000D03*
D16*
%TO.P,rPi1,11,GPIO8_11*%
%TO.N,Net-(SPi_Level1-A2)*%
X157000000Y-47620000D03*
D15*
X156200000Y-47620000D03*
D16*
%TO.P,rPi1,10,GPIO7_10*%
%TO.N,Net-(SPi_Level1-A3)*%
X157000000Y-45080000D03*
D15*
X156200000Y-45080000D03*
D16*
%TO.P,rPi1,9,GPIO6_9*%
%TO.N,Net-(rPi1-GPIO6)*%
X157000000Y-42540000D03*
D15*
X156200000Y-42540000D03*
D19*
%TO.P,rPi1,8,GND_8*%
%TO.N,/GNDD*%
X157000000Y-40000000D03*
D20*
X156200000Y-40000000D03*
D16*
%TO.P,rPi1,7,GPIO5_7*%
%TO.N,Net-(rPi1-GPIO5)*%
X157000000Y-37460000D03*
D15*
X156200000Y-37460000D03*
D16*
%TO.P,rPi1,6,GPIO4_6*%
%TO.N,Net-(rPi1-GPIO4)*%
X157000000Y-34920000D03*
D15*
X156200000Y-34920000D03*
D16*
%TO.P,rPi1,5,GPIO3_5*%
%TO.N,Net-(SPi_Level1-A7)*%
X157000000Y-32380000D03*
D15*
X156200000Y-32380000D03*
D16*
%TO.P,rPi1,4,GPIO2_4*%
%TO.N,Net-(SPi_Level1-A5)*%
X157000000Y-29840000D03*
D15*
X156200000Y-29840000D03*
D19*
%TO.P,rPi1,3,GND_3*%
%TO.N,/GNDD*%
X157000000Y-27300000D03*
D20*
X156200000Y-27300000D03*
D16*
%TO.P,rPi1,2,GPIO1_2*%
%TO.N,Net-(SPi_Level1-A4)*%
X157000000Y-24760000D03*
D15*
X156200000Y-24760000D03*
D21*
%TO.P,rPi1,1,GPIO0_1*%
%TO.N,Net-(SPi_Level1-A6)*%
X157000000Y-22220000D03*
D17*
X156200000Y-22220000D03*
%TD*%
D22*
%TO.P,D10,2,A_2*%
%TO.N,/GR14*%
X135000000Y-148600000D03*
%TO.P,D10,1,K_1*%
%TO.N,Net-(D10-K)*%
X135000000Y-146400000D03*
%TD*%
D23*
%TO.P,TB1,1,Pin_14_1*%
%TO.N,Net-(DSPB_Conn1-Pin_3)*%
X194000000Y-90000000D03*
D24*
%TO.P,TB1,2,Pin_13_2*%
%TO.N,Net-(DSPB_Conn1-Pin_1)*%
X194000000Y-88000000D03*
%TO.P,TB1,3,Pin_12_3*%
%TO.N,Net-(TB1-Pin_12)*%
X194000000Y-86000000D03*
%TO.P,TB1,4,Pin_11_4*%
%TO.N,Net-(TB1-Pin_11)*%
X194000000Y-84000000D03*
%TO.P,TB1,5,Pin_10_5*%
%TO.N,GND*%
X194000000Y-82000000D03*
%TO.P,TB1,6,Pin_9_6*%
%TO.N,Net-(TB1-Pin_9)*%
X194000000Y-80000000D03*
%TO.P,TB1,7,Pin_8_7*%
%TO.N,Net-(ControlJack1-Pin_2)*%
X194000000Y-78000000D03*
%TO.P,TB1,8,Pin_7_8*%
%TO.N,Net-(ControlJack1-Pin_1)*%
X194000000Y-76000000D03*
%TO.P,TB1,9,Pin_6_9*%
%TO.N,Net-(DSPB_Conn1-Pin_36)*%
X194000000Y-74000000D03*
%TO.P,TB1,10,Pin_5_10*%
%TO.N,/GNDD*%
X194000000Y-72000000D03*
%TO.P,TB1,11,Pin_4_11*%
%TO.N,Net-(TB1-Pin_4)*%
X194000000Y-70000000D03*
%TO.P,TB1,12,Pin_3_12*%
%TO.N,unconnected-(TB1-Pin_3-Pad12)*%
X194000000Y-68000000D03*
%TO.P,TB1,13,Pin_2_13*%
%TO.N,Net-(DSPB_Conn1-Pin_2)*%
X194000000Y-66000000D03*
%TO.P,TB1,14,Pin_1_14*%
%TO.N,Net-(DSPB_Conn1-Pin_4)*%
X194000000Y-64000000D03*
%TD*%
D25*
%TO.P,C17,1*%
%TO.N,Net-(DSPB_Conn1-Pin_36)*%
X118000000Y-75562500D03*
%TO.P,C17,2*%
%TO.N,/GNDD*%
X118000000Y-72437500D03*
%TD*%
D26*
%TO.P,R17,1*%
%TO.N,/DOUT*%
X152962500Y-132500000D03*
%TO.P,R17,2*%
X156062500Y-132500000D03*
%TD*%
D27*
%TO.P,U1,1,CLK_1*%
%TO.N,Net-(U1-CLK)*%
X165325000Y-161000000D03*
%TO.P,U1,2,DIN_2*%
%TO.N,/DIN*%
X165325000Y-162000000D03*
%TO.P,U1,3,STB_3*%
%TO.N,/STB*%
X165325000Y-163000000D03*
%TO.P,U1,4,DOUT_4*%
%TO.N,/DOUT*%
X165325000Y-164000000D03*
%TO.P,U1,5,K1_5*%
%TO.N,unconnected-(U1-K1-Pad5)*%
X165325000Y-165000000D03*
%TO.P,U1,6,K2_6*%
%TO.N,unconnected-(U1-K2-Pad6)*%
X165325000Y-166000000D03*
%TO.P,U1,7,OSC_7*%
%TO.N,Net-(U1-OSC)*%
X165325000Y-167000000D03*
%TO.P,U1,8,GND_8*%
%TO.N,/GNDD*%
X165325000Y-168000000D03*
%TO.P,U1,9,VDD_9*%
%TO.N,/VDD*%
X165325000Y-169000000D03*
%TO.P,U1,10,SG1_10*%
%TO.N,/SG1*%
X165325000Y-170000000D03*
%TO.P,U1,11,SG2_11*%
%TO.N,/SG2*%
X165325000Y-171000000D03*
%TO.P,U1,12,SG3_12*%
%TO.N,/SG3*%
X165325000Y-172000000D03*
%TO.P,U1,13,SG4_13*%
%TO.N,/SG4*%
X165325000Y-173000000D03*
D28*
%TO.P,U1,14,SG5_14*%
%TO.N,/SG5*%
X167000000Y-174675000D03*
%TO.P,U1,15,SG6_15*%
%TO.N,/SG6*%
X168000000Y-174675000D03*
%TO.P,U1,16,SG7_16*%
%TO.N,Net-(DSPB_Conn1-Pin_20)*%
X169000000Y-174675000D03*
%TO.P,U1,17,SG8_17*%
%TO.N,/SG8*%
X170000000Y-174675000D03*
%TO.P,U1,18,SG9_18*%
%TO.N,/SG9*%
X171000000Y-174675000D03*
%TO.P,U1,19,SG10_19*%
%TO.N,/SG10*%
X172000000Y-174675000D03*
%TO.P,U1,20,SG11_20*%
%TO.N,/SG11*%
X173000000Y-174675000D03*
%TO.P,U1,21,SG12_21*%
%TO.N,/SG12*%
X174000000Y-174675000D03*
%TO.P,U1,22,SG13_22*%
%TO.N,unconnected-(U1-SG13-Pad22)*%
X175000000Y-174675000D03*
%TO.P,U1,23,SG14_23*%
%TO.N,unconnected-(U1-SG14-Pad23)*%
X176000000Y-174675000D03*
%TO.P,U1,24,SG15_24*%
%TO.N,unconnected-(U1-SG15-Pad24)*%
X177000000Y-174675000D03*
%TO.P,U1,25,SG16_25*%
%TO.N,unconnected-(U1-SG16-Pad25)*%
X178000000Y-174675000D03*
%TO.P,U1,26,SG17_26*%
%TO.N,unconnected-(U1-SG17-Pad26)*%
X179000000Y-174675000D03*
D27*
%TO.P,U1,27,SG18_27*%
%TO.N,unconnected-(U1-SG18-Pad27)*%
X180675000Y-173000000D03*
%TO.P,U1,28,SG19_28*%
%TO.N,unconnected-(U1-SG19-Pad28)*%
X180675000Y-172000000D03*
%TO.P,U1,29,SG20_29*%
%TO.N,unconnected-(U1-SG20-Pad29)*%
X180675000Y-171000000D03*
%TO.P,U1,30,SG21_30*%
%TO.N,unconnected-(U1-SG21-Pad30)*%
X180675000Y-170000000D03*
%TO.P,U1,31,SG22_31*%
%TO.N,unconnected-(U1-SG22-Pad31)*%
X180675000Y-169000000D03*
%TO.P,U1,32,SG23_32*%
%TO.N,unconnected-(U1-SG23-Pad32)*%
X180675000Y-168000000D03*
%TO.P,U1,33,SG24_33*%
%TO.N,unconnected-(U1-SG24-Pad33)*%
X180675000Y-167000000D03*
%TO.P,U1,34,GR1_34*%
%TO.N,/GR1*%
X180675000Y-166000000D03*
%TO.P,U1,35,GR2_35*%
%TO.N,/GR2*%
X180675000Y-165000000D03*
%TO.P,U1,36,GR3_36*%
%TO.N,/GR3*%
X180675000Y-164000000D03*
%TO.P,U1,37,GR4_37*%
%TO.N,/GR4*%
X180675000Y-163000000D03*
%TO.P,U1,38,GR5_38*%
%TO.N,/GR5*%
X180675000Y-162000000D03*
%TO.P,U1,39,GR6_39*%
%TO.N,/GR6*%
X180675000Y-161000000D03*
D28*
%TO.P,U1,40,GR7_40*%
%TO.N,/GR7*%
X179000000Y-159325000D03*
%TO.P,U1,41,GR8_41*%
%TO.N,/GR8*%
X178000000Y-159325000D03*
%TO.P,U1,42,GR9_42*%
%TO.N,/GR9*%
X177000000Y-159325000D03*
%TO.P,U1,43,GR10_43*%
%TO.N,/GR10*%
X176000000Y-159325000D03*
%TO.P,U1,44,GR11_44*%
%TO.N,/GR11*%
X175000000Y-159325000D03*
%TO.P,U1,45,GR12_45*%
%TO.N,/GR12*%
X174000000Y-159325000D03*
%TO.P,U1,46,GR13_46*%
%TO.N,/GR13*%
X173000000Y-159325000D03*
%TO.P,U1,47,GR14_47*%
%TO.N,/GR14*%
X172000000Y-159325000D03*
%TO.P,U1,48,GR15_48*%
%TO.N,Net-(D9-A)*%
X171000000Y-159325000D03*
%TO.P,U1,49,GR16_49*%
%TO.N,/GR15*%
X170000000Y-159325000D03*
%TO.P,U1,50,VEE_50*%
%TO.N,Net-(TB1-Pin_12)*%
X169000000Y-159325000D03*
%TO.P,U1,51,VDD_51*%
%TO.N,/VDD*%
X168000000Y-159325000D03*
%TO.P,U1,52,GND_52*%
%TO.N,/GNDD*%
X167000000Y-159325000D03*
%TD*%
D29*
%TO.P,C10,1*%
%TO.N,Net-(rPi1-GPIO4)*%
X81562500Y-45500000D03*
%TO.P,C10,2*%
%TO.N,/GNDD*%
X78437500Y-45500000D03*
%TD*%
D30*
%TO.P,i2S_Audio1,1,CPVDD_1*%
%TO.N,Net-(i2S_Audio1-CPVDD)*%
X189637500Y-41550000D03*
%TO.P,i2S_Audio1,2,CAPP_2*%
%TO.N,Net-(i2S_Audio1-CAPP)*%
X189637500Y-42200000D03*
%TO.P,i2S_Audio1,3,CPGND_3*%
%TO.N,GND*%
X189637500Y-42850000D03*
%TO.P,i2S_Audio1,4,CAPM_4*%
%TO.N,Net-(i2S_Audio1-CAPM)*%
X189637500Y-43500000D03*
%TO.P,i2S_Audio1,5,VNEG_5*%
%TO.N,Net-(i2S_Audio1-VNEG)*%
X189637500Y-44150000D03*
%TO.P,i2S_Audio1,6,OUTL_6*%
%TO.N,Net-(TB1-Pin_9)*%
X189637500Y-44800000D03*
%TO.P,i2S_Audio1,7,OUTR_7*%
%TO.N,Net-(TB1-Pin_11)*%
X189637500Y-45450000D03*
%TO.P,i2S_Audio1,8,AVDD_8*%
%TO.N,Net-(i2S_Audio1-AVDD)*%
X189637500Y-46100000D03*
%TO.P,i2S_Audio1,9,AGND_9*%
%TO.N,GND*%
X189637500Y-46750000D03*
%TO.P,i2S_Audio1,10,DEMP_10*%
X189637500Y-47400000D03*
%TO.P,i2S_Audio1,11,FLT_11*%
X195362500Y-47400000D03*
%TO.P,i2S_Audio1,12,SCK_12*%
X195362500Y-46750000D03*
%TO.P,i2S_Audio1,13,BCK_13*%
%TO.N,Net-(i2S_Audio1-BCK)*%
X195362500Y-46100000D03*
%TO.P,i2S_Audio1,14,DIN_14*%
%TO.N,Net-(i2S_Audio1-DIN)*%
X195362500Y-45450000D03*
%TO.P,i2S_Audio1,15,LRCK_15*%
%TO.N,Net-(i2S_Audio1-LRCK)*%
X195362500Y-44800000D03*
%TO.P,i2S_Audio1,16,FMT_16*%
%TO.N,GND*%
X195362500Y-44150000D03*
%TO.P,i2S_Audio1,17,XSMT_17*%
%TO.N,Net-(TB1-Pin_4)*%
X195362500Y-43500000D03*
%TO.P,i2S_Audio1,18,LDOO_18*%
%TO.N,Net-(i2S_Audio1-LDOO)*%
X195362500Y-42850000D03*
%TO.P,i2S_Audio1,19,DGND_19*%
%TO.N,GND*%
X195362500Y-42200000D03*
%TO.P,i2S_Audio1,20,DVDD_20*%
%TO.N,Net-(i2S_Audio1-CPVDD)*%
X195362500Y-41550000D03*
%TD*%
D31*
%TO.P,C19,1*%
%TO.N,/CLK*%
X146437500Y-125000000D03*
%TO.P,C19,2*%
%TO.N,/GNDD*%
X149562500Y-125000000D03*
%TD*%
%TO.P,C18,1*%
%TO.N,/GNDD*%
X134437500Y-34000000D03*
%TO.P,C18,2*%
%TO.N,Net-(rPi1-VSYS)*%
X137562500Y-34000000D03*
%TD*%
%TO.P,C11,1*%
%TO.N,Net-(SPi_Level1-A8)*%
X181575000Y-42500000D03*
%TO.P,C11,2*%
%TO.N,Net-(i2S_Audio1-CPVDD)*%
X184700000Y-42500000D03*
%TD*%
D32*
%TO.P,C1,1*%
%TO.N,/CT*%
X172000000Y-91437500D03*
%TO.P,C1,2*%
%TO.N,GND*%
X172000000Y-94562500D03*
%TD*%
D33*
%TO.P,R10,1*%
%TO.N,Net-(rPi1-GPIO5)*%
X77500000Y-34050000D03*
%TO.P,R10,2*%
%TO.N,Net-(R10-Pad2)*%
X77500000Y-30950000D03*
%TD*%
D34*
%TO.P,SPi_Level1,1,A1_1*%
%TO.N,Net-(SPi_Level1-A1)*%
X135925000Y-91637500D03*
%TO.P,SPi_Level1,2,VCCA_2*%
%TO.N,Net-(SPi_Level1-A8)*%
X135275000Y-91637500D03*
%TO.P,SPi_Level1,3,A2_3*%
%TO.N,Net-(SPi_Level1-A2)*%
X134625000Y-91637500D03*
%TO.P,SPi_Level1,4,A3_4*%
%TO.N,Net-(SPi_Level1-A3)*%
X133975000Y-91637500D03*
%TO.P,SPi_Level1,5,A4_5*%
%TO.N,Net-(SPi_Level1-A4)*%
X133325000Y-91637500D03*
%TO.P,SPi_Level1,6,A5_6*%
%TO.N,Net-(SPi_Level1-A5)*%
X132675000Y-91637500D03*
%TO.P,SPi_Level1,7,A6_7*%
%TO.N,Net-(SPi_Level1-A6)*%
X132025000Y-91637500D03*
%TO.P,SPi_Level1,8,A7_8*%
%TO.N,Net-(SPi_Level1-A7)*%
X131375000Y-91637500D03*
%TO.P,SPi_Level1,9,A8_9*%
%TO.N,Net-(SPi_Level1-A8)*%
X130725000Y-91637500D03*
%TO.P,SPi_Level1,10,OE_10*%
%TO.N,Net-(SPi_Level1-OE)*%
X130075000Y-91637500D03*
%TO.P,SPi_Level1,11,GND_11*%
%TO.N,/GNDD*%
X130075000Y-97362500D03*
%TO.P,SPi_Level1,12,B8_12*%
%TO.N,/VDD*%
X130725000Y-97362500D03*
%TO.P,SPi_Level1,13,B7_13*%
%TO.N,/DIN*%
X131375000Y-97362500D03*
%TO.P,SPi_Level1,14,B6_14*%
%TO.N,/DOUT*%
X132025000Y-97362500D03*
%TO.P,SPi_Level1,15,B5_15*%
%TO.N,/CLK*%
X132675000Y-97362500D03*
%TO.P,SPi_Level1,16,B4_16*%
%TO.N,/STB*%
X133325000Y-97362500D03*
%TO.P,SPi_Level1,17,B3_17*%
%TO.N,Net-(DSPB_Conn1-Pin_30)*%
X133975000Y-97362500D03*
%TO.P,SPi_Level1,18,B2_18*%
%TO.N,Net-(DSPB_Conn1-Pin_29)*%
X134625000Y-97362500D03*
%TO.P,SPi_Level1,19,VCCB_19*%
%TO.N,Net-(DSPB_Conn1-Pin_36)*%
X135275000Y-97362500D03*
%TO.P,SPi_Level1,20,B1_20*%
%TO.N,/KD0*%
X135925000Y-97362500D03*
%TD*%
D25*
%TO.P,C12,1*%
%TO.N,Net-(SPi_Level1-A8)*%
X124500000Y-75562500D03*
%TO.P,C12,2*%
%TO.N,/GNDD*%
X124500000Y-72437500D03*
%TD*%
D10*
%TO.P,R6,1*%
%TO.N,Net-(R4-Pad1)*%
X180000000Y-107450000D03*
%TO.P,R6,2*%
%TO.N,GND*%
X180000000Y-110550000D03*
%TD*%
D26*
%TO.P,R13,1*%
%TO.N,Net-(rPi1-GPIO18)*%
X127400000Y-31000000D03*
%TO.P,R13,2*%
%TO.N,/GNDD*%
X130500000Y-31000000D03*
%TD*%
%TO.P,R20,1*%
%TO.N,/GNDD*%
X153462500Y-141000000D03*
%TO.P,R20,2*%
%TO.N,Net-(U1-OSC)*%
X156562500Y-141000000D03*
%TD*%
D31*
%TO.P,C13,1*%
%TO.N,Net-(SPi_Level1-A8)*%
X181575000Y-37000000D03*
%TO.P,C13,2*%
%TO.N,Net-(i2S_Audio1-AVDD)*%
X184700000Y-37000000D03*
%TD*%
D10*
%TO.P,R2,1*%
%TO.N,Net-(R1-Pad2)*%
X180000000Y-91950000D03*
%TO.P,R2,2*%
%TO.N,GND*%
X180000000Y-95050000D03*
%TD*%
D22*
%TO.P,D12,1,K_1*%
%TO.N,Net-(D12-K)*%
X141000000Y-158400000D03*
%TO.P,D12,2,A_2*%
%TO.N,/GR12*%
X141000000Y-160600000D03*
%TD*%
D10*
%TO.P,R1,1*%
%TO.N,Net-(DSPB_Conn1-Pin_34)*%
X180000000Y-83950000D03*
%TO.P,R1,2*%
%TO.N,Net-(R1-Pad2)*%
X180000000Y-87050000D03*
%TD*%
D26*
%TO.P,R19,1*%
%TO.N,/VDD*%
X146462500Y-141000000D03*
%TO.P,R19,2*%
%TO.N,/DOUT*%
X149562500Y-141000000D03*
%TD*%
D32*
%TO.P,C4,1*%
%TO.N,Net-(rPi1-GPIO26_ADC0)*%
X172500000Y-107437500D03*
%TO.P,C4,2*%
%TO.N,GND*%
X172500000Y-110562500D03*
%TD*%
D10*
%TO.P,R5,1*%
%TO.N,Net-(DSPB_Conn1-Pin_35)*%
X180000000Y-99450000D03*
%TO.P,R5,2*%
%TO.N,Net-(R4-Pad1)*%
X180000000Y-102550000D03*
%TD*%
D22*
%TO.P,D11,1,K_1*%
%TO.N,Net-(D11-K)*%
X138000000Y-152400000D03*
%TO.P,D11,2,A_2*%
%TO.N,/GR13*%
X138000000Y-154600000D03*
%TD*%
D31*
%TO.P,C21,1*%
%TO.N,/VDD*%
X159437500Y-125000000D03*
%TO.P,C21,2*%
%TO.N,/GNDD*%
X162562500Y-125000000D03*
%TD*%
D25*
%TO.P,C16,1*%
%TO.N,Net-(i2S_Audio1-LDOO)*%
X162500000Y-83500000D03*
%TO.P,C16,2*%
%TO.N,GND*%
X162500000Y-80375000D03*
%TD*%
D31*
%TO.P,C14,1*%
%TO.N,Net-(i2S_Audio1-CAPP)*%
X181437500Y-53500000D03*
%TO.P,C14,2*%
%TO.N,Net-(i2S_Audio1-CAPM)*%
X184562500Y-53500000D03*
%TD*%
%TO.P,C15,1*%
%TO.N,Net-(i2S_Audio1-VNEG)*%
X181437500Y-48000000D03*
%TO.P,C15,2*%
%TO.N,GND*%
X184562500Y-48000000D03*
%TD*%
D22*
%TO.P,D9,1,K_1*%
%TO.N,Net-(D9-K)*%
X132000000Y-140400000D03*
%TO.P,D9,2,A_2*%
%TO.N,Net-(D9-A)*%
X132000000Y-142600000D03*
%TD*%
D35*
%TO.P,R3,1*%
%TO.N,Net-(R1-Pad2)*%
X177550000Y-89500000D03*
%TO.P,R3,2*%
%TO.N,/CT*%
X174450000Y-89500000D03*
%TD*%
D36*
%TO.P,CR2,1*%
%TO.N,Net-(rPi1-VSYS)*%
X140000000Y-40963300D03*
%TO.P,CR2,2*%
%TO.N,Net-(DSPB_Conn1-Pin_36)*%
X140000000Y-44036700D03*
%TD*%
D32*
%TO.P,C3,1*%
%TO.N,Net-(rPi1-GPIO26_ADC0)*%
X167500000Y-107437500D03*
%TO.P,C3,2*%
%TO.N,GND*%
X167500000Y-110562500D03*
%TD*%
D22*
%TO.P,D8,1,K_1*%
%TO.N,Net-(D8-K)*%
X129000000Y-134400000D03*
%TO.P,D8,2,A_2*%
%TO.N,/GR15*%
X129000000Y-136600000D03*
%TD*%
D26*
%TO.P,R15,1*%
%TO.N,Net-(SPi_Level1-OE)*%
X142450000Y-85000000D03*
%TO.P,R15,2*%
%TO.N,/GNDD*%
X145550000Y-85000000D03*
%TD*%
D36*
%TO.P,CR1,1*%
%TO.N,Net-(rPi1-VSYS)*%
X140500000Y-28036700D03*
%TO.P,CR1,2*%
%TO.N,Net-(rPi1-VBUS)*%
X140500000Y-24963300D03*
%TD*%
D31*
%TO.P,C20,1*%
%TO.N,/DOUT*%
X152937500Y-125000000D03*
%TO.P,C20,2*%
%TO.N,/GNDD*%
X156062500Y-125000000D03*
%TD*%
D33*
%TO.P,R9,1*%
%TO.N,Net-(rPi1-GPIO4)*%
X82500000Y-34050000D03*
%TO.P,R9,2*%
%TO.N,Net-(R9-Pad2)*%
X82500000Y-30950000D03*
%TD*%
D26*
%TO.P,R16,1*%
%TO.N,/CLK*%
X146462500Y-132500000D03*
%TO.P,R16,2*%
%TO.N,Net-(U1-CLK)*%
X149562500Y-132500000D03*
%TD*%
%TO.P,R18,1*%
%TO.N,/GNDD*%
X159462500Y-132500000D03*
%TO.P,R18,2*%
%TO.N,/DOUT*%
X162562500Y-132500000D03*
%TD*%
%TO.P,R14,1*%
%TO.N,Net-(rPi1-VBUS)*%
X119400000Y-31000000D03*
%TO.P,R14,2*%
%TO.N,Net-(rPi1-GPIO18)*%
X122500000Y-31000000D03*
%TD*%
D35*
%TO.P,R4,1*%
%TO.N,Net-(R4-Pad1)*%
X177550000Y-105000000D03*
%TO.P,R4,2*%
%TO.N,Net-(rPi1-GPIO26_ADC0)*%
X174450000Y-105000000D03*
%TD*%
D32*
%TO.P,C9,1*%
%TO.N,Net-(rPi1-GPIO5)*%
X77500000Y-37437500D03*
%TO.P,C9,2*%
%TO.N,/GNDD*%
X77500000Y-40562500D03*
%TD*%
%TO.P,C2,1*%
%TO.N,/CT*%
X167000000Y-91437500D03*
%TO.P,C2,2*%
%TO.N,GND*%
X167000000Y-94562500D03*
%TD*%
D37*
%TO.P,DSPB_Conn1,1,Pin_36_1*%
%TO.N,Net-(DSPB_Conn1-Pin_36)*%
X195500000Y-147000000D03*
%TO.P,DSPB_Conn1,2,Pin_35_2*%
%TO.N,Net-(DSPB_Conn1-Pin_35)*%
X193000000Y-145750000D03*
%TO.P,DSPB_Conn1,3,Pin_34_3*%
%TO.N,Net-(DSPB_Conn1-Pin_34)*%
X195500000Y-144500000D03*
%TO.P,DSPB_Conn1,4,Pin_33_4*%
%TO.N,/GNDD*%
X193000000Y-143250000D03*
%TO.P,DSPB_Conn1,5,Pin_32_5*%
%TO.N,/JOG1*%
X195500000Y-142000000D03*
%TO.P,DSPB_Conn1,6,Pin_31_6*%
%TO.N,/JOG2*%
X193000000Y-140750000D03*
%TO.P,DSPB_Conn1,7,Pin_30_7*%
%TO.N,Net-(DSPB_Conn1-Pin_30)*%
X195500000Y-139500000D03*
%TO.P,DSPB_Conn1,8,Pin_29_8*%
%TO.N,Net-(DSPB_Conn1-Pin_29)*%
X193000000Y-138250000D03*
%TO.P,DSPB_Conn1,9,Pin_28_9*%
%TO.N,/KD0*%
X195500000Y-137000000D03*
%TO.P,DSPB_Conn1,10,Pin_27_10*%
%TO.N,/SG12*%
X193000000Y-135750000D03*
%TO.P,DSPB_Conn1,11,Pin_26_11*%
%TO.N,/SG1*%
X195500000Y-134500000D03*
%TO.P,DSPB_Conn1,12,Pin_25_12*%
%TO.N,/SG2*%
X193000000Y-133250000D03*
%TO.P,DSPB_Conn1,13,Pin_24_13*%
%TO.N,/SG3*%
X195500000Y-132000000D03*
%TO.P,DSPB_Conn1,14,Pin_23_14*%
%TO.N,/SG4*%
X193000000Y-130750000D03*
%TO.P,DSPB_Conn1,15,Pin_22_15*%
%TO.N,/SG5*%
X195500000Y-129500000D03*
%TO.P,DSPB_Conn1,16,Pin_21_16*%
%TO.N,/SG6*%
X193000000Y-128250000D03*
%TO.P,DSPB_Conn1,17,Pin_20_17*%
%TO.N,Net-(DSPB_Conn1-Pin_20)*%
X195500000Y-127000000D03*
%TO.P,DSPB_Conn1,18,Pin_19_18*%
%TO.N,/SG8*%
X193000000Y-125750000D03*
%TO.P,DSPB_Conn1,19,Pin_18_19*%
%TO.N,/SG9*%
X195500000Y-124500000D03*
%TO.P,DSPB_Conn1,20,Pin_17_20*%
%TO.N,/SG10*%
X193000000Y-123250000D03*
%TO.P,DSPB_Conn1,21,Pin_16_21*%
%TO.N,/SG11*%
X195500000Y-122000000D03*
%TO.P,DSPB_Conn1,22,Pin_15_22*%
%TO.N,/GR11*%
X193000000Y-120750000D03*
%TO.P,DSPB_Conn1,23,Pin_14_23*%
%TO.N,/GR10*%
X195500000Y-119500000D03*
%TO.P,DSPB_Conn1,24,Pin_13_24*%
%TO.N,/GR9*%
X193000000Y-118250000D03*
%TO.P,DSPB_Conn1,25,Pin_12_25*%
%TO.N,/GR8*%
X195500000Y-117000000D03*
%TO.P,DSPB_Conn1,26,Pin_11_26*%
%TO.N,/GR7*%
X193000000Y-115750000D03*
%TO.P,DSPB_Conn1,27,Pin_10_27*%
%TO.N,/GR6*%
X195500000Y-114500000D03*
%TO.P,DSPB_Conn1,28,Pin_9_28*%
%TO.N,/GR5*%
X193000000Y-113250000D03*
%TO.P,DSPB_Conn1,29,Pin_8_29*%
%TO.N,/GR4*%
X195500000Y-112000000D03*
%TO.P,DSPB_Conn1,30,Pin_7_30*%
%TO.N,/GR3*%
X193000000Y-110750000D03*
%TO.P,DSPB_Conn1,31,Pin_6_31*%
%TO.N,/GR2*%
X195500000Y-109500000D03*
%TO.P,DSPB_Conn1,32,Pin_5_32*%
%TO.N,/GR1*%
X193000000Y-108250000D03*
%TO.P,DSPB_Conn1,33,Pin_4_33*%
%TO.N,Net-(DSPB_Conn1-Pin_4)*%
X195500000Y-107000000D03*
%TO.P,DSPB_Conn1,34,Pin_3_34*%
%TO.N,Net-(DSPB_Conn1-Pin_3)*%
X193000000Y-105750000D03*
%TO.P,DSPB_Conn1,35,Pin_2_35*%
%TO.N,Net-(DSPB_Conn1-Pin_2)*%
X195500000Y-104500000D03*
%TO.P,DSPB_Conn1,36,Pin_1_36*%
%TO.N,Net-(DSPB_Conn1-Pin_1)*%
X193000000Y-103250000D03*
%TD*%
D38*
%TO.N,/DOUT*%
X132025000Y-106000000D03*
%TO.N,/VDD*%
X130725000Y-103500000D03*
%TO.N,Net-(D9-A)*%
X132395400Y-145500000D03*
%TO.N,/CLK*%
X145500000Y-105032100D03*
%TO.N,Net-(TB1-Pin_12)*%
X165849200Y-99915700D03*
%TO.N,GND*%
X181183500Y-85996000D03*
%TO.N,Net-(TB1-Pin_9)*%
X187757800Y-77000000D03*
%TO.N,Net-(DSPB_Conn1-Pin_36)*%
X127936300Y-96070800D03*
X135203700Y-102045000D03*
X190607400Y-95663200D03*
%TO.N,/GNDD*%
X145485800Y-74006700D03*
X167000000Y-143250000D03*
X124500000Y-74006700D03*
X130500000Y-27523400D03*
%TO.N,/DOUT*%
X151748200Y-124147000D03*
%TO.N,/DIN*%
X132552200Y-141358500D03*
X158107700Y-143864400D03*
%TO.N,/VDD*%
X142000000Y-108019200D03*
X154000000Y-113500000D03*
%TO.N,/SG1*%
X181969900Y-136678200D03*
X181969900Y-157601500D03*
X167000000Y-170000000D03*
%TO.N,/SG2*%
X166617300Y-171270900D03*
%TO.N,/SG3*%
X166606100Y-172667100D03*
%TO.N,/SG4*%
X164045600Y-172892700D03*
%TO.N,/SG5*%
X166183500Y-174486300D03*
%TO.N,/SG6*%
X180908600Y-155245100D03*
X180910200Y-135672500D03*
X173269700Y-162650300D03*
%TO.N,Net-(DSPB_Conn1-Pin_20)*%
X169000000Y-176156700D03*
%TO.N,/SG8*%
X181809600Y-134879200D03*
%TO.N,/SG9*%
X199644900Y-126138800D03*
%TO.N,/SG10*%
X179688000Y-158039600D03*
X171927942Y-168927942D03*
X179688000Y-136500000D03*
%TO.N,/SG11*%
X194180800Y-129169800D03*
X199043200Y-146851500D03*
%TO.N,/SG12*%
X174000000Y-166283000D03*
%TO.N,/GR6*%
X183546300Y-134935500D03*
%TO.N,/GR7*%
X179000000Y-127500000D03*
%TO.N,/GR8*%
X178000000Y-125000000D03*
%TO.N,/GR9*%
X177000000Y-127500000D03*
%TO.N,/GR10*%
X176000000Y-136000000D03*
%TO.N,/GR11*%
X175000000Y-135500000D03*
%TO.N,/GR13*%
X138000000Y-155359000D03*
X172600000Y-156000000D03*
%TO.N,/GR14*%
X135000000Y-150500000D03*
X171600000Y-152500000D03*
%TO.N,Net-(D9-A)*%
X170000000Y-149000000D03*
%TO.N,/GR15*%
X130000000Y-150500000D03*
X170224900Y-157927900D03*
%TO.N,Net-(rPi1-GPIO4)*%
X82205900Y-35215300D03*
%TO.N,Net-(i2S_Audio1-AVDD)*%
X185273600Y-40208500D03*
X189237300Y-50600000D03*
%TO.N,Net-(i2S_Audio1-BCK)*%
X193295900Y-46299800D03*
%TO.N,Net-(i2S_Audio1-DIN)*%
X193697600Y-45498000D03*
%TO.N,Net-(i2S_Audio1-LRCK)*%
X193760500Y-44696200D03*
%TO.N,Net-(i2S_Audio1-LDOO)*%
X162500000Y-82301000D03*
X191000000Y-76377300D03*
%TO.N,/CLK*%
X132675000Y-104000000D03*
%TO.N,Net-(rPi1-VSYS)*%
X149000000Y-26135600D03*
%TO.N,Net-(rPi1-3V3_EN)*%
X145000000Y-31271500D03*
%TO.N,Net-(SPi_Level1-A8)*%
X146968900Y-61137600D03*
%TO.N,Net-(rPi1-GPIO5)*%
X77500000Y-36271300D03*
%TO.N,Net-(SPi_Level1-A5)*%
X153056100Y-31000000D03*
%TO.N,Net-(SPi_Level1-A7)*%
X151500000Y-32380000D03*
%TO.N,Net-(DSPB_Conn1-Pin_30)*%
X133975000Y-139500000D03*
%TO.N,Net-(DSPB_Conn1-Pin_29)*%
X134588100Y-138759500D03*
%TO.N,/KD0*%
X137468400Y-122907600D03*
%TO.N,Net-(rPi1-GPIO18)*%
X127400000Y-61748800D03*
%TO.N,Net-(D12-K)*%
X136828600Y-97727700D03*
%TO.N,Net-(D11-K)*%
X136194100Y-98621700D03*
%TO.N,Net-(rPi1-GPIO6)*%
X89500000Y-39500000D03*
%TO.N,Net-(D10-K)*%
X135810400Y-99905200D03*
X144884100Y-83611500D03*
%TO.N,Net-(rPi1-VBUS)*%
X140500000Y-22500000D03*
%TO.N,/JOG2*%
X178000800Y-73999200D03*
%TD*%
%TO.N,Net-(i2S_Audio1-AVDD)*%
D39*
X189237300Y-50600000D02*
X189237300Y-49160300D01*
X188561200Y-48484200D02*
X188561200Y-46520100D01*
X188561200Y-46520100D02*
X188981300Y-46100000D01*
X189237300Y-49160300D02*
X188561200Y-48484200D01*
X188981300Y-46100000D02*
X189637500Y-46100000D01*
%TO.N,Net-(ControlJack1-Pin_1)*%
X195000000Y-32000000D02*
X195000000Y-33266200D01*
X195000000Y-33266200D02*
X196845800Y-35112000D01*
X196845800Y-35112000D02*
X196845800Y-73154200D01*
X196845800Y-73154200D02*
X194000000Y-76000000D01*
%TO.N,Net-(ControlJack1-Pin_2)*%
X197247500Y-74752500D02*
X197247500Y-34500000D01*
X196250000Y-32000000D02*
X196250000Y-33502500D01*
X196250000Y-33502500D02*
X197247500Y-34500000D01*
%TO.N,Net-(SPi_Level1-A5)*%
X153056100Y-34241500D02*
X132909800Y-54387800D01*
X153056100Y-31000000D02*
X153056100Y-34241500D01*
X132909800Y-54387800D02*
X132909800Y-55131600D01*
X132909800Y-55131600D02*
X132675000Y-55366400D01*
X132675000Y-55366400D02*
X132675000Y-91637500D01*
%TO.N,Net-(SPi_Level1-A7)*%
X151500000Y-32380000D02*
X150500000Y-33380000D01*
X150500000Y-33380000D02*
X150500000Y-35529700D01*
X150500000Y-35529700D02*
X131375000Y-54654700D01*
X131375000Y-54654700D02*
X131375000Y-91637500D01*
%TO.N,Net-(R10-Pad2)*%
X75920000Y-24000000D02*
X75920000Y-29370000D01*
X75920000Y-29370000D02*
X77500000Y-30950000D01*
%TO.N,Net-(R9-Pad2)*%
X78460000Y-24000000D02*
X78460000Y-26910000D01*
X78460000Y-26910000D02*
X82500000Y-30950000D01*
%TO.N,Net-(R11-Pad1)*%
X87500000Y-30950000D02*
X87500000Y-27960000D01*
X87500000Y-27960000D02*
X83540000Y-24000000D01*
%TO.N,/GNDD*%
X81000000Y-24000000D02*
X81000000Y-27000000D01*
X81000000Y-27000000D02*
X83689200Y-29689200D01*
X83689200Y-29689200D02*
X83689200Y-31589400D01*
X83689200Y-31589400D02*
X82778600Y-32500000D01*
X82778600Y-32500000D02*
X82233100Y-32500000D01*
X82233100Y-32500000D02*
X79661300Y-35071800D01*
X79661300Y-35071800D02*
X79661300Y-38401200D01*
X79661300Y-38401200D02*
X77500000Y-40562500D01*
%TO.N,Net-(i2S_Audio1-LDOO)*%
X191000000Y-76377300D02*
X191997100Y-75380200D01*
X191997100Y-75380200D02*
X191997100Y-44917700D01*
X191997100Y-44917700D02*
X194064800Y-42850000D01*
X194064800Y-42850000D02*
X195362500Y-42850000D01*
%TO.N,/JOG2*%
X178000800Y-73999200D02*
X179000000Y-74998400D01*
X179000000Y-74998400D02*
X179246000Y-74998400D01*
X179246000Y-74998400D02*
X188781800Y-84534200D01*
X188781800Y-84534200D02*
X188781800Y-136531800D01*
X188781800Y-136531800D02*
X193000000Y-140750000D01*
%TO.N,Net-(TB1-Pin_9)*%
X188959100Y-44800000D02*
X189637500Y-44800000D01*
X187757800Y-77000000D02*
X187757800Y-46001300D01*
X187757800Y-46001300D02*
X188959100Y-44800000D01*
%TO.N,/SG10*%
X171927942Y-168927942D02*
X172000000Y-169000000D01*
X172000000Y-169000000D02*
X172000000Y-174675000D01*
%TO.N,/SG1*%
X167000000Y-170000000D02*
X165325000Y-170000000D01*
%TO.N,/GR13*%
X173197400Y-159127600D02*
X173000000Y-159325000D01*
X173197400Y-156597400D02*
X173197400Y-159127600D01*
X172600000Y-156000000D02*
X173197400Y-156597400D01*
%TO.N,/GR14*%
X172000000Y-159325000D02*
X172000000Y-152900000D01*
X172000000Y-152900000D02*
X171600000Y-152500000D01*
%TO.N,Net-(D9-A)*%
X171000000Y-159325000D02*
X171000000Y-150000000D01*
X171000000Y-150000000D02*
X170000000Y-149000000D01*
%TO.N,Net-(rPi1-VSYS)*%
X149000000Y-26135600D02*
X146197300Y-28938300D01*
X146197300Y-28938300D02*
X146197300Y-34352700D01*
X146197300Y-34352700D02*
X145000000Y-35550000D01*
%TO.N,Net-(rPi1-GPIO6)*%
X87500000Y-34050000D02*
X87500000Y-37500000D01*
X87500000Y-37500000D02*
X89500000Y-39500000D01*
%TO.N,/SG10*%
X179688000Y-158039600D02*
X179688000Y-136500000D01*
%TO.N,/GR11*%
X175000000Y-159325000D02*
X175000000Y-135500000D01*
%TO.N,/GR10*%
X176000000Y-159325000D02*
X176000000Y-136000000D01*
%TO.N,/GR8*%
X178000000Y-159325000D02*
X178000000Y-125000000D01*
%TO.N,/GR9*%
X177000000Y-159325000D02*
X177000000Y-127500000D01*
%TO.N,/GR7*%
X179000000Y-127500000D02*
X179000000Y-159325000D01*
%TO.N,/DOUT*%
X132025000Y-97362500D02*
X132025000Y-106000000D01*
%TO.N,/VDD*%
X130725000Y-97362500D02*
X130725000Y-103500000D01*
%TO.N,Net-(D12-K)*%
X141000000Y-158400000D02*
X141000000Y-152000000D01*
X141000000Y-152000000D02*
X136828600Y-147828600D01*
X136828600Y-147828600D02*
X136828600Y-97727700D01*
%TO.N,/GR14*%
X135000000Y-148600000D02*
X135000000Y-150500000D01*
%TO.N,Net-(D9-A)*%
X132395400Y-145500000D02*
X132395400Y-142995400D01*
X132395400Y-142995400D02*
X132000000Y-142600000D01*
%TO.N,/GR15*%
X129000000Y-149500000D02*
X130000000Y-150500000D01*
X129000000Y-136600000D02*
X129000000Y-149500000D01*
%TO.N,/VDD*%
X142000000Y-108019200D02*
X142913300Y-108932500D01*
X142913300Y-108932500D02*
X142913300Y-137450800D01*
X142913300Y-137450800D02*
X146462500Y-141000000D01*
%TO.N,/CLK*%
X132675000Y-97362500D02*
X132675000Y-104000000D01*
X146437500Y-125000000D02*
X146437500Y-105969600D01*
X146437500Y-105969600D02*
X145500000Y-105032100D01*
%TO.N,/VDD*%
X159437500Y-118937500D02*
X154000000Y-113500000D01*
X159437500Y-123781700D02*
X159437500Y-118937500D01*
%TO.N,Net-(DSPB_Conn1-Pin_3)*%
X191913300Y-104663300D02*
X191913300Y-93063400D01*
X191913300Y-93063400D02*
X194000000Y-90976700D01*
X194000000Y-90000000D02*
X194000000Y-90976700D01*
X193000000Y-105750000D02*
X191913300Y-104663300D01*
%TO.N,Net-(DSPB_Conn1-Pin_1)*%
X194976700Y-88976700D02*
X194976700Y-101273300D01*
X194976700Y-101273300D02*
X193000000Y-103250000D01*
X194000000Y-88000000D02*
X194976700Y-88976700D01*
%TO.N,Net-(TB1-Pin_12)*%
X166250900Y-109621500D02*
X166250900Y-140144500D01*
X166250900Y-140144500D02*
X169000000Y-142893600D01*
X165849200Y-109219800D02*
X166250900Y-109621500D01*
X165849200Y-99915700D02*
X165849200Y-109219800D01*
X169000000Y-142893600D02*
X169000000Y-159325000D01*
%TO.N,Net-(TB1-Pin_11)*%
X188981300Y-45450000D02*
X188159500Y-46271800D01*
X188561200Y-78561200D02*
X194000000Y-84000000D01*
X189637500Y-45450000D02*
X188981300Y-45450000D01*
X188159500Y-46271800D02*
X188159500Y-48888700D01*
X188159500Y-48888700D02*
X188561200Y-49290400D01*
X188561200Y-49290400D02*
X188561200Y-78561200D01*
%TO.N,GND*%
X189870000Y-47632500D02*
X189637500Y-47400000D01*
X188915100Y-42850000D02*
X189637500Y-42850000D01*
X180000000Y-95050000D02*
X181183500Y-93866500D01*
X189637500Y-46750000D02*
X190381400Y-46750000D01*
X195362500Y-46750000D02*
X195362500Y-47400000D01*
X182425600Y-46845600D02*
X182425600Y-50189600D01*
X176413800Y-106963800D02*
X176098700Y-106963800D01*
X167500000Y-110562500D02*
X167500000Y-110102800D01*
X172340100Y-94562500D02*
X176413800Y-98636200D01*
X163825800Y-95869400D02*
X163825800Y-81700800D01*
X172500000Y-110562500D02*
X167500000Y-110562500D01*
X190745500Y-46385900D02*
X190745500Y-42850000D01*
X166250900Y-108853700D02*
X166250900Y-106842600D01*
X180437300Y-54365300D02*
X180806700Y-54734700D01*
X182425600Y-50189600D02*
X180437300Y-52177900D01*
X195362500Y-44150000D02*
X196444100Y-44150000D01*
X183400200Y-52298800D02*
X184562500Y-51136500D01*
X175580000Y-40000000D02*
X174780000Y-40000000D01*
X172000000Y-94562500D02*
X172340100Y-94562500D01*
X166485100Y-98528700D02*
X163825800Y-95869400D01*
X189870000Y-77870000D02*
X189870000Y-47632500D01*
X195362500Y-42200000D02*
X191395500Y-42200000D01*
X176098700Y-106963800D02*
X172500000Y-110562500D01*
X190745500Y-42850000D02*
X189637500Y-42850000D01*
X191395500Y-42200000D02*
X190745500Y-42850000D01*
X176413800Y-98636200D02*
X176413800Y-106963800D01*
X166485100Y-106608400D02*
X166485100Y-98528700D01*
X183400200Y-53385600D02*
X183400200Y-52298800D01*
X189637500Y-47400000D02*
X189637500Y-46750000D01*
X196094700Y-46750000D02*
X195362500Y-46750000D01*
X184562500Y-51136500D02*
X184562500Y-48000000D01*
X196444100Y-46400600D02*
X196094700Y-46750000D01*
X184562500Y-47202600D02*
X188915100Y-42850000D01*
X180437300Y-52177900D02*
X180437300Y-54365300D01*
X196444100Y-42605500D02*
X196444100Y-44150000D01*
X180000000Y-110550000D02*
X176413800Y-106963800D01*
X163825800Y-81700800D02*
X162500000Y-80375000D01*
X196444100Y-44150000D02*
X196444100Y-46400600D01*
X196038600Y-42200000D02*
X196444100Y-42605500D01*
X194000000Y-82000000D02*
X189870000Y-77870000D01*
X181183500Y-93866500D02*
X181183500Y-85996000D01*
X195362500Y-42200000D02*
X196038600Y-42200000D01*
X180000000Y-95050000D02*
X176413800Y-98636200D01*
X167500000Y-110102800D02*
X166250900Y-108853700D01*
X182051100Y-54734700D02*
X183400200Y-53385600D01*
X190381400Y-46750000D02*
X190745500Y-46385900D01*
X175580000Y-40000000D02*
X182425600Y-46845600D01*
X166250900Y-106842600D02*
X166485100Y-106608400D01*
X184562500Y-48000000D02*
X184562500Y-47202600D01*
X180806700Y-54734700D02*
X182051100Y-54734700D01*
X172000000Y-94562500D02*
X167000000Y-94562500D01*
%TO.N,Net-(ControlJack1-Pin_2)*%
X175580000Y-50160000D02*
X174780000Y-50160000D01*
%TO.N,Net-(ControlJack1-Pin_1)*%
X157000000Y-70480000D02*
X156200000Y-70480000D01*
%TO.N,Net-(DSPB_Conn1-Pin_36)*%
X130228000Y-59857200D02*
X130228000Y-52960900D01*
X118000000Y-75562500D02*
X116751800Y-74314300D01*
X126151600Y-62431600D02*
X127653600Y-62431600D01*
X140000000Y-44036700D02*
X139152200Y-44036700D01*
X190607400Y-110190900D02*
X190607400Y-95663200D01*
X130228000Y-52960900D02*
X139152200Y-44036700D01*
X197031700Y-114185000D02*
X196238200Y-113391500D01*
X195023800Y-113391500D02*
X193632300Y-112000000D01*
X197031700Y-145468300D02*
X197031700Y-114185000D01*
X196238200Y-113391500D02*
X195023800Y-113391500D01*
X116751800Y-71831400D02*
X126151600Y-62431600D01*
X116751800Y-74314300D02*
X116751800Y-71831400D01*
X195500000Y-147000000D02*
X197031700Y-145468300D01*
X135275000Y-97362500D02*
X135203700Y-97433800D01*
X193632300Y-112000000D02*
X192416500Y-112000000D01*
X135203700Y-97433800D02*
X135203700Y-102045000D01*
X127936300Y-85498800D02*
X118000000Y-75562500D01*
X192416500Y-112000000D02*
X190607400Y-110190900D01*
X127653600Y-62431600D02*
X130228000Y-59857200D01*
X127936300Y-96070800D02*
X127936300Y-85498800D01*
%TO.N,/GNDD*%
X134437500Y-34000000D02*
X133500000Y-34000000D01*
X157000000Y-40000000D02*
X156200000Y-40000000D01*
X163515200Y-139765200D02*
X167000000Y-143250000D01*
X167000000Y-159325000D02*
X167000000Y-143250000D01*
X146539600Y-75060400D02*
X145485800Y-74006700D01*
X173612600Y-64232600D02*
X173612600Y-53867400D01*
X175580000Y-52700000D02*
X174780000Y-52700000D01*
X163515200Y-131612100D02*
X163515200Y-139765200D01*
X124500000Y-72437500D02*
X124500000Y-74006700D01*
X175580000Y-65400000D02*
X174780000Y-65400000D01*
X158138000Y-28438000D02*
X158138000Y-38862000D01*
X130075000Y-96687500D02*
X132188200Y-94574300D01*
X158138000Y-38862000D02*
X157000000Y-40000000D01*
X157000000Y-52700000D02*
X158108800Y-53808800D01*
X157000000Y-65400000D02*
X156200000Y-65400000D01*
X148185100Y-142007800D02*
X148773200Y-142595900D01*
X136693900Y-94574300D02*
X136809500Y-94458700D01*
X146539600Y-75060400D02*
X156200000Y-65400000D01*
X174780000Y-65400000D02*
X173612600Y-64232600D01*
X167000000Y-166766800D02*
X167000000Y-159325000D01*
X133500000Y-34000000D02*
X130500000Y-31000000D01*
X145648300Y-75951700D02*
X146539600Y-75060400D01*
X145550000Y-85000000D02*
X145648300Y-84901700D01*
X173612600Y-53867400D02*
X174780000Y-52700000D01*
X145648300Y-84901700D02*
X145648300Y-75951700D01*
X132188200Y-94574300D02*
X136693900Y-94574300D01*
X161932800Y-130029700D02*
X163515200Y-131612100D01*
X150289900Y-124272600D02*
X150289900Y-123545300D01*
X162562500Y-129400000D02*
X161932800Y-130029700D01*
X162562500Y-125000000D02*
X162562500Y-129400000D01*
X148185100Y-126377400D02*
X148185100Y-142007800D01*
X124500000Y-72437500D02*
X118000000Y-72437500D01*
X150289900Y-107939100D02*
X136809500Y-94458700D01*
X145550000Y-85718200D02*
X145550000Y-85000000D01*
X158119300Y-41119300D02*
X157000000Y-40000000D01*
X154607800Y-123545300D02*
X150289900Y-123545300D01*
X157000000Y-52700000D02*
X156200000Y-52700000D01*
X148773200Y-142595900D02*
X151866600Y-142595900D01*
X159462500Y-128400000D02*
X156062500Y-125000000D01*
X175580000Y-27300000D02*
X174780000Y-27300000D01*
X156062500Y-125000000D02*
X154607800Y-123545300D01*
X158108800Y-64291200D02*
X157000000Y-65400000D01*
X130500000Y-27523400D02*
X130500000Y-31000000D01*
X149562500Y-125000000D02*
X148185100Y-126377400D01*
X151866600Y-142595900D02*
X153462500Y-141000000D01*
X130075000Y-97362500D02*
X130075000Y-96687500D01*
X78437500Y-41500000D02*
X78437500Y-45500000D01*
X157000000Y-27300000D02*
X158138000Y-28438000D01*
X159462500Y-132500000D02*
X159462500Y-128400000D01*
X157000000Y-27300000D02*
X156200000Y-27300000D01*
X165766800Y-168000000D02*
X167000000Y-166766800D01*
X136809500Y-94458700D02*
X145550000Y-85718200D01*
X161932800Y-130029700D02*
X159462500Y-132500000D01*
X158119300Y-51580700D02*
X158119300Y-41119300D01*
X77500000Y-40562500D02*
X78437500Y-41500000D01*
X165325000Y-168000000D02*
X165766800Y-168000000D01*
X157000000Y-52700000D02*
X158119300Y-51580700D01*
X149562500Y-125000000D02*
X150289900Y-124272600D01*
X158108800Y-53808800D02*
X158108800Y-64291200D01*
X150289900Y-123545300D02*
X150289900Y-107939100D01*
%TO.N,Net-(TB1-Pin_4)*%
X192585900Y-44936900D02*
X192585900Y-68585900D01*
X194022800Y-43500000D02*
X192585900Y-44936900D01*
X195362500Y-43500000D02*
X194022800Y-43500000D01*
X192585900Y-68585900D02*
X194000000Y-70000000D01*
%TO.N,Net-(DSPB_Conn1-Pin_2)*%
X194429900Y-74976700D02*
X195426500Y-73980100D01*
X193003300Y-78409800D02*
X193003300Y-75562600D01*
X195500000Y-104500000D02*
X195842800Y-104157200D01*
X195842800Y-104157200D02*
X195842800Y-80461200D01*
X193589200Y-74976700D02*
X194429900Y-74976700D01*
X195426500Y-73980100D02*
X195426500Y-67426500D01*
X194381600Y-79000000D02*
X193593500Y-79000000D01*
X193003300Y-75562600D02*
X193589200Y-74976700D01*
X193593500Y-79000000D02*
X193003300Y-78409800D01*
X195842800Y-80461200D02*
X194381600Y-79000000D01*
X195426500Y-67426500D02*
X194000000Y-66000000D01*
%TO.N,Net-(DSPB_Conn1-Pin_4)*%
X193618800Y-69000000D02*
X194409700Y-69000000D01*
X194447400Y-102863400D02*
X194447400Y-105947400D01*
X194409700Y-69000000D02*
X195024800Y-69615100D01*
X192987900Y-65012100D02*
X192987900Y-68369100D01*
X195024800Y-70358900D02*
X194383700Y-71000000D01*
X195399900Y-81942800D02*
X195399900Y-101910900D01*
X195024800Y-69615100D02*
X195024800Y-70358900D01*
X193601900Y-71000000D02*
X192601600Y-72000300D01*
X195399900Y-101910900D02*
X194447400Y-102863400D01*
X192601600Y-72000300D02*
X192601600Y-80008100D01*
X192601600Y-80008100D02*
X193593500Y-81000000D01*
X194447400Y-105947400D02*
X195500000Y-107000000D01*
X193593500Y-81000000D02*
X194457100Y-81000000D01*
X194457100Y-81000000D02*
X195399900Y-81942800D01*
X194383700Y-71000000D02*
X193601900Y-71000000D01*
X192987900Y-68369100D02*
X193618800Y-69000000D01*
X194000000Y-64000000D02*
X192987900Y-65012100D01*
%TO.N,/DOUT*%
X161970500Y-133092000D02*
X161970500Y-133684000D01*
X157246500Y-133684000D02*
X156062500Y-132500000D01*
X165806000Y-164000000D02*
X165325000Y-164000000D01*
X166405200Y-160405200D02*
X166405200Y-163400800D01*
X152937500Y-125000000D02*
X152937500Y-132475000D01*
X149562500Y-135900000D02*
X152962500Y-132500000D01*
X152084500Y-124147000D02*
X152937500Y-125000000D01*
X161970500Y-133684000D02*
X157246500Y-133684000D01*
X152937500Y-132475000D02*
X152962500Y-132500000D01*
X161970500Y-155970500D02*
X166405200Y-160405200D01*
X162562500Y-132500000D02*
X161970500Y-133092000D01*
X151748200Y-124147000D02*
X152084500Y-124147000D01*
X166405200Y-163400800D02*
X165806000Y-164000000D01*
X156062500Y-132500000D02*
X152962500Y-132500000D01*
X149562500Y-141000000D02*
X149562500Y-135900000D01*
X161970500Y-133684000D02*
X161970500Y-155970500D01*
%TO.N,Net-(U1-CLK)*%
X150410600Y-142194200D02*
X148939500Y-142194200D01*
X148586800Y-141841500D02*
X148586800Y-133475700D01*
X148586800Y-133475700D02*
X149562500Y-132500000D01*
X153184200Y-139420600D02*
X150410600Y-142194200D01*
X157363800Y-139420600D02*
X153184200Y-139420600D01*
X158709400Y-140766200D02*
X157363800Y-139420600D01*
X158709400Y-154384400D02*
X158709400Y-140766200D01*
X165325000Y-161000000D02*
X158709400Y-154384400D01*
X148939500Y-142194200D02*
X148586800Y-141841500D01*
%TO.N,/DIN*%
X131375000Y-97362500D02*
X131375000Y-138920900D01*
X132552200Y-140098100D02*
X132552200Y-141358500D01*
X164902500Y-162000000D02*
X165325000Y-162000000D01*
X131375000Y-138920900D02*
X132552200Y-140098100D01*
X158107700Y-155205200D02*
X164902500Y-162000000D01*
X158107700Y-143864400D02*
X158107700Y-155205200D01*
%TO.N,/STB*%
X144394800Y-135370900D02*
X144394800Y-103838000D01*
X155414800Y-140325800D02*
X155414800Y-140893800D01*
X157506000Y-155623900D02*
X157506000Y-143615300D01*
X164882100Y-163000000D02*
X157506000Y-155623900D01*
X155918300Y-139822300D02*
X155414800Y-140325800D01*
X157720900Y-140345800D02*
X157197400Y-139822300D01*
X133690600Y-96312800D02*
X133325000Y-96678400D01*
X144394800Y-103838000D02*
X136869600Y-96312800D01*
X147457800Y-138433900D02*
X144394800Y-135370900D01*
X133325000Y-96678400D02*
X133325000Y-97362500D01*
X157197400Y-139822300D02*
X155918300Y-139822300D01*
X148577400Y-143009500D02*
X147457800Y-141889900D01*
X153299100Y-143009500D02*
X148577400Y-143009500D01*
X155414800Y-140893800D02*
X153299100Y-143009500D01*
X157720900Y-143400400D02*
X157720900Y-140345800D01*
X136869600Y-96312800D02*
X133690600Y-96312800D01*
X157506000Y-143615300D02*
X157720900Y-143400400D01*
X165325000Y-163000000D02*
X164882100Y-163000000D01*
X147457800Y-141889900D02*
X147457800Y-138433900D01*
%TO.N,Net-(U1-OSC)*%
X165325000Y-167000000D02*
X164787100Y-167000000D01*
X156562500Y-158775400D02*
X156562500Y-141000000D01*
X164787100Y-167000000D02*
X156562500Y-158775400D01*
%TO.N,/VDD*%
X159437500Y-125000000D02*
X159437500Y-123781700D01*
X168000000Y-159325000D02*
X168000000Y-143120600D01*
X168000000Y-166744800D02*
X165744800Y-169000000D01*
X165606700Y-126198900D02*
X163189500Y-123781700D01*
X168000000Y-159325000D02*
X168000000Y-166744800D01*
X165606700Y-140727300D02*
X165606700Y-126198900D01*
X165744800Y-169000000D02*
X165325000Y-169000000D01*
X168000000Y-143120600D02*
X165606700Y-140727300D01*
X163189500Y-123781700D02*
X159437500Y-123781700D01*
%TO.N,/SG1*%
X181969900Y-157601500D02*
X181969900Y-136678200D01*
%TO.N,/SG2*%
X166617300Y-171270900D02*
X165595900Y-171270900D01*
X165595900Y-171270900D02*
X165325000Y-171000000D01*
%TO.N,/SG3*%
X165325000Y-172000000D02*
X165939000Y-172000000D01*
X165939000Y-172000000D02*
X166606100Y-172667100D01*
%TO.N,/SG4*%
X165217700Y-172892700D02*
X165325000Y-173000000D01*
X164045600Y-172892700D02*
X165217700Y-172892700D01*
%TO.N,/SG5*%
X166811300Y-174486300D02*
X166183500Y-174486300D01*
X167000000Y-174675000D02*
X166811300Y-174486300D01*
%TO.N,/SG6*%
X169000000Y-167386800D02*
X173269700Y-163117100D01*
X180910200Y-155243500D02*
X180908600Y-155245100D01*
X173269700Y-163117100D02*
X173269700Y-162650300D01*
X180910200Y-135672500D02*
X180910200Y-155243500D01*
X168000000Y-174675000D02*
X168000000Y-173511000D01*
X168000000Y-173511000D02*
X169000000Y-172511000D01*
X169000000Y-172511000D02*
X169000000Y-167386800D01*
%TO.N,Net-(DSPB_Conn1-Pin_20)*%
X169000000Y-174675000D02*
X169000000Y-176156700D01*
%TO.N,/SG8*%
X181310200Y-158439700D02*
X174609100Y-165140800D01*
X170000000Y-169417600D02*
X170000000Y-174675000D01*
X181340100Y-136456900D02*
X181340100Y-146060700D01*
X181310200Y-157153300D02*
X181310200Y-158439700D01*
X174276800Y-165140800D02*
X170000000Y-169417600D01*
X181809600Y-134879200D02*
X181809600Y-135987400D01*
X181510400Y-146231000D02*
X181510400Y-156953100D01*
X181340100Y-146060700D02*
X181510400Y-146231000D01*
X174609100Y-165140800D02*
X174276800Y-165140800D01*
X181510400Y-156953100D02*
X181310200Y-157153300D01*
X181809600Y-135987400D02*
X181340100Y-136456900D01*
%TO.N,/SG9*%
X171000000Y-175098500D02*
X172107300Y-176205800D01*
X171000000Y-174675000D02*
X171000000Y-175098500D01*
X172107300Y-176205800D02*
X179491100Y-176205800D01*
X179491100Y-176205800D02*
X199644900Y-156052000D01*
X199644900Y-156052000D02*
X199644900Y-126138800D01*
%TO.N,/SG11*%
X173000000Y-174675000D02*
X173000000Y-175098500D01*
X199043200Y-150522600D02*
X199043200Y-146851500D01*
X179324800Y-175804100D02*
X182346200Y-172782700D01*
X194180800Y-123319200D02*
X195500000Y-122000000D01*
X173000000Y-175098500D02*
X173705600Y-175804100D01*
X194180800Y-129169800D02*
X194180800Y-123319200D01*
X182346200Y-167219600D02*
X199043200Y-150522600D01*
X173705600Y-175804100D02*
X179324800Y-175804100D01*
X182346200Y-172782700D02*
X182346200Y-167219600D01*
%TO.N,/SG12*%
X174000000Y-174675000D02*
X174000000Y-166283000D01*
%TO.N,/GR1*%
X198638500Y-110777700D02*
X198638500Y-146405400D01*
X198441500Y-146602400D02*
X198441500Y-148681000D01*
X198441500Y-148681000D02*
X181122500Y-166000000D01*
X196110800Y-108250000D02*
X198638500Y-110777700D01*
X193000000Y-108250000D02*
X196110800Y-108250000D01*
X198638500Y-146405400D02*
X198441500Y-146602400D01*
X181122500Y-166000000D02*
X180675000Y-166000000D01*
%TO.N,/GR2*%
X198039800Y-146436100D02*
X198039800Y-148146900D01*
X198236800Y-112236800D02*
X198236800Y-146239100D01*
X198039800Y-148146900D02*
X181186700Y-165000000D01*
X195500000Y-109500000D02*
X198236800Y-112236800D01*
X198236800Y-146239100D02*
X198039800Y-146436100D01*
X181186700Y-165000000D02*
X180675000Y-165000000D01*
%TO.N,/GR3*%
X197835100Y-112467100D02*
X197835100Y-146072800D01*
X196118000Y-110750000D02*
X197835100Y-112467100D01*
X197638100Y-147520000D02*
X181158100Y-164000000D01*
X181158100Y-164000000D02*
X180675000Y-164000000D01*
X197638100Y-146269800D02*
X197638100Y-147520000D01*
X193000000Y-110750000D02*
X196118000Y-110750000D01*
X197835100Y-146072800D02*
X197638100Y-146269800D01*
%TO.N,/GR4*%
X197433400Y-113933400D02*
X197433400Y-145906500D01*
X197433400Y-145906500D02*
X197236400Y-146103500D01*
X197236400Y-147068700D02*
X181305100Y-163000000D01*
X181305100Y-163000000D02*
X180675000Y-163000000D01*
X195500000Y-112000000D02*
X197433400Y-113933400D01*
X197236400Y-146103500D02*
X197236400Y-147068700D01*
%TO.N,/GR5*%
X196207600Y-145608400D02*
X195036800Y-145608400D01*
X192993000Y-150219900D02*
X181212900Y-162000000D01*
X193000000Y-113867800D02*
X195023700Y-115891500D01*
X195023700Y-115891500D02*
X196232600Y-115891500D01*
X181212900Y-162000000D02*
X180675000Y-162000000D01*
X196232600Y-115891500D02*
X196590100Y-116249000D01*
X193000000Y-113250000D02*
X193000000Y-113867800D01*
X192993000Y-147652200D02*
X192993000Y-150219900D01*
X196590100Y-116249000D02*
X196590100Y-145225900D01*
X196590100Y-145225900D02*
X196207600Y-145608400D01*
X195036800Y-145608400D02*
X192993000Y-147652200D01*
%TO.N,/GR6*%
X180675000Y-161000000D02*
X183546300Y-158128700D01*
X183546300Y-158128700D02*
X183546300Y-134935500D01*
%TO.N,/GR12*%
X174000000Y-161069200D02*
X172668000Y-162401200D01*
X168398700Y-171741000D02*
X166496100Y-173643600D01*
X172668000Y-162401200D02*
X172668000Y-162690300D01*
X172668000Y-162690300D02*
X168398700Y-166959600D01*
X168398700Y-166959600D02*
X168398700Y-171741000D01*
X154043600Y-173643600D02*
X141000000Y-160600000D01*
X174000000Y-159325000D02*
X174000000Y-161069200D01*
X166496100Y-173643600D02*
X154043600Y-173643600D01*
%TO.N,/GR13*%
X138000000Y-154600000D02*
X138000000Y-155359000D01*
%TO.N,/GR15*%
X170000000Y-159325000D02*
X170224900Y-159100100D01*
X170224900Y-159100100D02*
X170224900Y-157927900D01*
%TO.N,Net-(rPi1-GPIO4)*%
X82205900Y-35215300D02*
X81562500Y-35858700D01*
X82205900Y-35215300D02*
X82500000Y-34921200D01*
X157000000Y-34920000D02*
X156200000Y-34920000D01*
X82500000Y-34921200D02*
X82500000Y-34050000D01*
X81562500Y-35858700D02*
X81562500Y-45500000D01*
%TO.N,Net-(i2S_Audio1-CPVDD)*%
X184700000Y-42500000D02*
X185650000Y-41550000D01*
X195362500Y-41550000D02*
X189637500Y-41550000D01*
X185650000Y-41550000D02*
X189637500Y-41550000D01*
%TO.N,Net-(i2S_Audio1-CAPP)*%
X188464100Y-42200000D02*
X189637500Y-42200000D01*
X181437500Y-53500000D02*
X183001400Y-51936100D01*
X183001400Y-51936100D02*
X183001400Y-47662700D01*
X183001400Y-47662700D02*
X188464100Y-42200000D01*
%TO.N,Net-(i2S_Audio1-CAPM)*%
X189637500Y-43500000D02*
X188972600Y-43500000D01*
X185673400Y-52389100D02*
X184562500Y-53500000D01*
X188972600Y-43500000D02*
X185673400Y-46799200D01*
X185673400Y-46799200D02*
X185673400Y-52389100D01*
%TO.N,Net-(i2S_Audio1-VNEG)*%
X180035600Y-49401900D02*
X181437500Y-48000000D01*
X188934900Y-44150000D02*
X187356100Y-45728800D01*
X189637500Y-44150000D02*
X188934900Y-44150000D01*
X184863800Y-55136400D02*
X180640400Y-55136400D01*
X180640400Y-55136400D02*
X180035600Y-54531600D01*
X187356100Y-52644100D02*
X184863800Y-55136400D01*
X180035600Y-54531600D02*
X180035600Y-49401900D01*
X187356100Y-45728800D02*
X187356100Y-52644100D01*
%TO.N,Net-(i2S_Audio1-AVDD)*%
X185273600Y-37573600D02*
X185273600Y-40208500D01*
X184700000Y-37000000D02*
X185273600Y-37573600D01*
%TO.N,Net-(i2S_Audio1-BCK)*%
X195362500Y-46100000D02*
X193495700Y-46100000D01*
X193495700Y-46100000D02*
X193295900Y-46299800D01*
X175580000Y-55240000D02*
X174780000Y-55240000D01*
%TO.N,Net-(i2S_Audio1-DIN)*%
X175580000Y-57780000D02*
X174780000Y-57780000D01*
X195362500Y-45450000D02*
X193745600Y-45450000D01*
X193745600Y-45450000D02*
X193697600Y-45498000D01*
%TO.N,Net-(i2S_Audio1-LRCK)*%
X193864300Y-44800000D02*
X193760500Y-44696200D01*
X195362500Y-44800000D02*
X193864300Y-44800000D01*
X175580000Y-60320000D02*
X174780000Y-60320000D01*
%TO.N,Net-(i2S_Audio1-LDOO)*%
X162500000Y-83500000D02*
X162500000Y-82301000D01*
%TO.N,/CLK*%
X146437500Y-125000000D02*
X146462500Y-125025000D01*
X146462500Y-125025000D02*
X146462500Y-132500000D01*
%TO.N,Net-(rPi1-VSYS)*%
X140500000Y-28036700D02*
X139652200Y-28036700D01*
X140459900Y-40090100D02*
X140000000Y-40090100D01*
X140000000Y-40963300D02*
X140000000Y-40090100D01*
X140000000Y-40963300D02*
X139152200Y-40963300D01*
X139152200Y-35589700D02*
X137562500Y-34000000D01*
X139152200Y-40963300D02*
X139152200Y-35589700D01*
X175580000Y-24760000D02*
X174780000Y-24760000D01*
X145000000Y-35550000D02*
X140459900Y-40090100D01*
X139652200Y-28036700D02*
X139652200Y-31910300D01*
X139652200Y-31910300D02*
X137562500Y-34000000D01*
%TO.N,Net-(rPi1-3V3_EN)*%
X145000000Y-32450000D02*
X145000000Y-31271500D01*
X175580000Y-29840000D02*
X174780000Y-29840000D01*
%TO.N,Net-(SPi_Level1-A8)*%
X180200000Y-37000000D02*
X181575000Y-37000000D01*
X136946000Y-91925100D02*
X136946000Y-71160500D01*
X130725000Y-91637500D02*
X130725000Y-92313700D01*
X181575000Y-37000000D02*
X181575000Y-42500000D01*
X130725000Y-91637500D02*
X130725000Y-81787500D01*
X135275000Y-92349200D02*
X135275000Y-91637500D01*
X136178000Y-92693100D02*
X136946000Y-91925100D01*
X135618900Y-92693100D02*
X136178000Y-92693100D01*
X136946000Y-71160500D02*
X146968900Y-61137600D01*
X135275000Y-92349200D02*
X135618900Y-92693100D01*
X131109900Y-92698600D02*
X134925600Y-92698600D01*
X130725000Y-92313700D02*
X131109900Y-92698600D01*
X175580000Y-32380000D02*
X174780000Y-32380000D01*
X175580000Y-32380000D02*
X180200000Y-37000000D01*
X134925600Y-92698600D02*
X135275000Y-92349200D01*
X130725000Y-81787500D02*
X124500000Y-75562500D01*
%TO.N,/CT*%
X179500000Y-46460000D02*
X175580000Y-42540000D01*
X173644800Y-70027500D02*
X174462300Y-69210000D01*
X172000000Y-91437500D02*
X173644800Y-89792700D01*
X173644800Y-89792700D02*
X173644800Y-89500000D01*
X179500000Y-66419800D02*
X179500000Y-46460000D01*
X173644800Y-89500000D02*
X173644800Y-70027500D01*
X174450000Y-89500000D02*
X173644800Y-89500000D01*
X167000000Y-91437500D02*
X172000000Y-91437500D01*
X175580000Y-42540000D02*
X174780000Y-42540000D01*
X176709800Y-69210000D02*
X179500000Y-66419800D01*
X174462300Y-69210000D02*
X176709800Y-69210000D01*
%TO.N,Net-(rPi1-GPIO5)*%
X77500000Y-34050000D02*
X77500000Y-36271300D01*
X77500000Y-37437500D02*
X77500000Y-36271300D01*
X157000000Y-37460000D02*
X156200000Y-37460000D01*
%TO.N,Net-(SPi_Level1-A1)*%
X135925000Y-91637500D02*
X135925000Y-70435000D01*
X135925000Y-70435000D02*
X156200000Y-50160000D01*
X157000000Y-50160000D02*
X156200000Y-50160000D01*
%TO.N,Net-(SPi_Level1-A2)*%
X156200000Y-47620000D02*
X134625000Y-69195000D01*
X134625000Y-69195000D02*
X134625000Y-91637500D01*
X157000000Y-47620000D02*
X156200000Y-47620000D01*
%TO.N,Net-(SPi_Level1-A3)*%
X157000000Y-45080000D02*
X156200000Y-45080000D01*
X133975000Y-91637500D02*
X133975000Y-67305000D01*
X133975000Y-67305000D02*
X156200000Y-45080000D01*
%TO.N,Net-(SPi_Level1-A4)*%
X157000000Y-24760000D02*
X156200000Y-24760000D01*
X133325000Y-54823400D02*
X153960100Y-34188300D01*
X153960100Y-26999900D02*
X156200000Y-24760000D01*
X133325000Y-91637500D02*
X133325000Y-54823400D01*
X153960100Y-34188300D02*
X153960100Y-26999900D01*
%TO.N,Net-(SPi_Level1-A5)*%
X157000000Y-29840000D02*
X156200000Y-29840000D01*
%TO.N,Net-(SPi_Level1-A6)*%
X156200000Y-22220000D02*
X152454400Y-25965600D01*
X132426700Y-54171000D02*
X132426700Y-55046700D01*
X132426700Y-55046700D02*
X132025000Y-55448400D01*
X157000000Y-22220000D02*
X156200000Y-22220000D01*
X152454400Y-25965600D02*
X152454400Y-34143300D01*
X152454400Y-34143300D02*
X132426700Y-54171000D01*
X132025000Y-55448400D02*
X132025000Y-91637500D01*
%TO.N,Net-(SPi_Level1-A7)*%
X157000000Y-32380000D02*
X156200000Y-32380000D01*
%TO.N,Net-(SPi_Level1-OE)*%
X142450000Y-86993600D02*
X142450000Y-85000000D01*
X130075000Y-91637500D02*
X130075000Y-92352400D01*
X130075000Y-92352400D02*
X130868500Y-93145900D01*
X130868500Y-93145900D02*
X136297700Y-93145900D01*
X136297700Y-93145900D02*
X142450000Y-86993600D01*
%TO.N,Net-(DSPB_Conn1-Pin_30)*%
X133975000Y-97362500D02*
X133975000Y-139500000D01*
%TO.N,Net-(DSPB_Conn1-Pin_29)*%
X134625000Y-97362500D02*
X134588100Y-97399400D01*
X134588100Y-97399400D02*
X134588100Y-138759500D01*
%TO.N,/KD0*%
X135925000Y-97362500D02*
X136189200Y-97098300D01*
X136189200Y-97098300D02*
X137050200Y-97098300D01*
X137050200Y-97098300D02*
X137468400Y-97516500D01*
X137468400Y-97516500D02*
X137468400Y-122907600D01*
%TO.N,Net-(R4-Pad1)*%
X180000000Y-102550000D02*
X177550000Y-105000000D01*
X177550000Y-105000000D02*
X180000000Y-107450000D01*
%TO.N,Net-(rPi1-GPIO18)*%
X122500000Y-31000000D02*
X127400000Y-31000000D01*
X127400000Y-31000000D02*
X127400000Y-61748800D01*
X175580000Y-62860000D02*
X174780000Y-62860000D01*
%TO.N,Net-(R1-Pad2)*%
X180000000Y-87050000D02*
X177550000Y-89500000D01*
X177550000Y-89500000D02*
X180000000Y-91950000D01*
%TO.N,Net-(D12-K)*%
X157000000Y-67940000D02*
X156200000Y-67940000D01*
%TO.N,Net-(DSPB_Conn1-Pin_34)*%
X193553600Y-142000000D02*
X195500000Y-143946400D01*
X192450200Y-142000000D02*
X193553600Y-142000000D01*
X187577700Y-91527700D02*
X187577700Y-137127500D01*
X187577700Y-137127500D02*
X192450200Y-142000000D01*
X195500000Y-143946400D02*
X195500000Y-144500000D01*
X180000000Y-83950000D02*
X187577700Y-91527700D01*
%TO.N,Net-(rPi1-GPIO26_ADC0)*%
X165765800Y-97011800D02*
X165765800Y-76854200D01*
X174428000Y-66701900D02*
X176714650Y-66701900D01*
X173612800Y-67517100D02*
X174428000Y-66701900D01*
X165765800Y-76854200D02*
X173612800Y-69007200D01*
X178500000Y-48000000D02*
X175580000Y-45080000D01*
X167500000Y-107437500D02*
X172500000Y-107437500D01*
X167500000Y-98746000D02*
X165765800Y-97011800D01*
X172500000Y-106950000D02*
X172500000Y-107437500D01*
X174450000Y-105000000D02*
X172500000Y-106950000D01*
X178500000Y-64916550D02*
X178500000Y-48000000D01*
X167500000Y-107437500D02*
X167500000Y-98746000D01*
X175580000Y-45080000D02*
X174780000Y-45080000D01*
X173612800Y-69007200D02*
X173612800Y-67517100D01*
X176714650Y-66701900D02*
X178500000Y-64916550D01*
%TO.N,Net-(DSPB_Conn1-Pin_35)*%
X184303000Y-137053000D02*
X184303000Y-103753000D01*
X184303000Y-103753000D02*
X180000000Y-99450000D01*
X193000000Y-145750000D02*
X184303000Y-137053000D01*
%TO.N,Net-(D11-K)*%
X136426900Y-150826900D02*
X136426900Y-98854500D01*
X138000000Y-152400000D02*
X136426900Y-150826900D01*
X157000000Y-62860000D02*
X156200000Y-62860000D01*
X136426900Y-98854500D02*
X136194100Y-98621700D01*
%TO.N,Net-(rPi1-GPIO6)*%
X157000000Y-42540000D02*
X156200000Y-42540000D01*
%TO.N,Net-(D9-K)*%
X143893500Y-86735700D02*
X143893500Y-70086500D01*
X129552200Y-137952200D02*
X129552200Y-96541300D01*
X131920900Y-94172600D02*
X136456600Y-94172600D01*
X157000000Y-57780000D02*
X156200000Y-57780000D01*
X129552200Y-96541300D02*
X131920900Y-94172600D01*
X136456600Y-94172600D02*
X143893500Y-86735700D01*
X132000000Y-140400000D02*
X129552200Y-137952200D01*
X143893500Y-70086500D02*
X156200000Y-57780000D01*
%TO.N,Net-(D10-K)*%
X156200000Y-60320000D02*
X144884100Y-71635900D01*
X135810400Y-145589600D02*
X135000000Y-146400000D01*
X157000000Y-60320000D02*
X156200000Y-60320000D01*
X135810400Y-99905200D02*
X135810400Y-145589600D01*
X144884100Y-71635900D02*
X144884100Y-83611500D01*
%TO.N,Net-(D8-K)*%
X143491800Y-86560000D02*
X136280900Y-93770900D01*
X157000000Y-55240000D02*
X156200000Y-55240000D01*
X129000000Y-96494800D02*
X129000000Y-134400000D01*
X131723900Y-93770900D02*
X129000000Y-96494800D01*
X156200000Y-55240000D02*
X143491800Y-67948200D01*
X143491800Y-67948200D02*
X143491800Y-86560000D01*
X136280900Y-93770900D02*
X131723900Y-93770900D01*
%TO.N,Net-(rPi1-VBUS)*%
X175580000Y-22220000D02*
X174780000Y-22220000D01*
X140500000Y-24963300D02*
X125436700Y-24963300D01*
X125436700Y-24963300D02*
X119400000Y-31000000D01*
X140500000Y-22500000D02*
X140500000Y-24963300D01*
%TO.N,/JOG1*%
X192448300Y-139500000D02*
X189349900Y-136401600D01*
X193547000Y-139500000D02*
X192448300Y-139500000D01*
X189349900Y-136401600D02*
X189349900Y-84249900D01*
X195500000Y-141453000D02*
X193547000Y-139500000D01*
X175580000Y-70480000D02*
X174780000Y-70480000D01*
X195500000Y-142000000D02*
X195500000Y-141453000D01*
X189349900Y-84249900D02*
X175580000Y-70480000D01*
%TO.N,/JOG2*%
X175580000Y-67940000D02*
X174780000Y-67940000D01*
%TO.N,unconnected-(rPi1-RUN-Pad30)*%
X175580000Y-47620000D02*
X174780000Y-47620000D01*
%TO.N,unconnected-(rPi1-GPIO28_ADC2-Pad34)*%
X175580000Y-37460000D02*
X174780000Y-37460000D01*
%TO.N,unconnected-(rPi1-ADC_VREF-Pad35)*%
X175580000Y-34920000D02*
X174780000Y-34920000D01*
%TO.N,Net-(ControlJack1-Pin_2)*%
X194000000Y-78000000D02*
X197247500Y-74752500D01*
%TD*%
M02*
