%TF.GenerationSoftware,KiCad,Pcbnew,10.0.3*%
%TF.CreationDate,2026-07-14T22:36:17+02:00*%
%TF.ProjectId,CDJAY100S,43444a41-5931-4303-9053-2e6b69636164,rev?*%
%TF.SameCoordinates,Original*%
%TF.FileFunction,Legend,Bot*%
%TF.FilePolarity,Positive*%
%FSLAX46Y46*%
G04 Gerber Fmt 4.6, Leading zero omitted, Abs format (unit mm)*
G04 Created by KiCad (PCBNEW 10.0.3) date 2026-07-14 22:36:17*
%MOMM*%
%LPD*%
G01*
G04 APERTURE LIST*
%ADD10C,0.150000*%
%ADD11C,0.120000*%
G04 APERTURE END LIST*
D10*
X198804819Y-116547619D02*
X197804819Y-116547619D01*
X197804819Y-116547619D02*
X197804819Y-116785714D01*
X197804819Y-116785714D02*
X197852438Y-116928571D01*
X197852438Y-116928571D02*
X197947676Y-117023809D01*
X197947676Y-117023809D02*
X198042914Y-117071428D01*
X198042914Y-117071428D02*
X198233390Y-117119047D01*
X198233390Y-117119047D02*
X198376247Y-117119047D01*
X198376247Y-117119047D02*
X198566723Y-117071428D01*
X198566723Y-117071428D02*
X198661961Y-117023809D01*
X198661961Y-117023809D02*
X198757200Y-116928571D01*
X198757200Y-116928571D02*
X198804819Y-116785714D01*
X198804819Y-116785714D02*
X198804819Y-116547619D01*
X198757200Y-117500000D02*
X198804819Y-117642857D01*
X198804819Y-117642857D02*
X198804819Y-117880952D01*
X198804819Y-117880952D02*
X198757200Y-117976190D01*
X198757200Y-117976190D02*
X198709580Y-118023809D01*
X198709580Y-118023809D02*
X198614342Y-118071428D01*
X198614342Y-118071428D02*
X198519104Y-118071428D01*
X198519104Y-118071428D02*
X198423866Y-118023809D01*
X198423866Y-118023809D02*
X198376247Y-117976190D01*
X198376247Y-117976190D02*
X198328628Y-117880952D01*
X198328628Y-117880952D02*
X198281009Y-117690476D01*
X198281009Y-117690476D02*
X198233390Y-117595238D01*
X198233390Y-117595238D02*
X198185771Y-117547619D01*
X198185771Y-117547619D02*
X198090533Y-117500000D01*
X198090533Y-117500000D02*
X197995295Y-117500000D01*
X197995295Y-117500000D02*
X197900057Y-117547619D01*
X197900057Y-117547619D02*
X197852438Y-117595238D01*
X197852438Y-117595238D02*
X197804819Y-117690476D01*
X197804819Y-117690476D02*
X197804819Y-117928571D01*
X197804819Y-117928571D02*
X197852438Y-118071428D01*
X198804819Y-118500000D02*
X197804819Y-118500000D01*
X197804819Y-118500000D02*
X197804819Y-118880952D01*
X197804819Y-118880952D02*
X197852438Y-118976190D01*
X197852438Y-118976190D02*
X197900057Y-119023809D01*
X197900057Y-119023809D02*
X197995295Y-119071428D01*
X197995295Y-119071428D02*
X198138152Y-119071428D01*
X198138152Y-119071428D02*
X198233390Y-119023809D01*
X198233390Y-119023809D02*
X198281009Y-118976190D01*
X198281009Y-118976190D02*
X198328628Y-118880952D01*
X198328628Y-118880952D02*
X198328628Y-118500000D01*
X198281009Y-119833333D02*
X198328628Y-119976190D01*
X198328628Y-119976190D02*
X198376247Y-120023809D01*
X198376247Y-120023809D02*
X198471485Y-120071428D01*
X198471485Y-120071428D02*
X198614342Y-120071428D01*
X198614342Y-120071428D02*
X198709580Y-120023809D01*
X198709580Y-120023809D02*
X198757200Y-119976190D01*
X198757200Y-119976190D02*
X198804819Y-119880952D01*
X198804819Y-119880952D02*
X198804819Y-119500000D01*
X198804819Y-119500000D02*
X197804819Y-119500000D01*
X197804819Y-119500000D02*
X197804819Y-119833333D01*
X197804819Y-119833333D02*
X197852438Y-119928571D01*
X197852438Y-119928571D02*
X197900057Y-119976190D01*
X197900057Y-119976190D02*
X197995295Y-120023809D01*
X197995295Y-120023809D02*
X198090533Y-120023809D01*
X198090533Y-120023809D02*
X198185771Y-119976190D01*
X198185771Y-119976190D02*
X198233390Y-119928571D01*
X198233390Y-119928571D02*
X198281009Y-119833333D01*
X198281009Y-119833333D02*
X198281009Y-119500000D01*
X198900057Y-120261905D02*
X198900057Y-121023809D01*
X198709580Y-121833333D02*
X198757200Y-121785714D01*
X198757200Y-121785714D02*
X198804819Y-121642857D01*
X198804819Y-121642857D02*
X198804819Y-121547619D01*
X198804819Y-121547619D02*
X198757200Y-121404762D01*
X198757200Y-121404762D02*
X198661961Y-121309524D01*
X198661961Y-121309524D02*
X198566723Y-121261905D01*
X198566723Y-121261905D02*
X198376247Y-121214286D01*
X198376247Y-121214286D02*
X198233390Y-121214286D01*
X198233390Y-121214286D02*
X198042914Y-121261905D01*
X198042914Y-121261905D02*
X197947676Y-121309524D01*
X197947676Y-121309524D02*
X197852438Y-121404762D01*
X197852438Y-121404762D02*
X197804819Y-121547619D01*
X197804819Y-121547619D02*
X197804819Y-121642857D01*
X197804819Y-121642857D02*
X197852438Y-121785714D01*
X197852438Y-121785714D02*
X197900057Y-121833333D01*
X198804819Y-122404762D02*
X198757200Y-122309524D01*
X198757200Y-122309524D02*
X198709580Y-122261905D01*
X198709580Y-122261905D02*
X198614342Y-122214286D01*
X198614342Y-122214286D02*
X198328628Y-122214286D01*
X198328628Y-122214286D02*
X198233390Y-122261905D01*
X198233390Y-122261905D02*
X198185771Y-122309524D01*
X198185771Y-122309524D02*
X198138152Y-122404762D01*
X198138152Y-122404762D02*
X198138152Y-122547619D01*
X198138152Y-122547619D02*
X198185771Y-122642857D01*
X198185771Y-122642857D02*
X198233390Y-122690476D01*
X198233390Y-122690476D02*
X198328628Y-122738095D01*
X198328628Y-122738095D02*
X198614342Y-122738095D01*
X198614342Y-122738095D02*
X198709580Y-122690476D01*
X198709580Y-122690476D02*
X198757200Y-122642857D01*
X198757200Y-122642857D02*
X198804819Y-122547619D01*
X198804819Y-122547619D02*
X198804819Y-122404762D01*
X198138152Y-123166667D02*
X198804819Y-123166667D01*
X198233390Y-123166667D02*
X198185771Y-123214286D01*
X198185771Y-123214286D02*
X198138152Y-123309524D01*
X198138152Y-123309524D02*
X198138152Y-123452381D01*
X198138152Y-123452381D02*
X198185771Y-123547619D01*
X198185771Y-123547619D02*
X198281009Y-123595238D01*
X198281009Y-123595238D02*
X198804819Y-123595238D01*
X198138152Y-124071429D02*
X198804819Y-124071429D01*
X198233390Y-124071429D02*
X198185771Y-124119048D01*
X198185771Y-124119048D02*
X198138152Y-124214286D01*
X198138152Y-124214286D02*
X198138152Y-124357143D01*
X198138152Y-124357143D02*
X198185771Y-124452381D01*
X198185771Y-124452381D02*
X198281009Y-124500000D01*
X198281009Y-124500000D02*
X198804819Y-124500000D01*
X198804819Y-125500000D02*
X198804819Y-124928572D01*
X198804819Y-125214286D02*
X197804819Y-125214286D01*
X197804819Y-125214286D02*
X197947676Y-125119048D01*
X197947676Y-125119048D02*
X198042914Y-125023810D01*
X198042914Y-125023810D02*
X198090533Y-124928572D01*
%TO.C,DSPB_Conn1*%
D11*
X191600000Y-93040000D02*
X191600000Y-93540000D01*
X191600000Y-148960000D02*
X191600000Y-146960000D01*
X192850000Y-93040000D02*
X191600000Y-93040000D01*
X192850000Y-93740000D02*
X192850000Y-93040000D01*
X195350000Y-93040000D02*
X195350000Y-93740000D01*
X195350000Y-93740000D02*
X192850000Y-93740000D01*
X196600000Y-93040000D02*
X195350000Y-93040000D01*
X196600000Y-95040000D02*
X196600000Y-93040000D01*
X196600000Y-148460000D02*
X196600000Y-148960000D01*
%TD*%
M02*
