%TF.GenerationSoftware,KiCad,Pcbnew,10.0.3*%
%TF.CreationDate,2026-07-14T22:36:17+02:00*%
%TF.ProjectId,CDJAY100S,43444a41-5931-4303-9053-2e6b69636164,rev?*%
%TF.SameCoordinates,Original*%
%TF.FileFunction,Copper,L2,Bot*%
%TF.FilePolarity,Positive*%
%FSLAX46Y46*%
G04 Gerber Fmt 4.6, Leading zero omitted, Abs format (unit mm)*
G04 Created by KiCad (PCBNEW 10.0.3) date 2026-07-14 22:36:17*
%MOMM*%
%LPD*%
G01*
G04 APERTURE LIST*
G04 Aperture macros list*
%AMRoundRect*
0 Rectangle with rounded corners*
0 $1 Rounding radius*
0 $2 $3 $4 $5 $6 $7 $8 $9 X,Y pos of 4 corners*
0 Add a 4 corners polygon primitive as box body*
4,1,4,$2,$3,$4,$5,$6,$7,$8,$9,$2,$3,0*
0 Add four circle primitives for the rounded corners*
1,1,$1+$1,$2,$3*
1,1,$1+$1,$4,$5*
1,1,$1+$1,$6,$7*
1,1,$1+$1,$8,$9*
0 Add four rect primitives between the rounded corners*
20,1,$1+$1,$2,$3,$4,$5,0*
20,1,$1+$1,$4,$5,$6,$7,0*
20,1,$1+$1,$6,$7,$8,$9,0*
20,1,$1+$1,$8,$9,$2,$3,0*%
%AMFreePoly0*
4,1,37,0.000000,0.796148,0.078414,0.796148,0.232228,0.765552,0.377117,0.705537,0.507515,0.618408,0.618408,0.507515,0.705537,0.377117,0.765552,0.232228,0.796148,0.078414,0.796148,-0.078414,0.765552,-0.232228,0.705537,-0.377117,0.618408,-0.507515,0.507515,-0.618408,0.377117,-0.705537,0.232228,-0.765552,0.078414,-0.796148,0.000000,-0.796148,0.000000,-0.800000,-0.600000,-0.800000,
-0.603843,-0.796157,-0.639018,-0.796157,-0.711114,-0.766294,-0.766294,-0.711114,-0.796157,-0.639018,-0.796157,-0.603843,-0.800000,-0.600000,-0.800000,0.600000,-0.796157,0.603843,-0.796157,0.639018,-0.766294,0.711114,-0.711114,0.766294,-0.639018,0.796157,-0.603843,0.796157,-0.600000,0.800000,0.000000,0.800000,0.000000,0.796148,0.000000,0.796148,$1*%
%AMFreePoly1*
4,1,37,0.603843,0.796157,0.639018,0.796157,0.711114,0.766294,0.766294,0.711114,0.796157,0.639018,0.796157,0.603843,0.800000,0.600000,0.800000,-0.600000,0.796157,-0.603843,0.796157,-0.639018,0.766294,-0.711114,0.711114,-0.766294,0.639018,-0.796157,0.603843,-0.796157,0.600000,-0.800000,0.000000,-0.800000,0.000000,-0.796148,-0.078414,-0.796148,-0.232228,-0.765552,-0.377117,-0.705537,
-0.507515,-0.618408,-0.618408,-0.507515,-0.705537,-0.377117,-0.765552,-0.232228,-0.796148,-0.078414,-0.796148,0.078414,-0.765552,0.232228,-0.705537,0.377117,-0.618408,0.507515,-0.507515,0.618408,-0.377117,0.705537,-0.232228,0.765552,-0.078414,0.796148,0.000000,0.796148,0.000000,0.800000,0.600000,0.800000,0.603843,0.796157,0.603843,0.796157,$1*%
G04 Aperture macros list end*
%TA.AperFunction,ComponentPad*%
%ADD10R,1.700000X1.700000*%
%TD*%
%TA.AperFunction,ComponentPad*%
%ADD11C,1.700000*%
%TD*%
%TA.AperFunction,ComponentPad*%
%ADD12O,0.900000X1.400000*%
%TD*%
%TA.AperFunction,ComponentPad*%
%ADD13RoundRect,0.225000X-0.225000X-0.475000X0.225000X-0.475000X0.225000X0.475000X-0.225000X0.475000X0*%
%TD*%
%TA.AperFunction,ComponentPad*%
%ADD14C,1.600000*%
%TD*%
%TA.AperFunction,ComponentPad*%
%ADD15FreePoly0,0.000000*%
%TD*%
%TA.AperFunction,ComponentPad*%
%ADD16FreePoly1,0.000000*%
%TD*%
%TA.AperFunction,ComponentPad*%
%ADD17RoundRect,0.200000X-0.600000X-0.600000X0.600000X-0.600000X0.600000X0.600000X-0.600000X0.600000X0*%
%TD*%
%TA.AperFunction,ComponentPad*%
%ADD18R,1.350000X1.350000*%
%TD*%
%TA.AperFunction,ComponentPad*%
%ADD19C,1.350000*%
%TD*%
%TA.AperFunction,ComponentPad*%
%ADD20RoundRect,0.225000X0.525000X-0.525000X0.525000X0.525000X-0.525000X0.525000X-0.525000X-0.525000X0*%
%TD*%
%TA.AperFunction,ViaPad*%
%ADD21C,0.600000*%
%TD*%
%TA.AperFunction,Conductor*%
%ADD22C,0.200000*%
%TD*%
G04 APERTURE END LIST*
D10*
%TO.P,SW1,1*%
%TO.N,Net-(R10-Pad2)*%
X75920000Y-24000000D03*
D11*
%TO.P,SW1,2*%
%TO.N,Net-(R9-Pad2)*%
X78460000Y-24000000D03*
%TO.P,SW1,3*%
%TO.N,/GNDD*%
X81000000Y-24000000D03*
%TO.P,SW1,4*%
%TO.N,Net-(R11-Pad1)*%
X83540000Y-24000000D03*
%TO.P,SW1,5*%
%TO.N,/GNDD*%
X86080000Y-24000000D03*
%TD*%
D12*
%TO.P,Control,2,Pin_2_2*%
%TO.N,Net-(ControlJack1-Pin_2)*%
X196250000Y-32000000D03*
D13*
%TO.P,Control,1,Pin_1_1*%
%TO.N,Net-(ControlJack1-Pin_1)*%
X195000000Y-32000000D03*
%TD*%
D14*
%TO.P,rPi1,40,VBUS_40*%
%TO.N,Net-(rPi1-VBUS)*%
X174780000Y-22220000D03*
%TO.P,rPi1,39,VSYS_39*%
%TO.N,Net-(rPi1-VSYS)*%
X174780000Y-24760000D03*
D15*
%TO.P,rPi1,38,GND_38*%
%TO.N,/GNDD*%
X174780000Y-27300000D03*
D14*
%TO.P,rPi1,37,3V3_EN_37*%
%TO.N,Net-(rPi1-3V3_EN)*%
X174780000Y-29840000D03*
%TO.P,rPi1,36,3V3_36*%
%TO.N,Net-(SPi_Level1-A8)*%
X174780000Y-32380000D03*
%TO.P,rPi1,35,ADC_VREF_35*%
%TO.N,unconnected-(rPi1-ADC_VREF-Pad35)*%
X174780000Y-34920000D03*
%TO.P,rPi1,34,GPIO28_ADC2_34*%
%TO.N,unconnected-(rPi1-GPIO28_ADC2-Pad34)*%
X174780000Y-37460000D03*
D15*
%TO.P,rPi1,33,AGND_33*%
%TO.N,GND*%
X174780000Y-40000000D03*
D14*
%TO.P,rPi1,32,GPIO27_ADC1_32*%
%TO.N,/CT*%
X174780000Y-42540000D03*
%TO.P,rPi1,31,GPIO26_ADC0_31*%
%TO.N,Net-(rPi1-GPIO26_ADC0)*%
X174780000Y-45080000D03*
%TO.P,rPi1,30,RUN_30*%
%TO.N,unconnected-(rPi1-RUN-Pad30)*%
X174780000Y-47620000D03*
%TO.P,rPi1,29,GPIO22_29*%
%TO.N,Net-(ControlJack1-Pin_2)*%
X174780000Y-50160000D03*
D15*
%TO.P,rPi1,28,GND_28*%
%TO.N,/GNDD*%
X174780000Y-52700000D03*
D14*
%TO.P,rPi1,27,GPIO21_27*%
%TO.N,Net-(i2S_Audio1-BCK)*%
X174780000Y-55240000D03*
%TO.P,rPi1,26,GPIO20_26*%
%TO.N,Net-(i2S_Audio1-DIN)*%
X174780000Y-57780000D03*
%TO.P,rPi1,25,GPIO19_25*%
%TO.N,Net-(i2S_Audio1-LRCK)*%
X174780000Y-60320000D03*
%TO.P,rPi1,24,GPIO18_24*%
%TO.N,Net-(rPi1-GPIO18)*%
X174780000Y-62860000D03*
D15*
%TO.P,rPi1,23,GND_23*%
%TO.N,/GNDD*%
X174780000Y-65400000D03*
D14*
%TO.P,rPi1,22,GPIO17_22*%
%TO.N,/JOG2*%
X174780000Y-67940000D03*
%TO.P,rPi1,21,GPIO16_21*%
%TO.N,/JOG1*%
X174780000Y-70480000D03*
%TO.P,rPi1,20,GPIO15_20*%
%TO.N,Net-(ControlJack1-Pin_1)*%
X157000000Y-70480000D03*
%TO.P,rPi1,19,GPIO14_19*%
%TO.N,Net-(D12-K)*%
X157000000Y-67940000D03*
D16*
%TO.P,rPi1,18,GND_18*%
%TO.N,/GNDD*%
X157000000Y-65400000D03*
D14*
%TO.P,rPi1,17,GPIO13_17*%
%TO.N,Net-(D11-K)*%
X157000000Y-62860000D03*
%TO.P,rPi1,16,GPIO12_16*%
%TO.N,Net-(D10-K)*%
X157000000Y-60320000D03*
%TO.P,rPi1,15,GPIO11_15*%
%TO.N,Net-(D9-K)*%
X157000000Y-57780000D03*
%TO.P,rPi1,14,GPIO10_14*%
%TO.N,Net-(D8-K)*%
X157000000Y-55240000D03*
D16*
%TO.P,rPi1,13,GND_13*%
%TO.N,/GNDD*%
X157000000Y-52700000D03*
D14*
%TO.P,rPi1,12,GPIO9_12*%
%TO.N,Net-(SPi_Level1-A1)*%
X157000000Y-50160000D03*
%TO.P,rPi1,11,GPIO8_11*%
%TO.N,Net-(SPi_Level1-A2)*%
X157000000Y-47620000D03*
%TO.P,rPi1,10,GPIO7_10*%
%TO.N,Net-(SPi_Level1-A3)*%
X157000000Y-45080000D03*
%TO.P,rPi1,9,GPIO6_9*%
%TO.N,Net-(rPi1-GPIO6)*%
X157000000Y-42540000D03*
D16*
%TO.P,rPi1,8,GND_8*%
%TO.N,/GNDD*%
X157000000Y-40000000D03*
D14*
%TO.P,rPi1,7,GPIO5_7*%
%TO.N,Net-(rPi1-GPIO5)*%
X157000000Y-37460000D03*
%TO.P,rPi1,6,GPIO4_6*%
%TO.N,Net-(rPi1-GPIO4)*%
X157000000Y-34920000D03*
%TO.P,rPi1,5,GPIO3_5*%
%TO.N,Net-(SPi_Level1-A7)*%
X157000000Y-32380000D03*
%TO.P,rPi1,4,GPIO2_4*%
%TO.N,Net-(SPi_Level1-A5)*%
X157000000Y-29840000D03*
D16*
%TO.P,rPi1,3,GND_3*%
%TO.N,/GNDD*%
X157000000Y-27300000D03*
D14*
%TO.P,rPi1,2,GPIO1_2*%
%TO.N,Net-(SPi_Level1-A4)*%
X157000000Y-24760000D03*
D17*
%TO.P,rPi1,1,GPIO0_1*%
%TO.N,Net-(SPi_Level1-A6)*%
X157000000Y-22220000D03*
%TD*%
D18*
%TO.P,TB1,1,Pin_14_1*%
%TO.N,Net-(DSPB_Conn1-Pin_3)*%
X194000000Y-90000000D03*
D19*
%TO.P,TB1,2,Pin_13_2*%
%TO.N,Net-(DSPB_Conn1-Pin_1)*%
X194000000Y-88000000D03*
%TO.P,TB1,3,Pin_12_3*%
%TO.N,Net-(TB1-Pin_12)*%
X194000000Y-86000000D03*
%TO.P,TB1,4,Pin_11_4*%
%TO.N,Net-(TB1-Pin_11)*%
X194000000Y-84000000D03*
%TO.P,TB1,5,Pin_10_5*%
%TO.N,GND*%
X194000000Y-82000000D03*
%TO.P,TB1,6,Pin_9_6*%
%TO.N,Net-(TB1-Pin_9)*%
X194000000Y-80000000D03*
%TO.P,TB1,7,Pin_8_7*%
%TO.N,Net-(ControlJack1-Pin_2)*%
X194000000Y-78000000D03*
%TO.P,TB1,8,Pin_7_8*%
%TO.N,Net-(ControlJack1-Pin_1)*%
X194000000Y-76000000D03*
%TO.P,TB1,9,Pin_6_9*%
%TO.N,Net-(DSPB_Conn1-Pin_36)*%
X194000000Y-74000000D03*
%TO.P,TB1,10,Pin_5_10*%
%TO.N,/GNDD*%
X194000000Y-72000000D03*
%TO.P,TB1,11,Pin_4_11*%
%TO.N,Net-(TB1-Pin_4)*%
X194000000Y-70000000D03*
%TO.P,TB1,12,Pin_3_12*%
%TO.N,unconnected-(TB1-Pin_3-Pad12)*%
X194000000Y-68000000D03*
%TO.P,TB1,13,Pin_2_13*%
%TO.N,Net-(DSPB_Conn1-Pin_2)*%
X194000000Y-66000000D03*
%TO.P,TB1,14,Pin_1_14*%
%TO.N,Net-(DSPB_Conn1-Pin_4)*%
X194000000Y-64000000D03*
%TD*%
D20*
%TO.P,DSPB_Conn1,1,Pin_36_1*%
%TO.N,Net-(DSPB_Conn1-Pin_36)*%
X195500000Y-147000000D03*
%TO.P,DSPB_Conn1,2,Pin_35_2*%
%TO.N,Net-(DSPB_Conn1-Pin_35)*%
X193000000Y-145750000D03*
%TO.P,DSPB_Conn1,3,Pin_34_3*%
%TO.N,Net-(DSPB_Conn1-Pin_34)*%
X195500000Y-144500000D03*
%TO.P,DSPB_Conn1,4,Pin_33_4*%
%TO.N,/GNDD*%
X193000000Y-143250000D03*
%TO.P,DSPB_Conn1,5,Pin_32_5*%
%TO.N,/JOG1*%
X195500000Y-142000000D03*
%TO.P,DSPB_Conn1,6,Pin_31_6*%
%TO.N,/JOG2*%
X193000000Y-140750000D03*
%TO.P,DSPB_Conn1,7,Pin_30_7*%
%TO.N,Net-(DSPB_Conn1-Pin_30)*%
X195500000Y-139500000D03*
%TO.P,DSPB_Conn1,8,Pin_29_8*%
%TO.N,Net-(DSPB_Conn1-Pin_29)*%
X193000000Y-138250000D03*
%TO.P,DSPB_Conn1,9,Pin_28_9*%
%TO.N,/KD0*%
X195500000Y-137000000D03*
%TO.P,DSPB_Conn1,10,Pin_27_10*%
%TO.N,/SG12*%
X193000000Y-135750000D03*
%TO.P,DSPB_Conn1,11,Pin_26_11*%
%TO.N,/SG1*%
X195500000Y-134500000D03*
%TO.P,DSPB_Conn1,12,Pin_25_12*%
%TO.N,/SG2*%
X193000000Y-133250000D03*
%TO.P,DSPB_Conn1,13,Pin_24_13*%
%TO.N,/SG3*%
X195500000Y-132000000D03*
%TO.P,DSPB_Conn1,14,Pin_23_14*%
%TO.N,/SG4*%
X193000000Y-130750000D03*
%TO.P,DSPB_Conn1,15,Pin_22_15*%
%TO.N,/SG5*%
X195500000Y-129500000D03*
%TO.P,DSPB_Conn1,16,Pin_21_16*%
%TO.N,/SG6*%
X193000000Y-128250000D03*
%TO.P,DSPB_Conn1,17,Pin_20_17*%
%TO.N,Net-(DSPB_Conn1-Pin_20)*%
X195500000Y-127000000D03*
%TO.P,DSPB_Conn1,18,Pin_19_18*%
%TO.N,/SG8*%
X193000000Y-125750000D03*
%TO.P,DSPB_Conn1,19,Pin_18_19*%
%TO.N,/SG9*%
X195500000Y-124500000D03*
%TO.P,DSPB_Conn1,20,Pin_17_20*%
%TO.N,/SG10*%
X193000000Y-123250000D03*
%TO.P,DSPB_Conn1,21,Pin_16_21*%
%TO.N,/SG11*%
X195500000Y-122000000D03*
%TO.P,DSPB_Conn1,22,Pin_15_22*%
%TO.N,/GR11*%
X193000000Y-120750000D03*
%TO.P,DSPB_Conn1,23,Pin_14_23*%
%TO.N,/GR10*%
X195500000Y-119500000D03*
%TO.P,DSPB_Conn1,24,Pin_13_24*%
%TO.N,/GR9*%
X193000000Y-118250000D03*
%TO.P,DSPB_Conn1,25,Pin_12_25*%
%TO.N,/GR8*%
X195500000Y-117000000D03*
%TO.P,DSPB_Conn1,26,Pin_11_26*%
%TO.N,/GR7*%
X193000000Y-115750000D03*
%TO.P,DSPB_Conn1,27,Pin_10_27*%
%TO.N,/GR6*%
X195500000Y-114500000D03*
%TO.P,DSPB_Conn1,28,Pin_9_28*%
%TO.N,/GR5*%
X193000000Y-113250000D03*
%TO.P,DSPB_Conn1,29,Pin_8_29*%
%TO.N,/GR4*%
X195500000Y-112000000D03*
%TO.P,DSPB_Conn1,30,Pin_7_30*%
%TO.N,/GR3*%
X193000000Y-110750000D03*
%TO.P,DSPB_Conn1,31,Pin_6_31*%
%TO.N,/GR2*%
X195500000Y-109500000D03*
%TO.P,DSPB_Conn1,32,Pin_5_32*%
%TO.N,/GR1*%
X193000000Y-108250000D03*
%TO.P,DSPB_Conn1,33,Pin_4_33*%
%TO.N,Net-(DSPB_Conn1-Pin_4)*%
X195500000Y-107000000D03*
%TO.P,DSPB_Conn1,34,Pin_3_34*%
%TO.N,Net-(DSPB_Conn1-Pin_3)*%
X193000000Y-105750000D03*
%TO.P,DSPB_Conn1,35,Pin_2_35*%
%TO.N,Net-(DSPB_Conn1-Pin_2)*%
X195500000Y-104500000D03*
%TO.P,DSPB_Conn1,36,Pin_1_36*%
%TO.N,Net-(DSPB_Conn1-Pin_1)*%
X193000000Y-103250000D03*
%TD*%
D21*
%TO.N,/DOUT*%
X132025000Y-106000000D03*
%TO.N,/VDD*%
X130725000Y-103500000D03*
%TO.N,Net-(D9-A)*%
X132395400Y-145500000D03*
%TO.N,/CLK*%
X145500000Y-105032100D03*
%TO.N,Net-(TB1-Pin_12)*%
X165849200Y-99915700D03*
%TO.N,GND*%
X181183500Y-85996000D03*
%TO.N,Net-(TB1-Pin_9)*%
X187757800Y-77000000D03*
%TO.N,Net-(DSPB_Conn1-Pin_36)*%
X127936300Y-96070800D03*
X135203700Y-102045000D03*
X190607400Y-95663200D03*
%TO.N,/GNDD*%
X145485800Y-74006700D03*
X167000000Y-143250000D03*
X124500000Y-74006700D03*
X130500000Y-27523400D03*
%TO.N,/DOUT*%
X151748200Y-124147000D03*
%TO.N,/DIN*%
X132552200Y-141358500D03*
X158107700Y-143864400D03*
%TO.N,/VDD*%
X142000000Y-108019200D03*
X154000000Y-113500000D03*
%TO.N,/SG1*%
X181969900Y-136678200D03*
X181969900Y-157601500D03*
X167000000Y-170000000D03*
%TO.N,/SG2*%
X166617300Y-171270900D03*
%TO.N,/SG3*%
X166606100Y-172667100D03*
%TO.N,/SG4*%
X164045600Y-172892700D03*
%TO.N,/SG5*%
X166183500Y-174486300D03*
%TO.N,/SG6*%
X180908600Y-155245100D03*
X180910200Y-135672500D03*
X173269700Y-162650300D03*
%TO.N,Net-(DSPB_Conn1-Pin_20)*%
X169000000Y-176156700D03*
%TO.N,/SG8*%
X181809600Y-134879200D03*
%TO.N,/SG9*%
X199644900Y-126138800D03*
%TO.N,/SG10*%
X179688000Y-158039600D03*
X171927942Y-168927942D03*
X179688000Y-136500000D03*
%TO.N,/SG11*%
X194180800Y-129169800D03*
X199043200Y-146851500D03*
%TO.N,/SG12*%
X174000000Y-166283000D03*
%TO.N,/GR6*%
X183546300Y-134935500D03*
%TO.N,/GR7*%
X179000000Y-127500000D03*
%TO.N,/GR8*%
X178000000Y-125000000D03*
%TO.N,/GR9*%
X177000000Y-127500000D03*
%TO.N,/GR10*%
X176000000Y-136000000D03*
%TO.N,/GR11*%
X175000000Y-135500000D03*
%TO.N,/GR13*%
X138000000Y-155359000D03*
X172600000Y-156000000D03*
%TO.N,/GR14*%
X135000000Y-150500000D03*
X171600000Y-152500000D03*
%TO.N,Net-(D9-A)*%
X170000000Y-149000000D03*
%TO.N,/GR15*%
X130000000Y-150500000D03*
X170224900Y-157927900D03*
%TO.N,Net-(rPi1-GPIO4)*%
X82205900Y-35215300D03*
%TO.N,Net-(i2S_Audio1-AVDD)*%
X185273600Y-40208500D03*
X189237300Y-50600000D03*
%TO.N,Net-(i2S_Audio1-BCK)*%
X193295900Y-46299800D03*
%TO.N,Net-(i2S_Audio1-DIN)*%
X193697600Y-45498000D03*
%TO.N,Net-(i2S_Audio1-LRCK)*%
X193760500Y-44696200D03*
%TO.N,Net-(i2S_Audio1-LDOO)*%
X162500000Y-82301000D03*
X191000000Y-76377300D03*
%TO.N,/CLK*%
X132675000Y-104000000D03*
%TO.N,Net-(rPi1-VSYS)*%
X149000000Y-26135600D03*
%TO.N,Net-(rPi1-3V3_EN)*%
X145000000Y-31271500D03*
%TO.N,Net-(SPi_Level1-A8)*%
X146968900Y-61137600D03*
%TO.N,Net-(rPi1-GPIO5)*%
X77500000Y-36271300D03*
%TO.N,Net-(SPi_Level1-A5)*%
X153056100Y-31000000D03*
%TO.N,Net-(SPi_Level1-A7)*%
X151500000Y-32380000D03*
%TO.N,Net-(DSPB_Conn1-Pin_30)*%
X133975000Y-139500000D03*
%TO.N,Net-(DSPB_Conn1-Pin_29)*%
X134588100Y-138759500D03*
%TO.N,/KD0*%
X137468400Y-122907600D03*
%TO.N,Net-(rPi1-GPIO18)*%
X127400000Y-61748800D03*
%TO.N,Net-(D12-K)*%
X136828600Y-97727700D03*
%TO.N,Net-(D11-K)*%
X136194100Y-98621700D03*
%TO.N,Net-(rPi1-GPIO6)*%
X89500000Y-39500000D03*
%TO.N,Net-(D10-K)*%
X135810400Y-99905200D03*
X144884100Y-83611500D03*
%TO.N,Net-(rPi1-VBUS)*%
X140500000Y-22500000D03*
%TO.N,/JOG2*%
X178000800Y-73999200D03*
%TD*%
%TO.N,Net-(D11-K)*%
D22*
X154000000Y-66500000D02*
X154000000Y-65860000D01*
X154000000Y-65860000D02*
X157000000Y-62860000D01*
X136194100Y-84305900D02*
X136194100Y-98621700D01*
X154000000Y-66500000D02*
X136194100Y-84305900D01*
%TO.N,Net-(i2S_Audio1-AVDD)*%
X189237300Y-50600000D02*
X191072400Y-50600000D01*
X191072400Y-50600000D02*
X194795000Y-46877400D01*
X194795000Y-46877400D02*
X194795000Y-44874300D01*
X194795000Y-44874300D02*
X190129200Y-40208500D01*
X190129200Y-40208500D02*
X185273600Y-40208500D01*
%TO.N,Net-(i2S_Audio1-LRCK)*%
X174780000Y-60320000D02*
X185100000Y-50000000D01*
X185100000Y-50000000D02*
X191078900Y-50000000D01*
X191078900Y-50000000D02*
X194333100Y-46745800D01*
X194333100Y-46745800D02*
X194333100Y-45268800D01*
X194333100Y-45268800D02*
X193760500Y-44696200D01*
%TO.N,Net-(ControlJack1-Pin_2)*%
X190815650Y-33815650D02*
X174780000Y-49851300D01*
X196250000Y-32198696D02*
X196250000Y-32000000D01*
X190815650Y-33815650D02*
X194633046Y-33815650D01*
X194633046Y-33815650D02*
X196250000Y-32198696D01*
%TO.N,Net-(SPi_Level1-A5)*%
X157000000Y-29840000D02*
X154216100Y-29840000D01*
X154216100Y-29840000D02*
X153056100Y-31000000D01*
%TO.N,Net-(SPi_Level1-A7)*%
X157000000Y-32380000D02*
X151500000Y-32380000D01*
%TO.N,/GNDD*%
X86080000Y-24000000D02*
X84690000Y-24000000D01*
X84690000Y-24000000D02*
X84690000Y-24476346D01*
X84690000Y-24476346D02*
X84016346Y-25150000D01*
X84016346Y-25150000D02*
X83499800Y-25150000D01*
X83499800Y-25150000D02*
X83063654Y-25150000D01*
X83063654Y-25150000D02*
X82390000Y-24476346D01*
X82390000Y-24476346D02*
X82390000Y-24040200D01*
X82390000Y-24040200D02*
X82349800Y-24000000D01*
X82349800Y-24000000D02*
X81000000Y-24000000D01*
X130500000Y-27523400D02*
X126976600Y-24000000D01*
X126976600Y-24000000D02*
X86080000Y-24000000D01*
%TO.N,Net-(i2S_Audio1-LDOO)*%
X191000000Y-76377300D02*
X168423700Y-76377300D01*
X168423700Y-76377300D02*
X162500000Y-82301000D01*
%TO.N,Net-(ControlJack1-Pin_1)*%
X194000000Y-76000000D02*
X193000000Y-75000000D01*
X193000000Y-75000000D02*
X161520000Y-75000000D01*
X161520000Y-75000000D02*
X157000000Y-70480000D01*
%TO.N,/JOG2*%
X177625735Y-73624135D02*
X177625735Y-70785735D01*
X178000800Y-73999200D02*
X177625735Y-73624135D01*
X177625735Y-70785735D02*
X174780000Y-67940000D01*
%TO.N,Net-(TB1-Pin_9)*%
X187757800Y-77000000D02*
X188891900Y-78134100D01*
X188891900Y-78134100D02*
X192134100Y-78134100D01*
X192134100Y-78134100D02*
X194000000Y-80000000D01*
%TO.N,/SG10*%
X171927942Y-168927942D02*
X172684184Y-168171700D01*
X172964714Y-168171700D02*
X174793000Y-166343414D01*
X172684184Y-168171700D02*
X172964714Y-168171700D01*
X174793000Y-166343414D02*
X174793000Y-165793000D01*
X174793000Y-165793000D02*
X174791300Y-165791300D01*
X174791300Y-165791300D02*
X174791300Y-162936300D01*
X174791300Y-162936300D02*
X179688000Y-158039600D01*
%TO.N,/SG1*%
X167000000Y-170000000D02*
X171704414Y-170000000D01*
X173087400Y-168617014D02*
X173087400Y-168614700D01*
X173087400Y-168614700D02*
X175193000Y-166509100D01*
X171704414Y-170000000D02*
X173087400Y-168617014D01*
X175193000Y-166509100D02*
X175193000Y-164378400D01*
X175193000Y-164378400D02*
X181969900Y-157601500D01*
%TO.N,/GR13*%
X138000000Y-155359000D02*
X171959000Y-155359000D01*
X171959000Y-155359000D02*
X172600000Y-156000000D01*
%TO.N,/GR14*%
X171600000Y-152500000D02*
X170848100Y-151748100D01*
X170848100Y-151748100D02*
X136248100Y-151748100D01*
X136248100Y-151748100D02*
X135000000Y-150500000D01*
%TO.N,Net-(D9-A)*%
X170000000Y-149000000D02*
X168202200Y-147202200D01*
X168202200Y-147202200D02*
X134097600Y-147202200D01*
X134097600Y-147202200D02*
X132395400Y-145500000D01*
%TO.N,Net-(rPi1-VSYS)*%
X149000000Y-26135600D02*
X160471600Y-26135600D01*
X160471600Y-26135600D02*
X161213500Y-26877500D01*
X161213500Y-26877500D02*
X172662500Y-26877500D01*
X172662500Y-26877500D02*
X174780000Y-24760000D01*
%TO.N,Net-(rPi1-3V3_EN)*%
X174780000Y-29840000D02*
X168120000Y-36500000D01*
X168120000Y-36500000D02*
X160935635Y-36500000D01*
X160935635Y-36500000D02*
X157935635Y-33500000D01*
X157935635Y-33500000D02*
X147228500Y-33500000D01*
X147228500Y-33500000D02*
X145000000Y-31271500D01*
%TO.N,Net-(rPi1-GPIO6)*%
X157000000Y-42540000D02*
X92540000Y-42540000D01*
X92540000Y-42540000D02*
X89500000Y-39500000D01*
%TO.N,/SG10*%
X179688000Y-136500000D02*
X180000000Y-136188000D01*
X180000000Y-136188000D02*
X180000000Y-135337200D01*
X180000000Y-135337200D02*
X192087200Y-123250000D01*
X192087200Y-123250000D02*
X193000000Y-123250000D01*
%TO.N,/GR11*%
X175000000Y-135500000D02*
X178500000Y-132000000D01*
X178500000Y-132000000D02*
X181750000Y-132000000D01*
X181750000Y-132000000D02*
X193000000Y-120750000D01*
%TO.N,/GR10*%
X179541200Y-132458800D02*
X181927200Y-132458800D01*
X176000000Y-136000000D02*
X179541200Y-132458800D01*
X193688600Y-121858400D02*
X193747000Y-121800000D01*
X192527600Y-121858400D02*
X193688600Y-121858400D01*
X181927200Y-132458800D02*
X192527600Y-121858400D01*
X193747000Y-121800000D02*
X193748696Y-121800000D01*
X193748696Y-121800000D02*
X194050000Y-121498696D01*
X194050000Y-121498696D02*
X194050000Y-121497000D01*
X194050000Y-121497000D02*
X195500000Y-120047000D01*
X195500000Y-120047000D02*
X195500000Y-119500000D01*
%TO.N,/GR8*%
X178000000Y-125000000D02*
X188302600Y-114697400D01*
X188302600Y-114697400D02*
X193756600Y-114697400D01*
X193756600Y-114697400D02*
X195500000Y-116440800D01*
X195500000Y-116440800D02*
X195500000Y-117000000D01*
%TO.N,/GR9*%
X193000000Y-118250000D02*
X186250000Y-118250000D01*
X186250000Y-118250000D02*
X177000000Y-127500000D01*
%TO.N,/GR7*%
X194050000Y-118998696D02*
X194050000Y-118997000D01*
X186957800Y-119542200D02*
X193504800Y-119542200D01*
X179000000Y-127500000D02*
X186957800Y-119542200D01*
X193504800Y-119542200D02*
X193747000Y-119300000D01*
X193747000Y-119300000D02*
X193748696Y-119300000D01*
X193748696Y-119300000D02*
X194050000Y-118998696D01*
X194050000Y-118997000D02*
X194068900Y-118978100D01*
X194068900Y-118978100D02*
X194068900Y-116818900D01*
X194068900Y-116818900D02*
X193000000Y-115750000D01*
%TO.N,/DOUT*%
X142370900Y-116345900D02*
X143947100Y-116345900D01*
X132025000Y-106000000D02*
X142370900Y-116345900D01*
X143947100Y-116345900D02*
X151748200Y-124147000D01*
%TO.N,/VDD*%
X142000000Y-108019200D02*
X135244200Y-108019200D01*
X135244200Y-108019200D02*
X130725000Y-103500000D01*
%TO.N,/GR15*%
X170224900Y-157927900D02*
X137427900Y-157927900D01*
X137427900Y-157927900D02*
X130000000Y-150500000D01*
%TO.N,/VDD*%
X142000000Y-108019200D02*
X148519200Y-108019200D01*
X148519200Y-108019200D02*
X154000000Y-113500000D01*
%TO.N,/CLK*%
X132675000Y-104000000D02*
X133707100Y-105032100D01*
X133707100Y-105032100D02*
X145500000Y-105032100D01*
%TO.N,Net-(TB1-Pin_12)*%
X194000000Y-86000000D02*
X180084300Y-99915700D01*
X180084300Y-99915700D02*
X165849200Y-99915700D01*
%TO.N,GND*%
X194000000Y-82000000D02*
X190004000Y-85996000D01*
X190004000Y-85996000D02*
X181183500Y-85996000D01*
%TO.N,Net-(DSPB_Conn1-Pin_36)*%
X129229500Y-96070800D02*
X127936300Y-96070800D01*
X195011600Y-91259000D02*
X190607400Y-95663200D01*
X194000000Y-74000000D02*
X195011600Y-75011600D01*
X184225600Y-102045000D02*
X190607400Y-95663200D01*
X135203700Y-102045000D02*
X184225600Y-102045000D01*
X195011600Y-75011600D02*
X195011600Y-91259000D01*
X135203700Y-102045000D02*
X129229500Y-96070800D01*
%TO.N,/GNDD*%
X187400000Y-65400000D02*
X174780000Y-65400000D01*
X194000000Y-72000000D02*
X187400000Y-65400000D01*
X157000000Y-27300000D02*
X174780000Y-27300000D01*
X173480000Y-54000000D02*
X158300000Y-54000000D01*
X158300000Y-54000000D02*
X157000000Y-52700000D01*
X156776600Y-27523400D02*
X157000000Y-27300000D01*
X174780000Y-52700000D02*
X173480000Y-54000000D01*
X145485800Y-74006700D02*
X124500000Y-74006700D01*
X193000000Y-143250000D02*
X167000000Y-143250000D01*
X130500000Y-27523400D02*
X156776600Y-27523400D01*
%TO.N,/DIN*%
X158107700Y-143864400D02*
X135058100Y-143864400D01*
X135058100Y-143864400D02*
X132552200Y-141358500D01*
%TO.N,/SG1*%
X187334900Y-134500000D02*
X185156700Y-136678200D01*
X185156700Y-136678200D02*
X181969900Y-136678200D01*
X195500000Y-134500000D02*
X187334900Y-134500000D01*
%TO.N,/SG2*%
X195023900Y-145608400D02*
X196205400Y-145608400D01*
X197007000Y-134210500D02*
X196046500Y-133250000D01*
X196205400Y-145608400D02*
X197007000Y-144806800D01*
X166617300Y-171270900D02*
X170999200Y-171270900D01*
X170999200Y-171270900D02*
X181517100Y-160753000D01*
X181517100Y-159115200D02*
X195023900Y-145608400D01*
X196046500Y-133250000D02*
X193000000Y-133250000D01*
X181517100Y-160753000D02*
X181517100Y-159115200D01*
X197007000Y-144806800D02*
X197007000Y-134210500D01*
%TO.N,/SG3*%
X171679700Y-172667100D02*
X166606100Y-172667100D01*
X197436400Y-133936400D02*
X197436400Y-146910400D01*
X195500000Y-132000000D02*
X197436400Y-133936400D01*
X197436400Y-146910400D02*
X171679700Y-172667100D01*
%TO.N,/SG4*%
X193000000Y-130750000D02*
X196046500Y-130750000D01*
X197838100Y-132541600D02*
X197838100Y-147111300D01*
X196046500Y-130750000D02*
X197838100Y-132541600D01*
X171680600Y-173268800D02*
X164421700Y-173268800D01*
X164421700Y-173268800D02*
X164045600Y-172892700D01*
X197838100Y-147111300D02*
X171680600Y-173268800D01*
%TO.N,/SG5*%
X195500000Y-129500000D02*
X195500000Y-129502100D01*
X198271500Y-147295600D02*
X171080800Y-174486300D01*
X171080800Y-174486300D02*
X166183500Y-174486300D01*
X195500000Y-129502100D02*
X198271500Y-132273600D01*
X198271500Y-132273600D02*
X198271500Y-147295600D01*
%TO.N,/SG6*%
X180674900Y-155245100D02*
X180908600Y-155245100D01*
X173269700Y-162650300D02*
X180674900Y-155245100D01*
X185577500Y-135672500D02*
X180910200Y-135672500D01*
X193000000Y-128250000D02*
X185577500Y-135672500D01*
%TO.N,Net-(DSPB_Conn1-Pin_20)*%
X170603600Y-176156700D02*
X169000000Y-176156700D01*
X195500000Y-127000000D02*
X199676100Y-131176100D01*
X199676100Y-131176100D02*
X199676100Y-147084200D01*
X199676100Y-147084200D02*
X170603600Y-176156700D01*
%TO.N,/SG8*%
X190938800Y-125750000D02*
X181809600Y-134879200D01*
X193000000Y-125750000D02*
X190938800Y-125750000D01*
%TO.N,/SG9*%
X197138800Y-126138800D02*
X199644900Y-126138800D01*
X195500000Y-124500000D02*
X197138800Y-126138800D01*
%TO.N,/SG11*%
X196204000Y-128402100D02*
X197661000Y-129859100D01*
X199043200Y-132477200D02*
X199043200Y-146851500D01*
X197661100Y-131095100D02*
X199043200Y-132477200D01*
X194180800Y-128951600D02*
X194730300Y-128402100D01*
X194730300Y-128402100D02*
X196204000Y-128402100D01*
X197661000Y-131095100D02*
X197661100Y-131095100D01*
X197661000Y-129859100D02*
X197661000Y-131095100D01*
X194180800Y-129169800D02*
X194180800Y-128951600D01*
%TO.N,/SG12*%
X181511900Y-155494300D02*
X179568300Y-157437900D01*
X196205400Y-140608400D02*
X195026600Y-140608400D01*
X195026600Y-140608400D02*
X194349900Y-141285100D01*
X193512300Y-144542500D02*
X192371400Y-144542500D01*
X194349900Y-143704900D02*
X193512300Y-144542500D01*
X196577600Y-136213500D02*
X196577600Y-140236200D01*
X192371400Y-144542500D02*
X181511900Y-155402000D01*
X194349900Y-141285100D02*
X194349900Y-143704900D01*
X196577600Y-140236200D02*
X196205400Y-140608400D01*
X181511900Y-155402000D02*
X181511900Y-155494300D01*
X179438900Y-157437900D02*
X174000000Y-162876800D01*
X196114100Y-135750000D02*
X196577600Y-136213500D01*
X174000000Y-162876800D02*
X174000000Y-166283000D01*
X193000000Y-135750000D02*
X196114100Y-135750000D01*
X179568300Y-157437900D02*
X179438900Y-157437900D01*
%TO.N,/GR6*%
X194383800Y-126248500D02*
X194383800Y-123748400D01*
X194383800Y-123748400D02*
X195023800Y-123108400D01*
X191480300Y-127001500D02*
X193630800Y-127001500D01*
X193630800Y-127001500D02*
X194383800Y-126248500D01*
X183546300Y-134935500D02*
X191480300Y-127001500D01*
X196205400Y-123108400D02*
X196579000Y-122734800D01*
X196579000Y-115579000D02*
X195500000Y-114500000D01*
X195023800Y-123108400D02*
X196205400Y-123108400D01*
X196579000Y-122734800D02*
X196579000Y-115579000D01*
%TO.N,Net-(rPi1-GPIO4)*%
X82501200Y-34920000D02*
X82205900Y-35215300D01*
X157000000Y-34920000D02*
X82501200Y-34920000D01*
%TO.N,Net-(i2S_Audio1-BCK)*%
X174780000Y-55240000D02*
X183720200Y-46299800D01*
X183720200Y-46299800D02*
X193295900Y-46299800D01*
%TO.N,Net-(i2S_Audio1-DIN)*%
X193697600Y-45498000D02*
X193897700Y-45698100D01*
X193566600Y-46901500D02*
X185658500Y-46901500D01*
X193897700Y-45698100D02*
X193897700Y-46570400D01*
X193897700Y-46570400D02*
X193566600Y-46901500D01*
X185658500Y-46901500D02*
X174780000Y-57780000D01*
%TO.N,Net-(SPi_Level1-A8)*%
X159251400Y-49533000D02*
X157351700Y-51432700D01*
X159251400Y-46248600D02*
X159251400Y-49533000D01*
X174780000Y-32380000D02*
X173120000Y-32380000D01*
X156673800Y-51432700D02*
X146968900Y-61137600D01*
X157351700Y-51432700D02*
X156673800Y-51432700D01*
X173120000Y-32380000D02*
X159251400Y-46248600D01*
%TO.N,Net-(rPi1-GPIO5)*%
X78688700Y-37460000D02*
X77500000Y-36271300D01*
X157000000Y-37460000D02*
X78688700Y-37460000D01*
%TO.N,Net-(DSPB_Conn1-Pin_30)*%
X195500000Y-139500000D02*
X133975000Y-139500000D01*
%TO.N,Net-(DSPB_Conn1-Pin_29)*%
X193000000Y-138250000D02*
X192490500Y-138759500D01*
X192490500Y-138759500D02*
X134588100Y-138759500D01*
%TO.N,/KD0*%
X182292300Y-137313300D02*
X182511900Y-137093700D01*
X151874100Y-137313300D02*
X182292300Y-137313300D01*
X195406300Y-137093700D02*
X195500000Y-137000000D01*
X182511900Y-137093700D02*
X195406300Y-137093700D01*
X137468400Y-122907600D02*
X151874100Y-137313300D01*
%TO.N,Net-(rPi1-GPIO18)*%
X174780000Y-62860000D02*
X173668800Y-61748800D01*
X173668800Y-61748800D02*
X127400000Y-61748800D01*
%TO.N,Net-(D12-K)*%
X136828600Y-88111400D02*
X136828600Y-97727700D01*
X157000000Y-67940000D02*
X136828600Y-88111400D01*
%TO.N,Net-(D10-K)*%
X144884100Y-90831500D02*
X144884100Y-83611500D01*
X135810400Y-99905200D02*
X144884100Y-90831500D01*
%TO.N,Net-(rPi1-VBUS)*%
X173207300Y-20647300D02*
X142352700Y-20647300D01*
X142352700Y-20647300D02*
X140500000Y-22500000D01*
X174780000Y-22220000D02*
X173207300Y-20647300D01*
%TO.N,Net-(ControlJack1-Pin_2)*%
X174780000Y-49851300D02*
X174780000Y-50160000D01*
%TD*%
M02*
