%TF.GenerationSoftware,KiCad,Pcbnew,10.0.3*%
%TF.CreationDate,2026-07-14T22:36:17+02:00*%
%TF.ProjectId,CDJAY100S,43444a41-5931-4303-9053-2e6b69636164,rev?*%
%TF.SameCoordinates,Original*%
%TF.FileFunction,Soldermask,Bot*%
%TF.FilePolarity,Negative*%
%FSLAX46Y46*%
G04 Gerber Fmt 4.6, Leading zero omitted, Abs format (unit mm)*
G04 Created by KiCad (PCBNEW 10.0.3) date 2026-07-14 22:36:17*
%MOMM*%
%LPD*%
G01*
G04 APERTURE LIST*
G04 Aperture macros list*
%AMRoundRect*
0 Rectangle with rounded corners*
0 $1 Rounding radius*
0 $2 $3 $4 $5 $6 $7 $8 $9 X,Y pos of 4 corners*
0 Add a 4 corners polygon primitive as box body*
4,1,4,$2,$3,$4,$5,$6,$7,$8,$9,$2,$3,0*
0 Add four circle primitives for the rounded corners*
1,1,$1+$1,$2,$3*
1,1,$1+$1,$4,$5*
1,1,$1+$1,$6,$7*
1,1,$1+$1,$8,$9*
0 Add four rect primitives between the rounded corners*
20,1,$1+$1,$2,$3,$4,$5,0*
20,1,$1+$1,$4,$5,$6,$7,0*
20,1,$1+$1,$6,$7,$8,$9,0*
20,1,$1+$1,$8,$9,$2,$3,0*%
%AMFreePoly0*
4,1,37,0.000000,0.796148,0.078414,0.796148,0.232228,0.765552,0.377117,0.705537,0.507515,0.618408,0.618408,0.507515,0.705537,0.377117,0.765552,0.232228,0.796148,0.078414,0.796148,-0.078414,0.765552,-0.232228,0.705537,-0.377117,0.618408,-0.507515,0.507515,-0.618408,0.377117,-0.705537,0.232228,-0.765552,0.078414,-0.796148,0.000000,-0.796148,0.000000,-0.800000,-0.600000,-0.800000,
-0.603843,-0.796157,-0.639018,-0.796157,-0.711114,-0.766294,-0.766294,-0.711114,-0.796157,-0.639018,-0.796157,-0.603843,-0.800000,-0.600000,-0.800000,0.600000,-0.796157,0.603843,-0.796157,0.639018,-0.766294,0.711114,-0.711114,0.766294,-0.639018,0.796157,-0.603843,0.796157,-0.600000,0.800000,0.000000,0.800000,0.000000,0.796148,0.000000,0.796148,$1*%
%AMFreePoly1*
4,1,37,0.603843,0.796157,0.639018,0.796157,0.711114,0.766294,0.766294,0.711114,0.796157,0.639018,0.796157,0.603843,0.800000,0.600000,0.800000,-0.600000,0.796157,-0.603843,0.796157,-0.639018,0.766294,-0.711114,0.711114,-0.766294,0.639018,-0.796157,0.603843,-0.796157,0.600000,-0.800000,0.000000,-0.800000,0.000000,-0.796148,-0.078414,-0.796148,-0.232228,-0.765552,-0.377117,-0.705537,
-0.507515,-0.618408,-0.618408,-0.507515,-0.705537,-0.377117,-0.765552,-0.232228,-0.796148,-0.078414,-0.796148,0.078414,-0.765552,0.232228,-0.705537,0.377117,-0.618408,0.507515,-0.507515,0.618408,-0.377117,0.705537,-0.232228,0.765552,-0.078414,0.796148,0.000000,0.796148,0.000000,0.800000,0.600000,0.800000,0.603843,0.796157,0.603843,0.796157,$1*%
G04 Aperture macros list end*
%ADD10R,1.700000X1.700000*%
%ADD11C,1.700000*%
%ADD12C,2.200000*%
%ADD13O,0.900000X1.400000*%
%ADD14RoundRect,0.225000X-0.225000X-0.475000X0.225000X-0.475000X0.225000X0.475000X-0.225000X0.475000X0*%
%ADD15C,1.600000*%
%ADD16FreePoly0,0.000000*%
%ADD17FreePoly1,0.000000*%
%ADD18RoundRect,0.200000X-0.600000X-0.600000X0.600000X-0.600000X0.600000X0.600000X-0.600000X0.600000X0*%
%ADD19C,1.850000*%
%ADD20R,1.350000X1.350000*%
%ADD21C,1.350000*%
%ADD22RoundRect,0.225000X0.525000X-0.525000X0.525000X0.525000X-0.525000X0.525000X-0.525000X-0.525000X0*%
G04 APERTURE END LIST*
D10*
%TO.C,SW1*%
X75920000Y-24000000D03*
D11*
X78460000Y-24000000D03*
X81000000Y-24000000D03*
X83540000Y-24000000D03*
X86080000Y-24000000D03*
%TD*%
D12*
%TO.C,MH4*%
X184500000Y-198000000D03*
%TD*%
%TO.C,MH3*%
X185000000Y-25000000D03*
%TD*%
D13*
%TO.C,Control*%
X196250000Y-32000000D03*
D14*
X195000000Y-32000000D03*
%TD*%
D15*
%TO.C,rPi1*%
X174780000Y-22220000D03*
X174780000Y-24760000D03*
D16*
X174780000Y-27300000D03*
D15*
X174780000Y-29840000D03*
X174780000Y-32380000D03*
X174780000Y-34920000D03*
X174780000Y-37460000D03*
D16*
X174780000Y-40000000D03*
D15*
X174780000Y-42540000D03*
X174780000Y-45080000D03*
X174780000Y-47620000D03*
X174780000Y-50160000D03*
D16*
X174780000Y-52700000D03*
D15*
X174780000Y-55240000D03*
X174780000Y-57780000D03*
X174780000Y-60320000D03*
X174780000Y-62860000D03*
D16*
X174780000Y-65400000D03*
D15*
X174780000Y-67940000D03*
X174780000Y-70480000D03*
X157000000Y-70480000D03*
X157000000Y-67940000D03*
D17*
X157000000Y-65400000D03*
D15*
X157000000Y-62860000D03*
X157000000Y-60320000D03*
X157000000Y-57780000D03*
X157000000Y-55240000D03*
D17*
X157000000Y-52700000D03*
D15*
X157000000Y-50160000D03*
X157000000Y-47620000D03*
X157000000Y-45080000D03*
X157000000Y-42540000D03*
D17*
X157000000Y-40000000D03*
D15*
X157000000Y-37460000D03*
X157000000Y-34920000D03*
X157000000Y-32380000D03*
X157000000Y-29840000D03*
D17*
X157000000Y-27300000D03*
D15*
X157000000Y-24760000D03*
D18*
X157000000Y-22220000D03*
D12*
X168615000Y-22350000D03*
D19*
X168315000Y-25380000D03*
X163465000Y-25380000D03*
D12*
X163165000Y-22350000D03*
%TD*%
D20*
%TO.C,TB1*%
X194000000Y-90000000D03*
D21*
X194000000Y-88000000D03*
X194000000Y-86000000D03*
X194000000Y-84000000D03*
X194000000Y-82000000D03*
X194000000Y-80000000D03*
X194000000Y-78000000D03*
X194000000Y-76000000D03*
X194000000Y-74000000D03*
X194000000Y-72000000D03*
X194000000Y-70000000D03*
X194000000Y-68000000D03*
X194000000Y-66000000D03*
X194000000Y-64000000D03*
%TD*%
D12*
%TO.C,MH2*%
X64500000Y-40000000D03*
%TD*%
D22*
%TO.C,DSPB_Conn1*%
X195500000Y-147000000D03*
X193000000Y-145750000D03*
X195500000Y-144500000D03*
X193000000Y-143250000D03*
X195500000Y-142000000D03*
X193000000Y-140750000D03*
X195500000Y-139500000D03*
X193000000Y-138250000D03*
X195500000Y-137000000D03*
X193000000Y-135750000D03*
X195500000Y-134500000D03*
X193000000Y-133250000D03*
X195500000Y-132000000D03*
X193000000Y-130750000D03*
X195500000Y-129500000D03*
X193000000Y-128250000D03*
X195500000Y-127000000D03*
X193000000Y-125750000D03*
X195500000Y-124500000D03*
X193000000Y-123250000D03*
X195500000Y-122000000D03*
X193000000Y-120750000D03*
X195500000Y-119500000D03*
X193000000Y-118250000D03*
X195500000Y-117000000D03*
X193000000Y-115750000D03*
X195500000Y-114500000D03*
X193000000Y-113250000D03*
X195500000Y-112000000D03*
X193000000Y-110750000D03*
X195500000Y-109500000D03*
X193000000Y-108250000D03*
X195500000Y-107000000D03*
X193000000Y-105750000D03*
X195500000Y-104500000D03*
X193000000Y-103250000D03*
%TD*%
D12*
%TO.C,MH1*%
X64500000Y-30000000D03*
%TD*%
M02*
