M48
; DRILL file KiCad 10.0.3 date 2026-07-14T22:39:27
; FORMAT={-:-/ absolute / metric / decimal}
; #@! TF.CreationDate,2026-07-14T22:39:27+02:00
; #@! TF.GenerationSoftware,Kicad,Pcbnew,10.0.3
; #@! TF.FileFunction,Plated,1,2,PTH
FMAT,2
METRIC
; #@! TA.AperFunction,Plated,PTH,ViaDrill
T1C0.300
; #@! TA.AperFunction,Plated,PTH,ComponentDrill
T2C0.600
; #@! TA.AperFunction,Plated,PTH,ComponentDrill
T3C0.800
; #@! TA.AperFunction,Plated,PTH,ComponentDrill
T4C0.850
; #@! TA.AperFunction,Plated,PTH,ComponentDrill
T5C1.000
%
G90
G05
T1
X77.5Y-36.271
X82.206Y-35.215
X89.5Y-39.5
X124.5Y-74.007
X127.4Y-61.749
X127.936Y-96.071
X130.0Y-150.5
X130.5Y-27.523
X130.725Y-103.5
X132.025Y-106.0
X132.395Y-145.5
X132.552Y-141.358
X132.675Y-104.0
X133.975Y-139.5
X134.588Y-138.76
X135.0Y-150.5
X135.204Y-102.045
X135.81Y-99.905
X136.194Y-98.622
X136.829Y-97.728
X137.468Y-122.908
X138.0Y-155.359
X140.5Y-22.5
X142.0Y-108.019
X144.884Y-83.611
X145.0Y-31.271
X145.486Y-74.007
X145.5Y-105.032
X146.969Y-61.138
X149.0Y-26.136
X151.5Y-32.38
X151.748Y-124.147
X153.056Y-31.0
X154.0Y-113.5
X158.108Y-143.864
X162.5Y-82.301
X164.046Y-172.893
X165.849Y-99.916
X166.183Y-174.486
X166.606Y-172.667
X166.617Y-171.271
X167.0Y-143.25
X167.0Y-170.0
X169.0Y-176.157
X170.0Y-149.0
X170.225Y-157.928
X171.6Y-152.5
X171.928Y-168.928
X172.6Y-156.0
X173.27Y-162.65
X174.0Y-166.283
X175.0Y-135.5
X176.0Y-136.0
X177.0Y-127.5
X178.0Y-125.0
X178.001Y-73.999
X179.0Y-127.5
X179.688Y-136.5
X179.688Y-158.04
X180.909Y-155.245
X180.91Y-135.672
X181.183Y-85.996
X181.81Y-134.879
X181.97Y-136.678
X181.97Y-157.601
X183.546Y-134.935
X185.274Y-40.209
X187.758Y-77.0
X189.237Y-50.6
X190.607Y-95.663
X191.0Y-76.377
X193.296Y-46.3
X193.698Y-45.498
X193.76Y-44.696
X194.181Y-129.17
X199.043Y-146.851
X199.645Y-126.139
T2
X195.0Y-32.0
X196.25Y-32.0
T3
X194.0Y-64.0
X194.0Y-66.0
X194.0Y-68.0
X194.0Y-70.0
X194.0Y-72.0
X194.0Y-74.0
X194.0Y-76.0
X194.0Y-78.0
X194.0Y-80.0
X194.0Y-82.0
X194.0Y-84.0
X194.0Y-86.0
X194.0Y-88.0
X194.0Y-90.0
T4
X193.0Y-103.25
X193.0Y-105.75
X193.0Y-108.25
X193.0Y-110.75
X193.0Y-113.25
X193.0Y-115.75
X193.0Y-118.25
X193.0Y-120.75
X193.0Y-123.25
X193.0Y-125.75
X193.0Y-128.25
X193.0Y-130.75
X193.0Y-133.25
X193.0Y-135.75
X193.0Y-138.25
X193.0Y-140.75
X193.0Y-143.25
X193.0Y-145.75
X195.5Y-104.5
X195.5Y-107.0
X195.5Y-109.5
X195.5Y-112.0
X195.5Y-114.5
X195.5Y-117.0
X195.5Y-119.5
X195.5Y-122.0
X195.5Y-124.5
X195.5Y-127.0
X195.5Y-129.5
X195.5Y-132.0
X195.5Y-134.5
X195.5Y-137.0
X195.5Y-139.5
X195.5Y-142.0
X195.5Y-144.5
X195.5Y-147.0
T5
X75.92Y-24.0
X78.46Y-24.0
X81.0Y-24.0
X83.54Y-24.0
X86.08Y-24.0
X157.0Y-22.22
X157.0Y-24.76
X157.0Y-27.3
X157.0Y-29.84
X157.0Y-32.38
X157.0Y-34.92
X157.0Y-37.46
X157.0Y-40.0
X157.0Y-42.54
X157.0Y-45.08
X157.0Y-47.62
X157.0Y-50.16
X157.0Y-52.7
X157.0Y-55.24
X157.0Y-57.78
X157.0Y-60.32
X157.0Y-62.86
X157.0Y-65.4
X157.0Y-67.94
X157.0Y-70.48
X174.78Y-22.22
X174.78Y-24.76
X174.78Y-27.3
X174.78Y-29.84
X174.78Y-32.38
X174.78Y-34.92
X174.78Y-37.46
X174.78Y-40.0
X174.78Y-42.54
X174.78Y-45.08
X174.78Y-47.62
X174.78Y-50.16
X174.78Y-52.7
X174.78Y-55.24
X174.78Y-57.78
X174.78Y-60.32
X174.78Y-62.86
X174.78Y-65.4
X174.78Y-67.94
X174.78Y-70.48
M30
