%TF.GenerationSoftware,KiCad,Pcbnew,10.0.3*%
%TF.CreationDate,2026-07-14T22:36:17+02:00*%
%TF.ProjectId,CDJAY100S,43444a41-5931-4303-9053-2e6b69636164,rev?*%
%TF.SameCoordinates,Original*%
%TF.FileFunction,Legend,Top*%
%TF.FilePolarity,Positive*%
%FSLAX46Y46*%
G04 Gerber Fmt 4.6, Leading zero omitted, Abs format (unit mm)*
G04 Created by KiCad (PCBNEW 10.0.3) date 2026-07-14 22:36:17*
%MOMM*%
%LPD*%
G01*
G04 APERTURE LIST*
%ADD10C,0.150000*%
%ADD11C,0.120000*%
%ADD12C,0.152400*%
G04 APERTURE END LIST*
D10*
X89784819Y-33142857D02*
X89308628Y-33476190D01*
X89784819Y-33714285D02*
X88784819Y-33714285D01*
X88784819Y-33714285D02*
X88784819Y-33333333D01*
X88784819Y-33333333D02*
X88832438Y-33238095D01*
X88832438Y-33238095D02*
X88880057Y-33190476D01*
X88880057Y-33190476D02*
X88975295Y-33142857D01*
X88975295Y-33142857D02*
X89118152Y-33142857D01*
X89118152Y-33142857D02*
X89213390Y-33190476D01*
X89213390Y-33190476D02*
X89261009Y-33238095D01*
X89261009Y-33238095D02*
X89308628Y-33333333D01*
X89308628Y-33333333D02*
X89308628Y-33714285D01*
X89784819Y-32190476D02*
X89784819Y-32761904D01*
X89784819Y-32476190D02*
X88784819Y-32476190D01*
X88784819Y-32476190D02*
X88927676Y-32571428D01*
X88927676Y-32571428D02*
X89022914Y-32666666D01*
X89022914Y-32666666D02*
X89070533Y-32761904D01*
X89784819Y-31238095D02*
X89784819Y-31809523D01*
X89784819Y-31523809D02*
X88784819Y-31523809D01*
X88784819Y-31523809D02*
X88927676Y-31619047D01*
X88927676Y-31619047D02*
X89022914Y-31714285D01*
X89022914Y-31714285D02*
X89070533Y-31809523D01*
X72206667Y-24407200D02*
X72349524Y-24454819D01*
X72349524Y-24454819D02*
X72587619Y-24454819D01*
X72587619Y-24454819D02*
X72682857Y-24407200D01*
X72682857Y-24407200D02*
X72730476Y-24359580D01*
X72730476Y-24359580D02*
X72778095Y-24264342D01*
X72778095Y-24264342D02*
X72778095Y-24169104D01*
X72778095Y-24169104D02*
X72730476Y-24073866D01*
X72730476Y-24073866D02*
X72682857Y-24026247D01*
X72682857Y-24026247D02*
X72587619Y-23978628D01*
X72587619Y-23978628D02*
X72397143Y-23931009D01*
X72397143Y-23931009D02*
X72301905Y-23883390D01*
X72301905Y-23883390D02*
X72254286Y-23835771D01*
X72254286Y-23835771D02*
X72206667Y-23740533D01*
X72206667Y-23740533D02*
X72206667Y-23645295D01*
X72206667Y-23645295D02*
X72254286Y-23550057D01*
X72254286Y-23550057D02*
X72301905Y-23502438D01*
X72301905Y-23502438D02*
X72397143Y-23454819D01*
X72397143Y-23454819D02*
X72635238Y-23454819D01*
X72635238Y-23454819D02*
X72778095Y-23502438D01*
X73111429Y-23454819D02*
X73349524Y-24454819D01*
X73349524Y-24454819D02*
X73540000Y-23740533D01*
X73540000Y-23740533D02*
X73730476Y-24454819D01*
X73730476Y-24454819D02*
X73968572Y-23454819D01*
X74873333Y-24454819D02*
X74301905Y-24454819D01*
X74587619Y-24454819D02*
X74587619Y-23454819D01*
X74587619Y-23454819D02*
X74492381Y-23597676D01*
X74492381Y-23597676D02*
X74397143Y-23692914D01*
X74397143Y-23692914D02*
X74301905Y-23740533D01*
X183166667Y-195304819D02*
X183166667Y-194304819D01*
X183166667Y-194304819D02*
X183500000Y-195019104D01*
X183500000Y-195019104D02*
X183833333Y-194304819D01*
X183833333Y-194304819D02*
X183833333Y-195304819D01*
X184309524Y-195304819D02*
X184309524Y-194304819D01*
X184309524Y-194781009D02*
X184880952Y-194781009D01*
X184880952Y-195304819D02*
X184880952Y-194304819D01*
X185785714Y-194638152D02*
X185785714Y-195304819D01*
X185547619Y-194257200D02*
X185309524Y-194971485D01*
X185309524Y-194971485D02*
X185928571Y-194971485D01*
X183666667Y-22304819D02*
X183666667Y-21304819D01*
X183666667Y-21304819D02*
X184000000Y-22019104D01*
X184000000Y-22019104D02*
X184333333Y-21304819D01*
X184333333Y-21304819D02*
X184333333Y-22304819D01*
X184809524Y-22304819D02*
X184809524Y-21304819D01*
X184809524Y-21781009D02*
X185380952Y-21781009D01*
X185380952Y-22304819D02*
X185380952Y-21304819D01*
X185761905Y-21304819D02*
X186380952Y-21304819D01*
X186380952Y-21304819D02*
X186047619Y-21685771D01*
X186047619Y-21685771D02*
X186190476Y-21685771D01*
X186190476Y-21685771D02*
X186285714Y-21733390D01*
X186285714Y-21733390D02*
X186333333Y-21781009D01*
X186333333Y-21781009D02*
X186380952Y-21876247D01*
X186380952Y-21876247D02*
X186380952Y-22114342D01*
X186380952Y-22114342D02*
X186333333Y-22209580D01*
X186333333Y-22209580D02*
X186285714Y-22257200D01*
X186285714Y-22257200D02*
X186190476Y-22304819D01*
X186190476Y-22304819D02*
X185904762Y-22304819D01*
X185904762Y-22304819D02*
X185809524Y-22257200D01*
X185809524Y-22257200D02*
X185761905Y-22209580D01*
X193345237Y-28959580D02*
X193297618Y-29007200D01*
X193297618Y-29007200D02*
X193154761Y-29054819D01*
X193154761Y-29054819D02*
X193059523Y-29054819D01*
X193059523Y-29054819D02*
X192916666Y-29007200D01*
X192916666Y-29007200D02*
X192821428Y-28911961D01*
X192821428Y-28911961D02*
X192773809Y-28816723D01*
X192773809Y-28816723D02*
X192726190Y-28626247D01*
X192726190Y-28626247D02*
X192726190Y-28483390D01*
X192726190Y-28483390D02*
X192773809Y-28292914D01*
X192773809Y-28292914D02*
X192821428Y-28197676D01*
X192821428Y-28197676D02*
X192916666Y-28102438D01*
X192916666Y-28102438D02*
X193059523Y-28054819D01*
X193059523Y-28054819D02*
X193154761Y-28054819D01*
X193154761Y-28054819D02*
X193297618Y-28102438D01*
X193297618Y-28102438D02*
X193345237Y-28150057D01*
X193916666Y-29054819D02*
X193821428Y-29007200D01*
X193821428Y-29007200D02*
X193773809Y-28959580D01*
X193773809Y-28959580D02*
X193726190Y-28864342D01*
X193726190Y-28864342D02*
X193726190Y-28578628D01*
X193726190Y-28578628D02*
X193773809Y-28483390D01*
X193773809Y-28483390D02*
X193821428Y-28435771D01*
X193821428Y-28435771D02*
X193916666Y-28388152D01*
X193916666Y-28388152D02*
X194059523Y-28388152D01*
X194059523Y-28388152D02*
X194154761Y-28435771D01*
X194154761Y-28435771D02*
X194202380Y-28483390D01*
X194202380Y-28483390D02*
X194249999Y-28578628D01*
X194249999Y-28578628D02*
X194249999Y-28864342D01*
X194249999Y-28864342D02*
X194202380Y-28959580D01*
X194202380Y-28959580D02*
X194154761Y-29007200D01*
X194154761Y-29007200D02*
X194059523Y-29054819D01*
X194059523Y-29054819D02*
X193916666Y-29054819D01*
X194678571Y-28388152D02*
X194678571Y-29054819D01*
X194678571Y-28483390D02*
X194726190Y-28435771D01*
X194726190Y-28435771D02*
X194821428Y-28388152D01*
X194821428Y-28388152D02*
X194964285Y-28388152D01*
X194964285Y-28388152D02*
X195059523Y-28435771D01*
X195059523Y-28435771D02*
X195107142Y-28531009D01*
X195107142Y-28531009D02*
X195107142Y-29054819D01*
X195440476Y-28388152D02*
X195821428Y-28388152D01*
X195583333Y-28054819D02*
X195583333Y-28911961D01*
X195583333Y-28911961D02*
X195630952Y-29007200D01*
X195630952Y-29007200D02*
X195726190Y-29054819D01*
X195726190Y-29054819D02*
X195821428Y-29054819D01*
X196154762Y-29054819D02*
X196154762Y-28388152D01*
X196154762Y-28578628D02*
X196202381Y-28483390D01*
X196202381Y-28483390D02*
X196250000Y-28435771D01*
X196250000Y-28435771D02*
X196345238Y-28388152D01*
X196345238Y-28388152D02*
X196440476Y-28388152D01*
X196916667Y-29054819D02*
X196821429Y-29007200D01*
X196821429Y-29007200D02*
X196773810Y-28959580D01*
X196773810Y-28959580D02*
X196726191Y-28864342D01*
X196726191Y-28864342D02*
X196726191Y-28578628D01*
X196726191Y-28578628D02*
X196773810Y-28483390D01*
X196773810Y-28483390D02*
X196821429Y-28435771D01*
X196821429Y-28435771D02*
X196916667Y-28388152D01*
X196916667Y-28388152D02*
X197059524Y-28388152D01*
X197059524Y-28388152D02*
X197154762Y-28435771D01*
X197154762Y-28435771D02*
X197202381Y-28483390D01*
X197202381Y-28483390D02*
X197250000Y-28578628D01*
X197250000Y-28578628D02*
X197250000Y-28864342D01*
X197250000Y-28864342D02*
X197202381Y-28959580D01*
X197202381Y-28959580D02*
X197154762Y-29007200D01*
X197154762Y-29007200D02*
X197059524Y-29054819D01*
X197059524Y-29054819D02*
X196916667Y-29054819D01*
X197821429Y-29054819D02*
X197726191Y-29007200D01*
X197726191Y-29007200D02*
X197678572Y-28911961D01*
X197678572Y-28911961D02*
X197678572Y-28054819D01*
X147284819Y-34642857D02*
X146808628Y-34976190D01*
X147284819Y-35214285D02*
X146284819Y-35214285D01*
X146284819Y-35214285D02*
X146284819Y-34833333D01*
X146284819Y-34833333D02*
X146332438Y-34738095D01*
X146332438Y-34738095D02*
X146380057Y-34690476D01*
X146380057Y-34690476D02*
X146475295Y-34642857D01*
X146475295Y-34642857D02*
X146618152Y-34642857D01*
X146618152Y-34642857D02*
X146713390Y-34690476D01*
X146713390Y-34690476D02*
X146761009Y-34738095D01*
X146761009Y-34738095D02*
X146808628Y-34833333D01*
X146808628Y-34833333D02*
X146808628Y-35214285D01*
X147284819Y-33690476D02*
X147284819Y-34261904D01*
X147284819Y-33976190D02*
X146284819Y-33976190D01*
X146284819Y-33976190D02*
X146427676Y-34071428D01*
X146427676Y-34071428D02*
X146522914Y-34166666D01*
X146522914Y-34166666D02*
X146570533Y-34261904D01*
X146380057Y-33309523D02*
X146332438Y-33261904D01*
X146332438Y-33261904D02*
X146284819Y-33166666D01*
X146284819Y-33166666D02*
X146284819Y-32928571D01*
X146284819Y-32928571D02*
X146332438Y-32833333D01*
X146332438Y-32833333D02*
X146380057Y-32785714D01*
X146380057Y-32785714D02*
X146475295Y-32738095D01*
X146475295Y-32738095D02*
X146570533Y-32738095D01*
X146570533Y-32738095D02*
X146713390Y-32785714D01*
X146713390Y-32785714D02*
X147284819Y-33357142D01*
X147284819Y-33357142D02*
X147284819Y-32738095D01*
X177974279Y-71569819D02*
X177974279Y-70903152D01*
X177974279Y-71093628D02*
X178021898Y-70998390D01*
X178021898Y-70998390D02*
X178069517Y-70950771D01*
X178069517Y-70950771D02*
X178164755Y-70903152D01*
X178164755Y-70903152D02*
X178259993Y-70903152D01*
X178593327Y-71569819D02*
X178593327Y-70569819D01*
X178593327Y-70569819D02*
X178974279Y-70569819D01*
X178974279Y-70569819D02*
X179069517Y-70617438D01*
X179069517Y-70617438D02*
X179117136Y-70665057D01*
X179117136Y-70665057D02*
X179164755Y-70760295D01*
X179164755Y-70760295D02*
X179164755Y-70903152D01*
X179164755Y-70903152D02*
X179117136Y-70998390D01*
X179117136Y-70998390D02*
X179069517Y-71046009D01*
X179069517Y-71046009D02*
X178974279Y-71093628D01*
X178974279Y-71093628D02*
X178593327Y-71093628D01*
X179593327Y-71569819D02*
X179593327Y-70903152D01*
X179593327Y-70569819D02*
X179545708Y-70617438D01*
X179545708Y-70617438D02*
X179593327Y-70665057D01*
X179593327Y-70665057D02*
X179640946Y-70617438D01*
X179640946Y-70617438D02*
X179593327Y-70569819D01*
X179593327Y-70569819D02*
X179593327Y-70665057D01*
X180593326Y-71569819D02*
X180021898Y-71569819D01*
X180307612Y-71569819D02*
X180307612Y-70569819D01*
X180307612Y-70569819D02*
X180212374Y-70712676D01*
X180212374Y-70712676D02*
X180117136Y-70807914D01*
X180117136Y-70807914D02*
X180021898Y-70855533D01*
X137304819Y-148714285D02*
X136304819Y-148714285D01*
X136304819Y-148714285D02*
X136304819Y-148476190D01*
X136304819Y-148476190D02*
X136352438Y-148333333D01*
X136352438Y-148333333D02*
X136447676Y-148238095D01*
X136447676Y-148238095D02*
X136542914Y-148190476D01*
X136542914Y-148190476D02*
X136733390Y-148142857D01*
X136733390Y-148142857D02*
X136876247Y-148142857D01*
X136876247Y-148142857D02*
X137066723Y-148190476D01*
X137066723Y-148190476D02*
X137161961Y-148238095D01*
X137161961Y-148238095D02*
X137257200Y-148333333D01*
X137257200Y-148333333D02*
X137304819Y-148476190D01*
X137304819Y-148476190D02*
X137304819Y-148714285D01*
X137304819Y-147190476D02*
X137304819Y-147761904D01*
X137304819Y-147476190D02*
X136304819Y-147476190D01*
X136304819Y-147476190D02*
X136447676Y-147571428D01*
X136447676Y-147571428D02*
X136542914Y-147666666D01*
X136542914Y-147666666D02*
X136590533Y-147761904D01*
X136304819Y-146571428D02*
X136304819Y-146476190D01*
X136304819Y-146476190D02*
X136352438Y-146380952D01*
X136352438Y-146380952D02*
X136400057Y-146333333D01*
X136400057Y-146333333D02*
X136495295Y-146285714D01*
X136495295Y-146285714D02*
X136685771Y-146238095D01*
X136685771Y-146238095D02*
X136923866Y-146238095D01*
X136923866Y-146238095D02*
X137114342Y-146285714D01*
X137114342Y-146285714D02*
X137209580Y-146333333D01*
X137209580Y-146333333D02*
X137257200Y-146380952D01*
X137257200Y-146380952D02*
X137304819Y-146476190D01*
X137304819Y-146476190D02*
X137304819Y-146571428D01*
X137304819Y-146571428D02*
X137257200Y-146666666D01*
X137257200Y-146666666D02*
X137209580Y-146714285D01*
X137209580Y-146714285D02*
X137114342Y-146761904D01*
X137114342Y-146761904D02*
X136923866Y-146809523D01*
X136923866Y-146809523D02*
X136685771Y-146809523D01*
X136685771Y-146809523D02*
X136495295Y-146761904D01*
X136495295Y-146761904D02*
X136400057Y-146714285D01*
X136400057Y-146714285D02*
X136352438Y-146666666D01*
X136352438Y-146666666D02*
X136304819Y-146571428D01*
X192738095Y-91564819D02*
X193309523Y-91564819D01*
X193023809Y-92564819D02*
X193023809Y-91564819D01*
X193976190Y-92041009D02*
X194119047Y-92088628D01*
X194119047Y-92088628D02*
X194166666Y-92136247D01*
X194166666Y-92136247D02*
X194214285Y-92231485D01*
X194214285Y-92231485D02*
X194214285Y-92374342D01*
X194214285Y-92374342D02*
X194166666Y-92469580D01*
X194166666Y-92469580D02*
X194119047Y-92517200D01*
X194119047Y-92517200D02*
X194023809Y-92564819D01*
X194023809Y-92564819D02*
X193642857Y-92564819D01*
X193642857Y-92564819D02*
X193642857Y-91564819D01*
X193642857Y-91564819D02*
X193976190Y-91564819D01*
X193976190Y-91564819D02*
X194071428Y-91612438D01*
X194071428Y-91612438D02*
X194119047Y-91660057D01*
X194119047Y-91660057D02*
X194166666Y-91755295D01*
X194166666Y-91755295D02*
X194166666Y-91850533D01*
X194166666Y-91850533D02*
X194119047Y-91945771D01*
X194119047Y-91945771D02*
X194071428Y-91993390D01*
X194071428Y-91993390D02*
X193976190Y-92041009D01*
X193976190Y-92041009D02*
X193642857Y-92041009D01*
X195166666Y-92564819D02*
X194595238Y-92564819D01*
X194880952Y-92564819D02*
X194880952Y-91564819D01*
X194880952Y-91564819D02*
X194785714Y-91707676D01*
X194785714Y-91707676D02*
X194690476Y-91802914D01*
X194690476Y-91802914D02*
X194595238Y-91850533D01*
X116509580Y-74642857D02*
X116557200Y-74690476D01*
X116557200Y-74690476D02*
X116604819Y-74833333D01*
X116604819Y-74833333D02*
X116604819Y-74928571D01*
X116604819Y-74928571D02*
X116557200Y-75071428D01*
X116557200Y-75071428D02*
X116461961Y-75166666D01*
X116461961Y-75166666D02*
X116366723Y-75214285D01*
X116366723Y-75214285D02*
X116176247Y-75261904D01*
X116176247Y-75261904D02*
X116033390Y-75261904D01*
X116033390Y-75261904D02*
X115842914Y-75214285D01*
X115842914Y-75214285D02*
X115747676Y-75166666D01*
X115747676Y-75166666D02*
X115652438Y-75071428D01*
X115652438Y-75071428D02*
X115604819Y-74928571D01*
X115604819Y-74928571D02*
X115604819Y-74833333D01*
X115604819Y-74833333D02*
X115652438Y-74690476D01*
X115652438Y-74690476D02*
X115700057Y-74642857D01*
X116604819Y-73690476D02*
X116604819Y-74261904D01*
X116604819Y-73976190D02*
X115604819Y-73976190D01*
X115604819Y-73976190D02*
X115747676Y-74071428D01*
X115747676Y-74071428D02*
X115842914Y-74166666D01*
X115842914Y-74166666D02*
X115890533Y-74261904D01*
X115604819Y-73357142D02*
X115604819Y-72690476D01*
X115604819Y-72690476D02*
X116604819Y-73119047D01*
X153869642Y-131124819D02*
X153536309Y-130648628D01*
X153298214Y-131124819D02*
X153298214Y-130124819D01*
X153298214Y-130124819D02*
X153679166Y-130124819D01*
X153679166Y-130124819D02*
X153774404Y-130172438D01*
X153774404Y-130172438D02*
X153822023Y-130220057D01*
X153822023Y-130220057D02*
X153869642Y-130315295D01*
X153869642Y-130315295D02*
X153869642Y-130458152D01*
X153869642Y-130458152D02*
X153822023Y-130553390D01*
X153822023Y-130553390D02*
X153774404Y-130601009D01*
X153774404Y-130601009D02*
X153679166Y-130648628D01*
X153679166Y-130648628D02*
X153298214Y-130648628D01*
X154822023Y-131124819D02*
X154250595Y-131124819D01*
X154536309Y-131124819D02*
X154536309Y-130124819D01*
X154536309Y-130124819D02*
X154441071Y-130267676D01*
X154441071Y-130267676D02*
X154345833Y-130362914D01*
X154345833Y-130362914D02*
X154250595Y-130410533D01*
X155155357Y-130124819D02*
X155822023Y-130124819D01*
X155822023Y-130124819D02*
X155393452Y-131124819D01*
X172238095Y-157054819D02*
X172238095Y-157864342D01*
X172238095Y-157864342D02*
X172285714Y-157959580D01*
X172285714Y-157959580D02*
X172333333Y-158007200D01*
X172333333Y-158007200D02*
X172428571Y-158054819D01*
X172428571Y-158054819D02*
X172619047Y-158054819D01*
X172619047Y-158054819D02*
X172714285Y-158007200D01*
X172714285Y-158007200D02*
X172761904Y-157959580D01*
X172761904Y-157959580D02*
X172809523Y-157864342D01*
X172809523Y-157864342D02*
X172809523Y-157054819D01*
X173809523Y-158054819D02*
X173238095Y-158054819D01*
X173523809Y-158054819D02*
X173523809Y-157054819D01*
X173523809Y-157054819D02*
X173428571Y-157197676D01*
X173428571Y-157197676D02*
X173333333Y-157292914D01*
X173333333Y-157292914D02*
X173238095Y-157340533D01*
X79357142Y-47709580D02*
X79309523Y-47757200D01*
X79309523Y-47757200D02*
X79166666Y-47804819D01*
X79166666Y-47804819D02*
X79071428Y-47804819D01*
X79071428Y-47804819D02*
X78928571Y-47757200D01*
X78928571Y-47757200D02*
X78833333Y-47661961D01*
X78833333Y-47661961D02*
X78785714Y-47566723D01*
X78785714Y-47566723D02*
X78738095Y-47376247D01*
X78738095Y-47376247D02*
X78738095Y-47233390D01*
X78738095Y-47233390D02*
X78785714Y-47042914D01*
X78785714Y-47042914D02*
X78833333Y-46947676D01*
X78833333Y-46947676D02*
X78928571Y-46852438D01*
X78928571Y-46852438D02*
X79071428Y-46804819D01*
X79071428Y-46804819D02*
X79166666Y-46804819D01*
X79166666Y-46804819D02*
X79309523Y-46852438D01*
X79309523Y-46852438D02*
X79357142Y-46900057D01*
X80309523Y-47804819D02*
X79738095Y-47804819D01*
X80023809Y-47804819D02*
X80023809Y-46804819D01*
X80023809Y-46804819D02*
X79928571Y-46947676D01*
X79928571Y-46947676D02*
X79833333Y-47042914D01*
X79833333Y-47042914D02*
X79738095Y-47090533D01*
X80928571Y-46804819D02*
X81023809Y-46804819D01*
X81023809Y-46804819D02*
X81119047Y-46852438D01*
X81119047Y-46852438D02*
X81166666Y-46900057D01*
X81166666Y-46900057D02*
X81214285Y-46995295D01*
X81214285Y-46995295D02*
X81261904Y-47185771D01*
X81261904Y-47185771D02*
X81261904Y-47423866D01*
X81261904Y-47423866D02*
X81214285Y-47614342D01*
X81214285Y-47614342D02*
X81166666Y-47709580D01*
X81166666Y-47709580D02*
X81119047Y-47757200D01*
X81119047Y-47757200D02*
X81023809Y-47804819D01*
X81023809Y-47804819D02*
X80928571Y-47804819D01*
X80928571Y-47804819D02*
X80833333Y-47757200D01*
X80833333Y-47757200D02*
X80785714Y-47709580D01*
X80785714Y-47709580D02*
X80738095Y-47614342D01*
X80738095Y-47614342D02*
X80690476Y-47423866D01*
X80690476Y-47423866D02*
X80690476Y-47185771D01*
X80690476Y-47185771D02*
X80738095Y-46995295D01*
X80738095Y-46995295D02*
X80785714Y-46900057D01*
X80785714Y-46900057D02*
X80833333Y-46852438D01*
X80833333Y-46852438D02*
X80928571Y-46804819D01*
X188666667Y-40729819D02*
X188666667Y-40063152D01*
X188666667Y-39729819D02*
X188619048Y-39777438D01*
X188619048Y-39777438D02*
X188666667Y-39825057D01*
X188666667Y-39825057D02*
X188714286Y-39777438D01*
X188714286Y-39777438D02*
X188666667Y-39729819D01*
X188666667Y-39729819D02*
X188666667Y-39825057D01*
X189095238Y-39825057D02*
X189142857Y-39777438D01*
X189142857Y-39777438D02*
X189238095Y-39729819D01*
X189238095Y-39729819D02*
X189476190Y-39729819D01*
X189476190Y-39729819D02*
X189571428Y-39777438D01*
X189571428Y-39777438D02*
X189619047Y-39825057D01*
X189619047Y-39825057D02*
X189666666Y-39920295D01*
X189666666Y-39920295D02*
X189666666Y-40015533D01*
X189666666Y-40015533D02*
X189619047Y-40158390D01*
X189619047Y-40158390D02*
X189047619Y-40729819D01*
X189047619Y-40729819D02*
X189666666Y-40729819D01*
X190047619Y-40682200D02*
X190190476Y-40729819D01*
X190190476Y-40729819D02*
X190428571Y-40729819D01*
X190428571Y-40729819D02*
X190523809Y-40682200D01*
X190523809Y-40682200D02*
X190571428Y-40634580D01*
X190571428Y-40634580D02*
X190619047Y-40539342D01*
X190619047Y-40539342D02*
X190619047Y-40444104D01*
X190619047Y-40444104D02*
X190571428Y-40348866D01*
X190571428Y-40348866D02*
X190523809Y-40301247D01*
X190523809Y-40301247D02*
X190428571Y-40253628D01*
X190428571Y-40253628D02*
X190238095Y-40206009D01*
X190238095Y-40206009D02*
X190142857Y-40158390D01*
X190142857Y-40158390D02*
X190095238Y-40110771D01*
X190095238Y-40110771D02*
X190047619Y-40015533D01*
X190047619Y-40015533D02*
X190047619Y-39920295D01*
X190047619Y-39920295D02*
X190095238Y-39825057D01*
X190095238Y-39825057D02*
X190142857Y-39777438D01*
X190142857Y-39777438D02*
X190238095Y-39729819D01*
X190238095Y-39729819D02*
X190476190Y-39729819D01*
X190476190Y-39729819D02*
X190619047Y-39777438D01*
X190809524Y-40825057D02*
X191571428Y-40825057D01*
X191761905Y-40444104D02*
X192238095Y-40444104D01*
X191666667Y-40729819D02*
X192000000Y-39729819D01*
X192000000Y-39729819D02*
X192333333Y-40729819D01*
X193095238Y-40063152D02*
X193095238Y-40729819D01*
X192666667Y-40063152D02*
X192666667Y-40586961D01*
X192666667Y-40586961D02*
X192714286Y-40682200D01*
X192714286Y-40682200D02*
X192809524Y-40729819D01*
X192809524Y-40729819D02*
X192952381Y-40729819D01*
X192952381Y-40729819D02*
X193047619Y-40682200D01*
X193047619Y-40682200D02*
X193095238Y-40634580D01*
X194000000Y-40729819D02*
X194000000Y-39729819D01*
X194000000Y-40682200D02*
X193904762Y-40729819D01*
X193904762Y-40729819D02*
X193714286Y-40729819D01*
X193714286Y-40729819D02*
X193619048Y-40682200D01*
X193619048Y-40682200D02*
X193571429Y-40634580D01*
X193571429Y-40634580D02*
X193523810Y-40539342D01*
X193523810Y-40539342D02*
X193523810Y-40253628D01*
X193523810Y-40253628D02*
X193571429Y-40158390D01*
X193571429Y-40158390D02*
X193619048Y-40110771D01*
X193619048Y-40110771D02*
X193714286Y-40063152D01*
X193714286Y-40063152D02*
X193904762Y-40063152D01*
X193904762Y-40063152D02*
X194000000Y-40110771D01*
X194476191Y-40729819D02*
X194476191Y-40063152D01*
X194476191Y-39729819D02*
X194428572Y-39777438D01*
X194428572Y-39777438D02*
X194476191Y-39825057D01*
X194476191Y-39825057D02*
X194523810Y-39777438D01*
X194523810Y-39777438D02*
X194476191Y-39729819D01*
X194476191Y-39729819D02*
X194476191Y-39825057D01*
X195095238Y-40729819D02*
X195000000Y-40682200D01*
X195000000Y-40682200D02*
X194952381Y-40634580D01*
X194952381Y-40634580D02*
X194904762Y-40539342D01*
X194904762Y-40539342D02*
X194904762Y-40253628D01*
X194904762Y-40253628D02*
X194952381Y-40158390D01*
X194952381Y-40158390D02*
X195000000Y-40110771D01*
X195000000Y-40110771D02*
X195095238Y-40063152D01*
X195095238Y-40063152D02*
X195238095Y-40063152D01*
X195238095Y-40063152D02*
X195333333Y-40110771D01*
X195333333Y-40110771D02*
X195380952Y-40158390D01*
X195380952Y-40158390D02*
X195428571Y-40253628D01*
X195428571Y-40253628D02*
X195428571Y-40539342D01*
X195428571Y-40539342D02*
X195380952Y-40634580D01*
X195380952Y-40634580D02*
X195333333Y-40682200D01*
X195333333Y-40682200D02*
X195238095Y-40729819D01*
X195238095Y-40729819D02*
X195095238Y-40729819D01*
X196380952Y-40729819D02*
X195809524Y-40729819D01*
X196095238Y-40729819D02*
X196095238Y-39729819D01*
X196095238Y-39729819D02*
X196000000Y-39872676D01*
X196000000Y-39872676D02*
X195904762Y-39967914D01*
X195904762Y-39967914D02*
X195809524Y-40015533D01*
X147357142Y-123509580D02*
X147309523Y-123557200D01*
X147309523Y-123557200D02*
X147166666Y-123604819D01*
X147166666Y-123604819D02*
X147071428Y-123604819D01*
X147071428Y-123604819D02*
X146928571Y-123557200D01*
X146928571Y-123557200D02*
X146833333Y-123461961D01*
X146833333Y-123461961D02*
X146785714Y-123366723D01*
X146785714Y-123366723D02*
X146738095Y-123176247D01*
X146738095Y-123176247D02*
X146738095Y-123033390D01*
X146738095Y-123033390D02*
X146785714Y-122842914D01*
X146785714Y-122842914D02*
X146833333Y-122747676D01*
X146833333Y-122747676D02*
X146928571Y-122652438D01*
X146928571Y-122652438D02*
X147071428Y-122604819D01*
X147071428Y-122604819D02*
X147166666Y-122604819D01*
X147166666Y-122604819D02*
X147309523Y-122652438D01*
X147309523Y-122652438D02*
X147357142Y-122700057D01*
X148309523Y-123604819D02*
X147738095Y-123604819D01*
X148023809Y-123604819D02*
X148023809Y-122604819D01*
X148023809Y-122604819D02*
X147928571Y-122747676D01*
X147928571Y-122747676D02*
X147833333Y-122842914D01*
X147833333Y-122842914D02*
X147738095Y-122890533D01*
X148785714Y-123604819D02*
X148976190Y-123604819D01*
X148976190Y-123604819D02*
X149071428Y-123557200D01*
X149071428Y-123557200D02*
X149119047Y-123509580D01*
X149119047Y-123509580D02*
X149214285Y-123366723D01*
X149214285Y-123366723D02*
X149261904Y-123176247D01*
X149261904Y-123176247D02*
X149261904Y-122795295D01*
X149261904Y-122795295D02*
X149214285Y-122700057D01*
X149214285Y-122700057D02*
X149166666Y-122652438D01*
X149166666Y-122652438D02*
X149071428Y-122604819D01*
X149071428Y-122604819D02*
X148880952Y-122604819D01*
X148880952Y-122604819D02*
X148785714Y-122652438D01*
X148785714Y-122652438D02*
X148738095Y-122700057D01*
X148738095Y-122700057D02*
X148690476Y-122795295D01*
X148690476Y-122795295D02*
X148690476Y-123033390D01*
X148690476Y-123033390D02*
X148738095Y-123128628D01*
X148738095Y-123128628D02*
X148785714Y-123176247D01*
X148785714Y-123176247D02*
X148880952Y-123223866D01*
X148880952Y-123223866D02*
X149071428Y-123223866D01*
X149071428Y-123223866D02*
X149166666Y-123176247D01*
X149166666Y-123176247D02*
X149214285Y-123128628D01*
X149214285Y-123128628D02*
X149261904Y-123033390D01*
X135357142Y-32509580D02*
X135309523Y-32557200D01*
X135309523Y-32557200D02*
X135166666Y-32604819D01*
X135166666Y-32604819D02*
X135071428Y-32604819D01*
X135071428Y-32604819D02*
X134928571Y-32557200D01*
X134928571Y-32557200D02*
X134833333Y-32461961D01*
X134833333Y-32461961D02*
X134785714Y-32366723D01*
X134785714Y-32366723D02*
X134738095Y-32176247D01*
X134738095Y-32176247D02*
X134738095Y-32033390D01*
X134738095Y-32033390D02*
X134785714Y-31842914D01*
X134785714Y-31842914D02*
X134833333Y-31747676D01*
X134833333Y-31747676D02*
X134928571Y-31652438D01*
X134928571Y-31652438D02*
X135071428Y-31604819D01*
X135071428Y-31604819D02*
X135166666Y-31604819D01*
X135166666Y-31604819D02*
X135309523Y-31652438D01*
X135309523Y-31652438D02*
X135357142Y-31700057D01*
X136309523Y-32604819D02*
X135738095Y-32604819D01*
X136023809Y-32604819D02*
X136023809Y-31604819D01*
X136023809Y-31604819D02*
X135928571Y-31747676D01*
X135928571Y-31747676D02*
X135833333Y-31842914D01*
X135833333Y-31842914D02*
X135738095Y-31890533D01*
X136880952Y-32033390D02*
X136785714Y-31985771D01*
X136785714Y-31985771D02*
X136738095Y-31938152D01*
X136738095Y-31938152D02*
X136690476Y-31842914D01*
X136690476Y-31842914D02*
X136690476Y-31795295D01*
X136690476Y-31795295D02*
X136738095Y-31700057D01*
X136738095Y-31700057D02*
X136785714Y-31652438D01*
X136785714Y-31652438D02*
X136880952Y-31604819D01*
X136880952Y-31604819D02*
X137071428Y-31604819D01*
X137071428Y-31604819D02*
X137166666Y-31652438D01*
X137166666Y-31652438D02*
X137214285Y-31700057D01*
X137214285Y-31700057D02*
X137261904Y-31795295D01*
X137261904Y-31795295D02*
X137261904Y-31842914D01*
X137261904Y-31842914D02*
X137214285Y-31938152D01*
X137214285Y-31938152D02*
X137166666Y-31985771D01*
X137166666Y-31985771D02*
X137071428Y-32033390D01*
X137071428Y-32033390D02*
X136880952Y-32033390D01*
X136880952Y-32033390D02*
X136785714Y-32081009D01*
X136785714Y-32081009D02*
X136738095Y-32128628D01*
X136738095Y-32128628D02*
X136690476Y-32223866D01*
X136690476Y-32223866D02*
X136690476Y-32414342D01*
X136690476Y-32414342D02*
X136738095Y-32509580D01*
X136738095Y-32509580D02*
X136785714Y-32557200D01*
X136785714Y-32557200D02*
X136880952Y-32604819D01*
X136880952Y-32604819D02*
X137071428Y-32604819D01*
X137071428Y-32604819D02*
X137166666Y-32557200D01*
X137166666Y-32557200D02*
X137214285Y-32509580D01*
X137214285Y-32509580D02*
X137261904Y-32414342D01*
X137261904Y-32414342D02*
X137261904Y-32223866D01*
X137261904Y-32223866D02*
X137214285Y-32128628D01*
X137214285Y-32128628D02*
X137166666Y-32081009D01*
X137166666Y-32081009D02*
X137071428Y-32033390D01*
X182494642Y-41009580D02*
X182447023Y-41057200D01*
X182447023Y-41057200D02*
X182304166Y-41104819D01*
X182304166Y-41104819D02*
X182208928Y-41104819D01*
X182208928Y-41104819D02*
X182066071Y-41057200D01*
X182066071Y-41057200D02*
X181970833Y-40961961D01*
X181970833Y-40961961D02*
X181923214Y-40866723D01*
X181923214Y-40866723D02*
X181875595Y-40676247D01*
X181875595Y-40676247D02*
X181875595Y-40533390D01*
X181875595Y-40533390D02*
X181923214Y-40342914D01*
X181923214Y-40342914D02*
X181970833Y-40247676D01*
X181970833Y-40247676D02*
X182066071Y-40152438D01*
X182066071Y-40152438D02*
X182208928Y-40104819D01*
X182208928Y-40104819D02*
X182304166Y-40104819D01*
X182304166Y-40104819D02*
X182447023Y-40152438D01*
X182447023Y-40152438D02*
X182494642Y-40200057D01*
X183447023Y-41104819D02*
X182875595Y-41104819D01*
X183161309Y-41104819D02*
X183161309Y-40104819D01*
X183161309Y-40104819D02*
X183066071Y-40247676D01*
X183066071Y-40247676D02*
X182970833Y-40342914D01*
X182970833Y-40342914D02*
X182875595Y-40390533D01*
X184399404Y-41104819D02*
X183827976Y-41104819D01*
X184113690Y-41104819D02*
X184113690Y-40104819D01*
X184113690Y-40104819D02*
X184018452Y-40247676D01*
X184018452Y-40247676D02*
X183923214Y-40342914D01*
X183923214Y-40342914D02*
X183827976Y-40390533D01*
X174209580Y-93166666D02*
X174257200Y-93214285D01*
X174257200Y-93214285D02*
X174304819Y-93357142D01*
X174304819Y-93357142D02*
X174304819Y-93452380D01*
X174304819Y-93452380D02*
X174257200Y-93595237D01*
X174257200Y-93595237D02*
X174161961Y-93690475D01*
X174161961Y-93690475D02*
X174066723Y-93738094D01*
X174066723Y-93738094D02*
X173876247Y-93785713D01*
X173876247Y-93785713D02*
X173733390Y-93785713D01*
X173733390Y-93785713D02*
X173542914Y-93738094D01*
X173542914Y-93738094D02*
X173447676Y-93690475D01*
X173447676Y-93690475D02*
X173352438Y-93595237D01*
X173352438Y-93595237D02*
X173304819Y-93452380D01*
X173304819Y-93452380D02*
X173304819Y-93357142D01*
X173304819Y-93357142D02*
X173352438Y-93214285D01*
X173352438Y-93214285D02*
X173400057Y-93166666D01*
X174304819Y-92214285D02*
X174304819Y-92785713D01*
X174304819Y-92499999D02*
X173304819Y-92499999D01*
X173304819Y-92499999D02*
X173447676Y-92595237D01*
X173447676Y-92595237D02*
X173542914Y-92690475D01*
X173542914Y-92690475D02*
X173590533Y-92785713D01*
X76124819Y-33142857D02*
X75648628Y-33476190D01*
X76124819Y-33714285D02*
X75124819Y-33714285D01*
X75124819Y-33714285D02*
X75124819Y-33333333D01*
X75124819Y-33333333D02*
X75172438Y-33238095D01*
X75172438Y-33238095D02*
X75220057Y-33190476D01*
X75220057Y-33190476D02*
X75315295Y-33142857D01*
X75315295Y-33142857D02*
X75458152Y-33142857D01*
X75458152Y-33142857D02*
X75553390Y-33190476D01*
X75553390Y-33190476D02*
X75601009Y-33238095D01*
X75601009Y-33238095D02*
X75648628Y-33333333D01*
X75648628Y-33333333D02*
X75648628Y-33714285D01*
X76124819Y-32190476D02*
X76124819Y-32761904D01*
X76124819Y-32476190D02*
X75124819Y-32476190D01*
X75124819Y-32476190D02*
X75267676Y-32571428D01*
X75267676Y-32571428D02*
X75362914Y-32666666D01*
X75362914Y-32666666D02*
X75410533Y-32761904D01*
X75124819Y-31571428D02*
X75124819Y-31476190D01*
X75124819Y-31476190D02*
X75172438Y-31380952D01*
X75172438Y-31380952D02*
X75220057Y-31333333D01*
X75220057Y-31333333D02*
X75315295Y-31285714D01*
X75315295Y-31285714D02*
X75505771Y-31238095D01*
X75505771Y-31238095D02*
X75743866Y-31238095D01*
X75743866Y-31238095D02*
X75934342Y-31285714D01*
X75934342Y-31285714D02*
X76029580Y-31333333D01*
X76029580Y-31333333D02*
X76077200Y-31380952D01*
X76077200Y-31380952D02*
X76124819Y-31476190D01*
X76124819Y-31476190D02*
X76124819Y-31571428D01*
X76124819Y-31571428D02*
X76077200Y-31666666D01*
X76077200Y-31666666D02*
X76029580Y-31714285D01*
X76029580Y-31714285D02*
X75934342Y-31761904D01*
X75934342Y-31761904D02*
X75743866Y-31809523D01*
X75743866Y-31809523D02*
X75505771Y-31809523D01*
X75505771Y-31809523D02*
X75315295Y-31761904D01*
X75315295Y-31761904D02*
X75220057Y-31714285D01*
X75220057Y-31714285D02*
X75172438Y-31666666D01*
X75172438Y-31666666D02*
X75124819Y-31571428D01*
X137607200Y-98285714D02*
X137654819Y-98142857D01*
X137654819Y-98142857D02*
X137654819Y-97904762D01*
X137654819Y-97904762D02*
X137607200Y-97809524D01*
X137607200Y-97809524D02*
X137559580Y-97761905D01*
X137559580Y-97761905D02*
X137464342Y-97714286D01*
X137464342Y-97714286D02*
X137369104Y-97714286D01*
X137369104Y-97714286D02*
X137273866Y-97761905D01*
X137273866Y-97761905D02*
X137226247Y-97809524D01*
X137226247Y-97809524D02*
X137178628Y-97904762D01*
X137178628Y-97904762D02*
X137131009Y-98095238D01*
X137131009Y-98095238D02*
X137083390Y-98190476D01*
X137083390Y-98190476D02*
X137035771Y-98238095D01*
X137035771Y-98238095D02*
X136940533Y-98285714D01*
X136940533Y-98285714D02*
X136845295Y-98285714D01*
X136845295Y-98285714D02*
X136750057Y-98238095D01*
X136750057Y-98238095D02*
X136702438Y-98190476D01*
X136702438Y-98190476D02*
X136654819Y-98095238D01*
X136654819Y-98095238D02*
X136654819Y-97857143D01*
X136654819Y-97857143D02*
X136702438Y-97714286D01*
X137654819Y-97285714D02*
X136654819Y-97285714D01*
X136654819Y-97285714D02*
X136654819Y-96904762D01*
X136654819Y-96904762D02*
X136702438Y-96809524D01*
X136702438Y-96809524D02*
X136750057Y-96761905D01*
X136750057Y-96761905D02*
X136845295Y-96714286D01*
X136845295Y-96714286D02*
X136988152Y-96714286D01*
X136988152Y-96714286D02*
X137083390Y-96761905D01*
X137083390Y-96761905D02*
X137131009Y-96809524D01*
X137131009Y-96809524D02*
X137178628Y-96904762D01*
X137178628Y-96904762D02*
X137178628Y-97285714D01*
X137654819Y-96285714D02*
X136988152Y-96285714D01*
X136654819Y-96285714D02*
X136702438Y-96333333D01*
X136702438Y-96333333D02*
X136750057Y-96285714D01*
X136750057Y-96285714D02*
X136702438Y-96238095D01*
X136702438Y-96238095D02*
X136654819Y-96285714D01*
X136654819Y-96285714D02*
X136750057Y-96285714D01*
X137750057Y-96047620D02*
X137750057Y-95285715D01*
X137654819Y-94571429D02*
X137654819Y-95047619D01*
X137654819Y-95047619D02*
X136654819Y-95047619D01*
X137607200Y-93857143D02*
X137654819Y-93952381D01*
X137654819Y-93952381D02*
X137654819Y-94142857D01*
X137654819Y-94142857D02*
X137607200Y-94238095D01*
X137607200Y-94238095D02*
X137511961Y-94285714D01*
X137511961Y-94285714D02*
X137131009Y-94285714D01*
X137131009Y-94285714D02*
X137035771Y-94238095D01*
X137035771Y-94238095D02*
X136988152Y-94142857D01*
X136988152Y-94142857D02*
X136988152Y-93952381D01*
X136988152Y-93952381D02*
X137035771Y-93857143D01*
X137035771Y-93857143D02*
X137131009Y-93809524D01*
X137131009Y-93809524D02*
X137226247Y-93809524D01*
X137226247Y-93809524D02*
X137321485Y-94285714D01*
X136988152Y-93476190D02*
X137654819Y-93238095D01*
X137654819Y-93238095D02*
X136988152Y-93000000D01*
X137607200Y-92238095D02*
X137654819Y-92333333D01*
X137654819Y-92333333D02*
X137654819Y-92523809D01*
X137654819Y-92523809D02*
X137607200Y-92619047D01*
X137607200Y-92619047D02*
X137511961Y-92666666D01*
X137511961Y-92666666D02*
X137131009Y-92666666D01*
X137131009Y-92666666D02*
X137035771Y-92619047D01*
X137035771Y-92619047D02*
X136988152Y-92523809D01*
X136988152Y-92523809D02*
X136988152Y-92333333D01*
X136988152Y-92333333D02*
X137035771Y-92238095D01*
X137035771Y-92238095D02*
X137131009Y-92190476D01*
X137131009Y-92190476D02*
X137226247Y-92190476D01*
X137226247Y-92190476D02*
X137321485Y-92666666D01*
X137654819Y-91619047D02*
X137607200Y-91714285D01*
X137607200Y-91714285D02*
X137511961Y-91761904D01*
X137511961Y-91761904D02*
X136654819Y-91761904D01*
X137654819Y-90714285D02*
X137654819Y-91285713D01*
X137654819Y-90999999D02*
X136654819Y-90999999D01*
X136654819Y-90999999D02*
X136797676Y-91095237D01*
X136797676Y-91095237D02*
X136892914Y-91190475D01*
X136892914Y-91190475D02*
X136940533Y-91285713D01*
X123009580Y-74642857D02*
X123057200Y-74690476D01*
X123057200Y-74690476D02*
X123104819Y-74833333D01*
X123104819Y-74833333D02*
X123104819Y-74928571D01*
X123104819Y-74928571D02*
X123057200Y-75071428D01*
X123057200Y-75071428D02*
X122961961Y-75166666D01*
X122961961Y-75166666D02*
X122866723Y-75214285D01*
X122866723Y-75214285D02*
X122676247Y-75261904D01*
X122676247Y-75261904D02*
X122533390Y-75261904D01*
X122533390Y-75261904D02*
X122342914Y-75214285D01*
X122342914Y-75214285D02*
X122247676Y-75166666D01*
X122247676Y-75166666D02*
X122152438Y-75071428D01*
X122152438Y-75071428D02*
X122104819Y-74928571D01*
X122104819Y-74928571D02*
X122104819Y-74833333D01*
X122104819Y-74833333D02*
X122152438Y-74690476D01*
X122152438Y-74690476D02*
X122200057Y-74642857D01*
X123104819Y-73690476D02*
X123104819Y-74261904D01*
X123104819Y-73976190D02*
X122104819Y-73976190D01*
X122104819Y-73976190D02*
X122247676Y-74071428D01*
X122247676Y-74071428D02*
X122342914Y-74166666D01*
X122342914Y-74166666D02*
X122390533Y-74261904D01*
X122200057Y-73309523D02*
X122152438Y-73261904D01*
X122152438Y-73261904D02*
X122104819Y-73166666D01*
X122104819Y-73166666D02*
X122104819Y-72928571D01*
X122104819Y-72928571D02*
X122152438Y-72833333D01*
X122152438Y-72833333D02*
X122200057Y-72785714D01*
X122200057Y-72785714D02*
X122295295Y-72738095D01*
X122295295Y-72738095D02*
X122390533Y-72738095D01*
X122390533Y-72738095D02*
X122533390Y-72785714D01*
X122533390Y-72785714D02*
X123104819Y-73357142D01*
X123104819Y-73357142D02*
X123104819Y-72738095D01*
X182284819Y-109166666D02*
X181808628Y-109499999D01*
X182284819Y-109738094D02*
X181284819Y-109738094D01*
X181284819Y-109738094D02*
X181284819Y-109357142D01*
X181284819Y-109357142D02*
X181332438Y-109261904D01*
X181332438Y-109261904D02*
X181380057Y-109214285D01*
X181380057Y-109214285D02*
X181475295Y-109166666D01*
X181475295Y-109166666D02*
X181618152Y-109166666D01*
X181618152Y-109166666D02*
X181713390Y-109214285D01*
X181713390Y-109214285D02*
X181761009Y-109261904D01*
X181761009Y-109261904D02*
X181808628Y-109357142D01*
X181808628Y-109357142D02*
X181808628Y-109738094D01*
X181284819Y-108309523D02*
X181284819Y-108499999D01*
X181284819Y-108499999D02*
X181332438Y-108595237D01*
X181332438Y-108595237D02*
X181380057Y-108642856D01*
X181380057Y-108642856D02*
X181522914Y-108738094D01*
X181522914Y-108738094D02*
X181713390Y-108785713D01*
X181713390Y-108785713D02*
X182094342Y-108785713D01*
X182094342Y-108785713D02*
X182189580Y-108738094D01*
X182189580Y-108738094D02*
X182237200Y-108690475D01*
X182237200Y-108690475D02*
X182284819Y-108595237D01*
X182284819Y-108595237D02*
X182284819Y-108404761D01*
X182284819Y-108404761D02*
X182237200Y-108309523D01*
X182237200Y-108309523D02*
X182189580Y-108261904D01*
X182189580Y-108261904D02*
X182094342Y-108214285D01*
X182094342Y-108214285D02*
X181856247Y-108214285D01*
X181856247Y-108214285D02*
X181761009Y-108261904D01*
X181761009Y-108261904D02*
X181713390Y-108309523D01*
X181713390Y-108309523D02*
X181665771Y-108404761D01*
X181665771Y-108404761D02*
X181665771Y-108595237D01*
X181665771Y-108595237D02*
X181713390Y-108690475D01*
X181713390Y-108690475D02*
X181761009Y-108738094D01*
X181761009Y-108738094D02*
X181856247Y-108785713D01*
X128307142Y-29624819D02*
X127973809Y-29148628D01*
X127735714Y-29624819D02*
X127735714Y-28624819D01*
X127735714Y-28624819D02*
X128116666Y-28624819D01*
X128116666Y-28624819D02*
X128211904Y-28672438D01*
X128211904Y-28672438D02*
X128259523Y-28720057D01*
X128259523Y-28720057D02*
X128307142Y-28815295D01*
X128307142Y-28815295D02*
X128307142Y-28958152D01*
X128307142Y-28958152D02*
X128259523Y-29053390D01*
X128259523Y-29053390D02*
X128211904Y-29101009D01*
X128211904Y-29101009D02*
X128116666Y-29148628D01*
X128116666Y-29148628D02*
X127735714Y-29148628D01*
X129259523Y-29624819D02*
X128688095Y-29624819D01*
X128973809Y-29624819D02*
X128973809Y-28624819D01*
X128973809Y-28624819D02*
X128878571Y-28767676D01*
X128878571Y-28767676D02*
X128783333Y-28862914D01*
X128783333Y-28862914D02*
X128688095Y-28910533D01*
X129592857Y-28624819D02*
X130211904Y-28624819D01*
X130211904Y-28624819D02*
X129878571Y-29005771D01*
X129878571Y-29005771D02*
X130021428Y-29005771D01*
X130021428Y-29005771D02*
X130116666Y-29053390D01*
X130116666Y-29053390D02*
X130164285Y-29101009D01*
X130164285Y-29101009D02*
X130211904Y-29196247D01*
X130211904Y-29196247D02*
X130211904Y-29434342D01*
X130211904Y-29434342D02*
X130164285Y-29529580D01*
X130164285Y-29529580D02*
X130116666Y-29577200D01*
X130116666Y-29577200D02*
X130021428Y-29624819D01*
X130021428Y-29624819D02*
X129735714Y-29624819D01*
X129735714Y-29624819D02*
X129640476Y-29577200D01*
X129640476Y-29577200D02*
X129592857Y-29529580D01*
X154369642Y-139624819D02*
X154036309Y-139148628D01*
X153798214Y-139624819D02*
X153798214Y-138624819D01*
X153798214Y-138624819D02*
X154179166Y-138624819D01*
X154179166Y-138624819D02*
X154274404Y-138672438D01*
X154274404Y-138672438D02*
X154322023Y-138720057D01*
X154322023Y-138720057D02*
X154369642Y-138815295D01*
X154369642Y-138815295D02*
X154369642Y-138958152D01*
X154369642Y-138958152D02*
X154322023Y-139053390D01*
X154322023Y-139053390D02*
X154274404Y-139101009D01*
X154274404Y-139101009D02*
X154179166Y-139148628D01*
X154179166Y-139148628D02*
X153798214Y-139148628D01*
X154750595Y-138720057D02*
X154798214Y-138672438D01*
X154798214Y-138672438D02*
X154893452Y-138624819D01*
X154893452Y-138624819D02*
X155131547Y-138624819D01*
X155131547Y-138624819D02*
X155226785Y-138672438D01*
X155226785Y-138672438D02*
X155274404Y-138720057D01*
X155274404Y-138720057D02*
X155322023Y-138815295D01*
X155322023Y-138815295D02*
X155322023Y-138910533D01*
X155322023Y-138910533D02*
X155274404Y-139053390D01*
X155274404Y-139053390D02*
X154702976Y-139624819D01*
X154702976Y-139624819D02*
X155322023Y-139624819D01*
X155941071Y-138624819D02*
X156036309Y-138624819D01*
X156036309Y-138624819D02*
X156131547Y-138672438D01*
X156131547Y-138672438D02*
X156179166Y-138720057D01*
X156179166Y-138720057D02*
X156226785Y-138815295D01*
X156226785Y-138815295D02*
X156274404Y-139005771D01*
X156274404Y-139005771D02*
X156274404Y-139243866D01*
X156274404Y-139243866D02*
X156226785Y-139434342D01*
X156226785Y-139434342D02*
X156179166Y-139529580D01*
X156179166Y-139529580D02*
X156131547Y-139577200D01*
X156131547Y-139577200D02*
X156036309Y-139624819D01*
X156036309Y-139624819D02*
X155941071Y-139624819D01*
X155941071Y-139624819D02*
X155845833Y-139577200D01*
X155845833Y-139577200D02*
X155798214Y-139529580D01*
X155798214Y-139529580D02*
X155750595Y-139434342D01*
X155750595Y-139434342D02*
X155702976Y-139243866D01*
X155702976Y-139243866D02*
X155702976Y-139005771D01*
X155702976Y-139005771D02*
X155750595Y-138815295D01*
X155750595Y-138815295D02*
X155798214Y-138720057D01*
X155798214Y-138720057D02*
X155845833Y-138672438D01*
X155845833Y-138672438D02*
X155941071Y-138624819D01*
X182494642Y-35509580D02*
X182447023Y-35557200D01*
X182447023Y-35557200D02*
X182304166Y-35604819D01*
X182304166Y-35604819D02*
X182208928Y-35604819D01*
X182208928Y-35604819D02*
X182066071Y-35557200D01*
X182066071Y-35557200D02*
X181970833Y-35461961D01*
X181970833Y-35461961D02*
X181923214Y-35366723D01*
X181923214Y-35366723D02*
X181875595Y-35176247D01*
X181875595Y-35176247D02*
X181875595Y-35033390D01*
X181875595Y-35033390D02*
X181923214Y-34842914D01*
X181923214Y-34842914D02*
X181970833Y-34747676D01*
X181970833Y-34747676D02*
X182066071Y-34652438D01*
X182066071Y-34652438D02*
X182208928Y-34604819D01*
X182208928Y-34604819D02*
X182304166Y-34604819D01*
X182304166Y-34604819D02*
X182447023Y-34652438D01*
X182447023Y-34652438D02*
X182494642Y-34700057D01*
X183447023Y-35604819D02*
X182875595Y-35604819D01*
X183161309Y-35604819D02*
X183161309Y-34604819D01*
X183161309Y-34604819D02*
X183066071Y-34747676D01*
X183066071Y-34747676D02*
X182970833Y-34842914D01*
X182970833Y-34842914D02*
X182875595Y-34890533D01*
X183780357Y-34604819D02*
X184399404Y-34604819D01*
X184399404Y-34604819D02*
X184066071Y-34985771D01*
X184066071Y-34985771D02*
X184208928Y-34985771D01*
X184208928Y-34985771D02*
X184304166Y-35033390D01*
X184304166Y-35033390D02*
X184351785Y-35081009D01*
X184351785Y-35081009D02*
X184399404Y-35176247D01*
X184399404Y-35176247D02*
X184399404Y-35414342D01*
X184399404Y-35414342D02*
X184351785Y-35509580D01*
X184351785Y-35509580D02*
X184304166Y-35557200D01*
X184304166Y-35557200D02*
X184208928Y-35604819D01*
X184208928Y-35604819D02*
X183923214Y-35604819D01*
X183923214Y-35604819D02*
X183827976Y-35557200D01*
X183827976Y-35557200D02*
X183780357Y-35509580D01*
X182284819Y-93666666D02*
X181808628Y-93999999D01*
X182284819Y-94238094D02*
X181284819Y-94238094D01*
X181284819Y-94238094D02*
X181284819Y-93857142D01*
X181284819Y-93857142D02*
X181332438Y-93761904D01*
X181332438Y-93761904D02*
X181380057Y-93714285D01*
X181380057Y-93714285D02*
X181475295Y-93666666D01*
X181475295Y-93666666D02*
X181618152Y-93666666D01*
X181618152Y-93666666D02*
X181713390Y-93714285D01*
X181713390Y-93714285D02*
X181761009Y-93761904D01*
X181761009Y-93761904D02*
X181808628Y-93857142D01*
X181808628Y-93857142D02*
X181808628Y-94238094D01*
X181380057Y-93285713D02*
X181332438Y-93238094D01*
X181332438Y-93238094D02*
X181284819Y-93142856D01*
X181284819Y-93142856D02*
X181284819Y-92904761D01*
X181284819Y-92904761D02*
X181332438Y-92809523D01*
X181332438Y-92809523D02*
X181380057Y-92761904D01*
X181380057Y-92761904D02*
X181475295Y-92714285D01*
X181475295Y-92714285D02*
X181570533Y-92714285D01*
X181570533Y-92714285D02*
X181713390Y-92761904D01*
X181713390Y-92761904D02*
X182284819Y-93333332D01*
X182284819Y-93333332D02*
X182284819Y-92714285D01*
X143304819Y-160714285D02*
X142304819Y-160714285D01*
X142304819Y-160714285D02*
X142304819Y-160476190D01*
X142304819Y-160476190D02*
X142352438Y-160333333D01*
X142352438Y-160333333D02*
X142447676Y-160238095D01*
X142447676Y-160238095D02*
X142542914Y-160190476D01*
X142542914Y-160190476D02*
X142733390Y-160142857D01*
X142733390Y-160142857D02*
X142876247Y-160142857D01*
X142876247Y-160142857D02*
X143066723Y-160190476D01*
X143066723Y-160190476D02*
X143161961Y-160238095D01*
X143161961Y-160238095D02*
X143257200Y-160333333D01*
X143257200Y-160333333D02*
X143304819Y-160476190D01*
X143304819Y-160476190D02*
X143304819Y-160714285D01*
X143304819Y-159190476D02*
X143304819Y-159761904D01*
X143304819Y-159476190D02*
X142304819Y-159476190D01*
X142304819Y-159476190D02*
X142447676Y-159571428D01*
X142447676Y-159571428D02*
X142542914Y-159666666D01*
X142542914Y-159666666D02*
X142590533Y-159761904D01*
X142400057Y-158809523D02*
X142352438Y-158761904D01*
X142352438Y-158761904D02*
X142304819Y-158666666D01*
X142304819Y-158666666D02*
X142304819Y-158428571D01*
X142304819Y-158428571D02*
X142352438Y-158333333D01*
X142352438Y-158333333D02*
X142400057Y-158285714D01*
X142400057Y-158285714D02*
X142495295Y-158238095D01*
X142495295Y-158238095D02*
X142590533Y-158238095D01*
X142590533Y-158238095D02*
X142733390Y-158285714D01*
X142733390Y-158285714D02*
X143304819Y-158857142D01*
X143304819Y-158857142D02*
X143304819Y-158238095D01*
X182284819Y-85666666D02*
X181808628Y-85999999D01*
X182284819Y-86238094D02*
X181284819Y-86238094D01*
X181284819Y-86238094D02*
X181284819Y-85857142D01*
X181284819Y-85857142D02*
X181332438Y-85761904D01*
X181332438Y-85761904D02*
X181380057Y-85714285D01*
X181380057Y-85714285D02*
X181475295Y-85666666D01*
X181475295Y-85666666D02*
X181618152Y-85666666D01*
X181618152Y-85666666D02*
X181713390Y-85714285D01*
X181713390Y-85714285D02*
X181761009Y-85761904D01*
X181761009Y-85761904D02*
X181808628Y-85857142D01*
X181808628Y-85857142D02*
X181808628Y-86238094D01*
X182284819Y-84714285D02*
X182284819Y-85285713D01*
X182284819Y-84999999D02*
X181284819Y-84999999D01*
X181284819Y-84999999D02*
X181427676Y-85095237D01*
X181427676Y-85095237D02*
X181522914Y-85190475D01*
X181522914Y-85190475D02*
X181570533Y-85285713D01*
X147369642Y-139624819D02*
X147036309Y-139148628D01*
X146798214Y-139624819D02*
X146798214Y-138624819D01*
X146798214Y-138624819D02*
X147179166Y-138624819D01*
X147179166Y-138624819D02*
X147274404Y-138672438D01*
X147274404Y-138672438D02*
X147322023Y-138720057D01*
X147322023Y-138720057D02*
X147369642Y-138815295D01*
X147369642Y-138815295D02*
X147369642Y-138958152D01*
X147369642Y-138958152D02*
X147322023Y-139053390D01*
X147322023Y-139053390D02*
X147274404Y-139101009D01*
X147274404Y-139101009D02*
X147179166Y-139148628D01*
X147179166Y-139148628D02*
X146798214Y-139148628D01*
X148322023Y-139624819D02*
X147750595Y-139624819D01*
X148036309Y-139624819D02*
X148036309Y-138624819D01*
X148036309Y-138624819D02*
X147941071Y-138767676D01*
X147941071Y-138767676D02*
X147845833Y-138862914D01*
X147845833Y-138862914D02*
X147750595Y-138910533D01*
X148798214Y-139624819D02*
X148988690Y-139624819D01*
X148988690Y-139624819D02*
X149083928Y-139577200D01*
X149083928Y-139577200D02*
X149131547Y-139529580D01*
X149131547Y-139529580D02*
X149226785Y-139386723D01*
X149226785Y-139386723D02*
X149274404Y-139196247D01*
X149274404Y-139196247D02*
X149274404Y-138815295D01*
X149274404Y-138815295D02*
X149226785Y-138720057D01*
X149226785Y-138720057D02*
X149179166Y-138672438D01*
X149179166Y-138672438D02*
X149083928Y-138624819D01*
X149083928Y-138624819D02*
X148893452Y-138624819D01*
X148893452Y-138624819D02*
X148798214Y-138672438D01*
X148798214Y-138672438D02*
X148750595Y-138720057D01*
X148750595Y-138720057D02*
X148702976Y-138815295D01*
X148702976Y-138815295D02*
X148702976Y-139053390D01*
X148702976Y-139053390D02*
X148750595Y-139148628D01*
X148750595Y-139148628D02*
X148798214Y-139196247D01*
X148798214Y-139196247D02*
X148893452Y-139243866D01*
X148893452Y-139243866D02*
X149083928Y-139243866D01*
X149083928Y-139243866D02*
X149179166Y-139196247D01*
X149179166Y-139196247D02*
X149226785Y-139148628D01*
X149226785Y-139148628D02*
X149274404Y-139053390D01*
X174709580Y-109166666D02*
X174757200Y-109214285D01*
X174757200Y-109214285D02*
X174804819Y-109357142D01*
X174804819Y-109357142D02*
X174804819Y-109452380D01*
X174804819Y-109452380D02*
X174757200Y-109595237D01*
X174757200Y-109595237D02*
X174661961Y-109690475D01*
X174661961Y-109690475D02*
X174566723Y-109738094D01*
X174566723Y-109738094D02*
X174376247Y-109785713D01*
X174376247Y-109785713D02*
X174233390Y-109785713D01*
X174233390Y-109785713D02*
X174042914Y-109738094D01*
X174042914Y-109738094D02*
X173947676Y-109690475D01*
X173947676Y-109690475D02*
X173852438Y-109595237D01*
X173852438Y-109595237D02*
X173804819Y-109452380D01*
X173804819Y-109452380D02*
X173804819Y-109357142D01*
X173804819Y-109357142D02*
X173852438Y-109214285D01*
X173852438Y-109214285D02*
X173900057Y-109166666D01*
X174138152Y-108309523D02*
X174804819Y-108309523D01*
X173757200Y-108547618D02*
X174471485Y-108785713D01*
X174471485Y-108785713D02*
X174471485Y-108166666D01*
X182284819Y-101166666D02*
X181808628Y-101499999D01*
X182284819Y-101738094D02*
X181284819Y-101738094D01*
X181284819Y-101738094D02*
X181284819Y-101357142D01*
X181284819Y-101357142D02*
X181332438Y-101261904D01*
X181332438Y-101261904D02*
X181380057Y-101214285D01*
X181380057Y-101214285D02*
X181475295Y-101166666D01*
X181475295Y-101166666D02*
X181618152Y-101166666D01*
X181618152Y-101166666D02*
X181713390Y-101214285D01*
X181713390Y-101214285D02*
X181761009Y-101261904D01*
X181761009Y-101261904D02*
X181808628Y-101357142D01*
X181808628Y-101357142D02*
X181808628Y-101738094D01*
X181284819Y-100261904D02*
X181284819Y-100738094D01*
X181284819Y-100738094D02*
X181761009Y-100785713D01*
X181761009Y-100785713D02*
X181713390Y-100738094D01*
X181713390Y-100738094D02*
X181665771Y-100642856D01*
X181665771Y-100642856D02*
X181665771Y-100404761D01*
X181665771Y-100404761D02*
X181713390Y-100309523D01*
X181713390Y-100309523D02*
X181761009Y-100261904D01*
X181761009Y-100261904D02*
X181856247Y-100214285D01*
X181856247Y-100214285D02*
X182094342Y-100214285D01*
X182094342Y-100214285D02*
X182189580Y-100261904D01*
X182189580Y-100261904D02*
X182237200Y-100309523D01*
X182237200Y-100309523D02*
X182284819Y-100404761D01*
X182284819Y-100404761D02*
X182284819Y-100642856D01*
X182284819Y-100642856D02*
X182237200Y-100738094D01*
X182237200Y-100738094D02*
X182189580Y-100785713D01*
X140304819Y-154714285D02*
X139304819Y-154714285D01*
X139304819Y-154714285D02*
X139304819Y-154476190D01*
X139304819Y-154476190D02*
X139352438Y-154333333D01*
X139352438Y-154333333D02*
X139447676Y-154238095D01*
X139447676Y-154238095D02*
X139542914Y-154190476D01*
X139542914Y-154190476D02*
X139733390Y-154142857D01*
X139733390Y-154142857D02*
X139876247Y-154142857D01*
X139876247Y-154142857D02*
X140066723Y-154190476D01*
X140066723Y-154190476D02*
X140161961Y-154238095D01*
X140161961Y-154238095D02*
X140257200Y-154333333D01*
X140257200Y-154333333D02*
X140304819Y-154476190D01*
X140304819Y-154476190D02*
X140304819Y-154714285D01*
X140304819Y-153190476D02*
X140304819Y-153761904D01*
X140304819Y-153476190D02*
X139304819Y-153476190D01*
X139304819Y-153476190D02*
X139447676Y-153571428D01*
X139447676Y-153571428D02*
X139542914Y-153666666D01*
X139542914Y-153666666D02*
X139590533Y-153761904D01*
X140304819Y-152238095D02*
X140304819Y-152809523D01*
X140304819Y-152523809D02*
X139304819Y-152523809D01*
X139304819Y-152523809D02*
X139447676Y-152619047D01*
X139447676Y-152619047D02*
X139542914Y-152714285D01*
X139542914Y-152714285D02*
X139590533Y-152809523D01*
X160357142Y-123509580D02*
X160309523Y-123557200D01*
X160309523Y-123557200D02*
X160166666Y-123604819D01*
X160166666Y-123604819D02*
X160071428Y-123604819D01*
X160071428Y-123604819D02*
X159928571Y-123557200D01*
X159928571Y-123557200D02*
X159833333Y-123461961D01*
X159833333Y-123461961D02*
X159785714Y-123366723D01*
X159785714Y-123366723D02*
X159738095Y-123176247D01*
X159738095Y-123176247D02*
X159738095Y-123033390D01*
X159738095Y-123033390D02*
X159785714Y-122842914D01*
X159785714Y-122842914D02*
X159833333Y-122747676D01*
X159833333Y-122747676D02*
X159928571Y-122652438D01*
X159928571Y-122652438D02*
X160071428Y-122604819D01*
X160071428Y-122604819D02*
X160166666Y-122604819D01*
X160166666Y-122604819D02*
X160309523Y-122652438D01*
X160309523Y-122652438D02*
X160357142Y-122700057D01*
X160738095Y-122700057D02*
X160785714Y-122652438D01*
X160785714Y-122652438D02*
X160880952Y-122604819D01*
X160880952Y-122604819D02*
X161119047Y-122604819D01*
X161119047Y-122604819D02*
X161214285Y-122652438D01*
X161214285Y-122652438D02*
X161261904Y-122700057D01*
X161261904Y-122700057D02*
X161309523Y-122795295D01*
X161309523Y-122795295D02*
X161309523Y-122890533D01*
X161309523Y-122890533D02*
X161261904Y-123033390D01*
X161261904Y-123033390D02*
X160690476Y-123604819D01*
X160690476Y-123604819D02*
X161309523Y-123604819D01*
X162261904Y-123604819D02*
X161690476Y-123604819D01*
X161976190Y-123604819D02*
X161976190Y-122604819D01*
X161976190Y-122604819D02*
X161880952Y-122747676D01*
X161880952Y-122747676D02*
X161785714Y-122842914D01*
X161785714Y-122842914D02*
X161690476Y-122890533D01*
X161009580Y-82580357D02*
X161057200Y-82627976D01*
X161057200Y-82627976D02*
X161104819Y-82770833D01*
X161104819Y-82770833D02*
X161104819Y-82866071D01*
X161104819Y-82866071D02*
X161057200Y-83008928D01*
X161057200Y-83008928D02*
X160961961Y-83104166D01*
X160961961Y-83104166D02*
X160866723Y-83151785D01*
X160866723Y-83151785D02*
X160676247Y-83199404D01*
X160676247Y-83199404D02*
X160533390Y-83199404D01*
X160533390Y-83199404D02*
X160342914Y-83151785D01*
X160342914Y-83151785D02*
X160247676Y-83104166D01*
X160247676Y-83104166D02*
X160152438Y-83008928D01*
X160152438Y-83008928D02*
X160104819Y-82866071D01*
X160104819Y-82866071D02*
X160104819Y-82770833D01*
X160104819Y-82770833D02*
X160152438Y-82627976D01*
X160152438Y-82627976D02*
X160200057Y-82580357D01*
X161104819Y-81627976D02*
X161104819Y-82199404D01*
X161104819Y-81913690D02*
X160104819Y-81913690D01*
X160104819Y-81913690D02*
X160247676Y-82008928D01*
X160247676Y-82008928D02*
X160342914Y-82104166D01*
X160342914Y-82104166D02*
X160390533Y-82199404D01*
X160104819Y-80770833D02*
X160104819Y-80961309D01*
X160104819Y-80961309D02*
X160152438Y-81056547D01*
X160152438Y-81056547D02*
X160200057Y-81104166D01*
X160200057Y-81104166D02*
X160342914Y-81199404D01*
X160342914Y-81199404D02*
X160533390Y-81247023D01*
X160533390Y-81247023D02*
X160914342Y-81247023D01*
X160914342Y-81247023D02*
X161009580Y-81199404D01*
X161009580Y-81199404D02*
X161057200Y-81151785D01*
X161057200Y-81151785D02*
X161104819Y-81056547D01*
X161104819Y-81056547D02*
X161104819Y-80866071D01*
X161104819Y-80866071D02*
X161057200Y-80770833D01*
X161057200Y-80770833D02*
X161009580Y-80723214D01*
X161009580Y-80723214D02*
X160914342Y-80675595D01*
X160914342Y-80675595D02*
X160676247Y-80675595D01*
X160676247Y-80675595D02*
X160581009Y-80723214D01*
X160581009Y-80723214D02*
X160533390Y-80770833D01*
X160533390Y-80770833D02*
X160485771Y-80866071D01*
X160485771Y-80866071D02*
X160485771Y-81056547D01*
X160485771Y-81056547D02*
X160533390Y-81151785D01*
X160533390Y-81151785D02*
X160581009Y-81199404D01*
X160581009Y-81199404D02*
X160676247Y-81247023D01*
X182357142Y-52009580D02*
X182309523Y-52057200D01*
X182309523Y-52057200D02*
X182166666Y-52104819D01*
X182166666Y-52104819D02*
X182071428Y-52104819D01*
X182071428Y-52104819D02*
X181928571Y-52057200D01*
X181928571Y-52057200D02*
X181833333Y-51961961D01*
X181833333Y-51961961D02*
X181785714Y-51866723D01*
X181785714Y-51866723D02*
X181738095Y-51676247D01*
X181738095Y-51676247D02*
X181738095Y-51533390D01*
X181738095Y-51533390D02*
X181785714Y-51342914D01*
X181785714Y-51342914D02*
X181833333Y-51247676D01*
X181833333Y-51247676D02*
X181928571Y-51152438D01*
X181928571Y-51152438D02*
X182071428Y-51104819D01*
X182071428Y-51104819D02*
X182166666Y-51104819D01*
X182166666Y-51104819D02*
X182309523Y-51152438D01*
X182309523Y-51152438D02*
X182357142Y-51200057D01*
X183309523Y-52104819D02*
X182738095Y-52104819D01*
X183023809Y-52104819D02*
X183023809Y-51104819D01*
X183023809Y-51104819D02*
X182928571Y-51247676D01*
X182928571Y-51247676D02*
X182833333Y-51342914D01*
X182833333Y-51342914D02*
X182738095Y-51390533D01*
X184166666Y-51438152D02*
X184166666Y-52104819D01*
X183928571Y-51057200D02*
X183690476Y-51771485D01*
X183690476Y-51771485D02*
X184309523Y-51771485D01*
X182357142Y-46509580D02*
X182309523Y-46557200D01*
X182309523Y-46557200D02*
X182166666Y-46604819D01*
X182166666Y-46604819D02*
X182071428Y-46604819D01*
X182071428Y-46604819D02*
X181928571Y-46557200D01*
X181928571Y-46557200D02*
X181833333Y-46461961D01*
X181833333Y-46461961D02*
X181785714Y-46366723D01*
X181785714Y-46366723D02*
X181738095Y-46176247D01*
X181738095Y-46176247D02*
X181738095Y-46033390D01*
X181738095Y-46033390D02*
X181785714Y-45842914D01*
X181785714Y-45842914D02*
X181833333Y-45747676D01*
X181833333Y-45747676D02*
X181928571Y-45652438D01*
X181928571Y-45652438D02*
X182071428Y-45604819D01*
X182071428Y-45604819D02*
X182166666Y-45604819D01*
X182166666Y-45604819D02*
X182309523Y-45652438D01*
X182309523Y-45652438D02*
X182357142Y-45700057D01*
X183309523Y-46604819D02*
X182738095Y-46604819D01*
X183023809Y-46604819D02*
X183023809Y-45604819D01*
X183023809Y-45604819D02*
X182928571Y-45747676D01*
X182928571Y-45747676D02*
X182833333Y-45842914D01*
X182833333Y-45842914D02*
X182738095Y-45890533D01*
X184214285Y-45604819D02*
X183738095Y-45604819D01*
X183738095Y-45604819D02*
X183690476Y-46081009D01*
X183690476Y-46081009D02*
X183738095Y-46033390D01*
X183738095Y-46033390D02*
X183833333Y-45985771D01*
X183833333Y-45985771D02*
X184071428Y-45985771D01*
X184071428Y-45985771D02*
X184166666Y-46033390D01*
X184166666Y-46033390D02*
X184214285Y-46081009D01*
X184214285Y-46081009D02*
X184261904Y-46176247D01*
X184261904Y-46176247D02*
X184261904Y-46414342D01*
X184261904Y-46414342D02*
X184214285Y-46509580D01*
X184214285Y-46509580D02*
X184166666Y-46557200D01*
X184166666Y-46557200D02*
X184071428Y-46604819D01*
X184071428Y-46604819D02*
X183833333Y-46604819D01*
X183833333Y-46604819D02*
X183738095Y-46557200D01*
X183738095Y-46557200D02*
X183690476Y-46509580D01*
X134304819Y-142238094D02*
X133304819Y-142238094D01*
X133304819Y-142238094D02*
X133304819Y-141999999D01*
X133304819Y-141999999D02*
X133352438Y-141857142D01*
X133352438Y-141857142D02*
X133447676Y-141761904D01*
X133447676Y-141761904D02*
X133542914Y-141714285D01*
X133542914Y-141714285D02*
X133733390Y-141666666D01*
X133733390Y-141666666D02*
X133876247Y-141666666D01*
X133876247Y-141666666D02*
X134066723Y-141714285D01*
X134066723Y-141714285D02*
X134161961Y-141761904D01*
X134161961Y-141761904D02*
X134257200Y-141857142D01*
X134257200Y-141857142D02*
X134304819Y-141999999D01*
X134304819Y-141999999D02*
X134304819Y-142238094D01*
X134304819Y-141190475D02*
X134304819Y-140999999D01*
X134304819Y-140999999D02*
X134257200Y-140904761D01*
X134257200Y-140904761D02*
X134209580Y-140857142D01*
X134209580Y-140857142D02*
X134066723Y-140761904D01*
X134066723Y-140761904D02*
X133876247Y-140714285D01*
X133876247Y-140714285D02*
X133495295Y-140714285D01*
X133495295Y-140714285D02*
X133400057Y-140761904D01*
X133400057Y-140761904D02*
X133352438Y-140809523D01*
X133352438Y-140809523D02*
X133304819Y-140904761D01*
X133304819Y-140904761D02*
X133304819Y-141095237D01*
X133304819Y-141095237D02*
X133352438Y-141190475D01*
X133352438Y-141190475D02*
X133400057Y-141238094D01*
X133400057Y-141238094D02*
X133495295Y-141285713D01*
X133495295Y-141285713D02*
X133733390Y-141285713D01*
X133733390Y-141285713D02*
X133828628Y-141238094D01*
X133828628Y-141238094D02*
X133876247Y-141190475D01*
X133876247Y-141190475D02*
X133923866Y-141095237D01*
X133923866Y-141095237D02*
X133923866Y-140904761D01*
X133923866Y-140904761D02*
X133876247Y-140809523D01*
X133876247Y-140809523D02*
X133828628Y-140761904D01*
X133828628Y-140761904D02*
X133733390Y-140714285D01*
X175833333Y-91784819D02*
X175500000Y-91308628D01*
X175261905Y-91784819D02*
X175261905Y-90784819D01*
X175261905Y-90784819D02*
X175642857Y-90784819D01*
X175642857Y-90784819D02*
X175738095Y-90832438D01*
X175738095Y-90832438D02*
X175785714Y-90880057D01*
X175785714Y-90880057D02*
X175833333Y-90975295D01*
X175833333Y-90975295D02*
X175833333Y-91118152D01*
X175833333Y-91118152D02*
X175785714Y-91213390D01*
X175785714Y-91213390D02*
X175738095Y-91261009D01*
X175738095Y-91261009D02*
X175642857Y-91308628D01*
X175642857Y-91308628D02*
X175261905Y-91308628D01*
X176166667Y-90784819D02*
X176785714Y-90784819D01*
X176785714Y-90784819D02*
X176452381Y-91165771D01*
X176452381Y-91165771D02*
X176595238Y-91165771D01*
X176595238Y-91165771D02*
X176690476Y-91213390D01*
X176690476Y-91213390D02*
X176738095Y-91261009D01*
X176738095Y-91261009D02*
X176785714Y-91356247D01*
X176785714Y-91356247D02*
X176785714Y-91594342D01*
X176785714Y-91594342D02*
X176738095Y-91689580D01*
X176738095Y-91689580D02*
X176690476Y-91737200D01*
X176690476Y-91737200D02*
X176595238Y-91784819D01*
X176595238Y-91784819D02*
X176309524Y-91784819D01*
X176309524Y-91784819D02*
X176214286Y-91737200D01*
X176214286Y-91737200D02*
X176166667Y-91689580D01*
X141490419Y-41833333D02*
X141442800Y-41785714D01*
X141442800Y-41785714D02*
X141395180Y-41642857D01*
X141395180Y-41642857D02*
X141395180Y-41547619D01*
X141395180Y-41547619D02*
X141442800Y-41404762D01*
X141442800Y-41404762D02*
X141538038Y-41309524D01*
X141538038Y-41309524D02*
X141633276Y-41261905D01*
X141633276Y-41261905D02*
X141823752Y-41214286D01*
X141823752Y-41214286D02*
X141966609Y-41214286D01*
X141966609Y-41214286D02*
X142157085Y-41261905D01*
X142157085Y-41261905D02*
X142252323Y-41309524D01*
X142252323Y-41309524D02*
X142347561Y-41404762D01*
X142347561Y-41404762D02*
X142395180Y-41547619D01*
X142395180Y-41547619D02*
X142395180Y-41642857D01*
X142395180Y-41642857D02*
X142347561Y-41785714D01*
X142347561Y-41785714D02*
X142299942Y-41833333D01*
X141395180Y-42833333D02*
X141871371Y-42500000D01*
X141395180Y-42261905D02*
X142395180Y-42261905D01*
X142395180Y-42261905D02*
X142395180Y-42642857D01*
X142395180Y-42642857D02*
X142347561Y-42738095D01*
X142347561Y-42738095D02*
X142299942Y-42785714D01*
X142299942Y-42785714D02*
X142204704Y-42833333D01*
X142204704Y-42833333D02*
X142061847Y-42833333D01*
X142061847Y-42833333D02*
X141966609Y-42785714D01*
X141966609Y-42785714D02*
X141918990Y-42738095D01*
X141918990Y-42738095D02*
X141871371Y-42642857D01*
X141871371Y-42642857D02*
X141871371Y-42261905D01*
X142299942Y-43214286D02*
X142347561Y-43261905D01*
X142347561Y-43261905D02*
X142395180Y-43357143D01*
X142395180Y-43357143D02*
X142395180Y-43595238D01*
X142395180Y-43595238D02*
X142347561Y-43690476D01*
X142347561Y-43690476D02*
X142299942Y-43738095D01*
X142299942Y-43738095D02*
X142204704Y-43785714D01*
X142204704Y-43785714D02*
X142109466Y-43785714D01*
X142109466Y-43785714D02*
X141966609Y-43738095D01*
X141966609Y-43738095D02*
X141395180Y-43166667D01*
X141395180Y-43166667D02*
X141395180Y-43785714D01*
X139454819Y-40010799D02*
X139692914Y-40010799D01*
X139597676Y-40248894D02*
X139692914Y-40010799D01*
X139692914Y-40010799D02*
X139597676Y-39772704D01*
X139883390Y-40153656D02*
X139692914Y-40010799D01*
X139692914Y-40010799D02*
X139883390Y-39867942D01*
X140545180Y-40010800D02*
X140307085Y-40010800D01*
X140402323Y-39772705D02*
X140307085Y-40010800D01*
X140307085Y-40010800D02*
X140402323Y-40248895D01*
X140116609Y-39867943D02*
X140307085Y-40010800D01*
X140307085Y-40010800D02*
X140116609Y-40153657D01*
X169709580Y-109166666D02*
X169757200Y-109214285D01*
X169757200Y-109214285D02*
X169804819Y-109357142D01*
X169804819Y-109357142D02*
X169804819Y-109452380D01*
X169804819Y-109452380D02*
X169757200Y-109595237D01*
X169757200Y-109595237D02*
X169661961Y-109690475D01*
X169661961Y-109690475D02*
X169566723Y-109738094D01*
X169566723Y-109738094D02*
X169376247Y-109785713D01*
X169376247Y-109785713D02*
X169233390Y-109785713D01*
X169233390Y-109785713D02*
X169042914Y-109738094D01*
X169042914Y-109738094D02*
X168947676Y-109690475D01*
X168947676Y-109690475D02*
X168852438Y-109595237D01*
X168852438Y-109595237D02*
X168804819Y-109452380D01*
X168804819Y-109452380D02*
X168804819Y-109357142D01*
X168804819Y-109357142D02*
X168852438Y-109214285D01*
X168852438Y-109214285D02*
X168900057Y-109166666D01*
X168804819Y-108833332D02*
X168804819Y-108214285D01*
X168804819Y-108214285D02*
X169185771Y-108547618D01*
X169185771Y-108547618D02*
X169185771Y-108404761D01*
X169185771Y-108404761D02*
X169233390Y-108309523D01*
X169233390Y-108309523D02*
X169281009Y-108261904D01*
X169281009Y-108261904D02*
X169376247Y-108214285D01*
X169376247Y-108214285D02*
X169614342Y-108214285D01*
X169614342Y-108214285D02*
X169709580Y-108261904D01*
X169709580Y-108261904D02*
X169757200Y-108309523D01*
X169757200Y-108309523D02*
X169804819Y-108404761D01*
X169804819Y-108404761D02*
X169804819Y-108690475D01*
X169804819Y-108690475D02*
X169757200Y-108785713D01*
X169757200Y-108785713D02*
X169709580Y-108833332D01*
X131304819Y-136238094D02*
X130304819Y-136238094D01*
X130304819Y-136238094D02*
X130304819Y-135999999D01*
X130304819Y-135999999D02*
X130352438Y-135857142D01*
X130352438Y-135857142D02*
X130447676Y-135761904D01*
X130447676Y-135761904D02*
X130542914Y-135714285D01*
X130542914Y-135714285D02*
X130733390Y-135666666D01*
X130733390Y-135666666D02*
X130876247Y-135666666D01*
X130876247Y-135666666D02*
X131066723Y-135714285D01*
X131066723Y-135714285D02*
X131161961Y-135761904D01*
X131161961Y-135761904D02*
X131257200Y-135857142D01*
X131257200Y-135857142D02*
X131304819Y-135999999D01*
X131304819Y-135999999D02*
X131304819Y-136238094D01*
X130733390Y-135095237D02*
X130685771Y-135190475D01*
X130685771Y-135190475D02*
X130638152Y-135238094D01*
X130638152Y-135238094D02*
X130542914Y-135285713D01*
X130542914Y-135285713D02*
X130495295Y-135285713D01*
X130495295Y-135285713D02*
X130400057Y-135238094D01*
X130400057Y-135238094D02*
X130352438Y-135190475D01*
X130352438Y-135190475D02*
X130304819Y-135095237D01*
X130304819Y-135095237D02*
X130304819Y-134904761D01*
X130304819Y-134904761D02*
X130352438Y-134809523D01*
X130352438Y-134809523D02*
X130400057Y-134761904D01*
X130400057Y-134761904D02*
X130495295Y-134714285D01*
X130495295Y-134714285D02*
X130542914Y-134714285D01*
X130542914Y-134714285D02*
X130638152Y-134761904D01*
X130638152Y-134761904D02*
X130685771Y-134809523D01*
X130685771Y-134809523D02*
X130733390Y-134904761D01*
X130733390Y-134904761D02*
X130733390Y-135095237D01*
X130733390Y-135095237D02*
X130781009Y-135190475D01*
X130781009Y-135190475D02*
X130828628Y-135238094D01*
X130828628Y-135238094D02*
X130923866Y-135285713D01*
X130923866Y-135285713D02*
X131114342Y-135285713D01*
X131114342Y-135285713D02*
X131209580Y-135238094D01*
X131209580Y-135238094D02*
X131257200Y-135190475D01*
X131257200Y-135190475D02*
X131304819Y-135095237D01*
X131304819Y-135095237D02*
X131304819Y-134904761D01*
X131304819Y-134904761D02*
X131257200Y-134809523D01*
X131257200Y-134809523D02*
X131209580Y-134761904D01*
X131209580Y-134761904D02*
X131114342Y-134714285D01*
X131114342Y-134714285D02*
X130923866Y-134714285D01*
X130923866Y-134714285D02*
X130828628Y-134761904D01*
X130828628Y-134761904D02*
X130781009Y-134809523D01*
X130781009Y-134809523D02*
X130733390Y-134904761D01*
X63166667Y-37304819D02*
X63166667Y-36304819D01*
X63166667Y-36304819D02*
X63500000Y-37019104D01*
X63500000Y-37019104D02*
X63833333Y-36304819D01*
X63833333Y-36304819D02*
X63833333Y-37304819D01*
X64309524Y-37304819D02*
X64309524Y-36304819D01*
X64309524Y-36781009D02*
X64880952Y-36781009D01*
X64880952Y-37304819D02*
X64880952Y-36304819D01*
X65309524Y-36400057D02*
X65357143Y-36352438D01*
X65357143Y-36352438D02*
X65452381Y-36304819D01*
X65452381Y-36304819D02*
X65690476Y-36304819D01*
X65690476Y-36304819D02*
X65785714Y-36352438D01*
X65785714Y-36352438D02*
X65833333Y-36400057D01*
X65833333Y-36400057D02*
X65880952Y-36495295D01*
X65880952Y-36495295D02*
X65880952Y-36590533D01*
X65880952Y-36590533D02*
X65833333Y-36733390D01*
X65833333Y-36733390D02*
X65261905Y-37304819D01*
X65261905Y-37304819D02*
X65880952Y-37304819D01*
X143357142Y-83624819D02*
X143023809Y-83148628D01*
X142785714Y-83624819D02*
X142785714Y-82624819D01*
X142785714Y-82624819D02*
X143166666Y-82624819D01*
X143166666Y-82624819D02*
X143261904Y-82672438D01*
X143261904Y-82672438D02*
X143309523Y-82720057D01*
X143309523Y-82720057D02*
X143357142Y-82815295D01*
X143357142Y-82815295D02*
X143357142Y-82958152D01*
X143357142Y-82958152D02*
X143309523Y-83053390D01*
X143309523Y-83053390D02*
X143261904Y-83101009D01*
X143261904Y-83101009D02*
X143166666Y-83148628D01*
X143166666Y-83148628D02*
X142785714Y-83148628D01*
X144309523Y-83624819D02*
X143738095Y-83624819D01*
X144023809Y-83624819D02*
X144023809Y-82624819D01*
X144023809Y-82624819D02*
X143928571Y-82767676D01*
X143928571Y-82767676D02*
X143833333Y-82862914D01*
X143833333Y-82862914D02*
X143738095Y-82910533D01*
X145214285Y-82624819D02*
X144738095Y-82624819D01*
X144738095Y-82624819D02*
X144690476Y-83101009D01*
X144690476Y-83101009D02*
X144738095Y-83053390D01*
X144738095Y-83053390D02*
X144833333Y-83005771D01*
X144833333Y-83005771D02*
X145071428Y-83005771D01*
X145071428Y-83005771D02*
X145166666Y-83053390D01*
X145166666Y-83053390D02*
X145214285Y-83101009D01*
X145214285Y-83101009D02*
X145261904Y-83196247D01*
X145261904Y-83196247D02*
X145261904Y-83434342D01*
X145261904Y-83434342D02*
X145214285Y-83529580D01*
X145214285Y-83529580D02*
X145166666Y-83577200D01*
X145166666Y-83577200D02*
X145071428Y-83624819D01*
X145071428Y-83624819D02*
X144833333Y-83624819D01*
X144833333Y-83624819D02*
X144738095Y-83577200D01*
X144738095Y-83577200D02*
X144690476Y-83529580D01*
X139059580Y-27166666D02*
X139107200Y-27214285D01*
X139107200Y-27214285D02*
X139154819Y-27357142D01*
X139154819Y-27357142D02*
X139154819Y-27452380D01*
X139154819Y-27452380D02*
X139107200Y-27595237D01*
X139107200Y-27595237D02*
X139011961Y-27690475D01*
X139011961Y-27690475D02*
X138916723Y-27738094D01*
X138916723Y-27738094D02*
X138726247Y-27785713D01*
X138726247Y-27785713D02*
X138583390Y-27785713D01*
X138583390Y-27785713D02*
X138392914Y-27738094D01*
X138392914Y-27738094D02*
X138297676Y-27690475D01*
X138297676Y-27690475D02*
X138202438Y-27595237D01*
X138202438Y-27595237D02*
X138154819Y-27452380D01*
X138154819Y-27452380D02*
X138154819Y-27357142D01*
X138154819Y-27357142D02*
X138202438Y-27214285D01*
X138202438Y-27214285D02*
X138250057Y-27166666D01*
X139154819Y-26166666D02*
X138678628Y-26499999D01*
X139154819Y-26738094D02*
X138154819Y-26738094D01*
X138154819Y-26738094D02*
X138154819Y-26357142D01*
X138154819Y-26357142D02*
X138202438Y-26261904D01*
X138202438Y-26261904D02*
X138250057Y-26214285D01*
X138250057Y-26214285D02*
X138345295Y-26166666D01*
X138345295Y-26166666D02*
X138488152Y-26166666D01*
X138488152Y-26166666D02*
X138583390Y-26214285D01*
X138583390Y-26214285D02*
X138631009Y-26261904D01*
X138631009Y-26261904D02*
X138678628Y-26357142D01*
X138678628Y-26357142D02*
X138678628Y-26738094D01*
X139154819Y-25214285D02*
X139154819Y-25785713D01*
X139154819Y-25499999D02*
X138154819Y-25499999D01*
X138154819Y-25499999D02*
X138297676Y-25595237D01*
X138297676Y-25595237D02*
X138392914Y-25690475D01*
X138392914Y-25690475D02*
X138440533Y-25785713D01*
X153857142Y-123509580D02*
X153809523Y-123557200D01*
X153809523Y-123557200D02*
X153666666Y-123604819D01*
X153666666Y-123604819D02*
X153571428Y-123604819D01*
X153571428Y-123604819D02*
X153428571Y-123557200D01*
X153428571Y-123557200D02*
X153333333Y-123461961D01*
X153333333Y-123461961D02*
X153285714Y-123366723D01*
X153285714Y-123366723D02*
X153238095Y-123176247D01*
X153238095Y-123176247D02*
X153238095Y-123033390D01*
X153238095Y-123033390D02*
X153285714Y-122842914D01*
X153285714Y-122842914D02*
X153333333Y-122747676D01*
X153333333Y-122747676D02*
X153428571Y-122652438D01*
X153428571Y-122652438D02*
X153571428Y-122604819D01*
X153571428Y-122604819D02*
X153666666Y-122604819D01*
X153666666Y-122604819D02*
X153809523Y-122652438D01*
X153809523Y-122652438D02*
X153857142Y-122700057D01*
X154238095Y-122700057D02*
X154285714Y-122652438D01*
X154285714Y-122652438D02*
X154380952Y-122604819D01*
X154380952Y-122604819D02*
X154619047Y-122604819D01*
X154619047Y-122604819D02*
X154714285Y-122652438D01*
X154714285Y-122652438D02*
X154761904Y-122700057D01*
X154761904Y-122700057D02*
X154809523Y-122795295D01*
X154809523Y-122795295D02*
X154809523Y-122890533D01*
X154809523Y-122890533D02*
X154761904Y-123033390D01*
X154761904Y-123033390D02*
X154190476Y-123604819D01*
X154190476Y-123604819D02*
X154809523Y-123604819D01*
X155428571Y-122604819D02*
X155523809Y-122604819D01*
X155523809Y-122604819D02*
X155619047Y-122652438D01*
X155619047Y-122652438D02*
X155666666Y-122700057D01*
X155666666Y-122700057D02*
X155714285Y-122795295D01*
X155714285Y-122795295D02*
X155761904Y-122985771D01*
X155761904Y-122985771D02*
X155761904Y-123223866D01*
X155761904Y-123223866D02*
X155714285Y-123414342D01*
X155714285Y-123414342D02*
X155666666Y-123509580D01*
X155666666Y-123509580D02*
X155619047Y-123557200D01*
X155619047Y-123557200D02*
X155523809Y-123604819D01*
X155523809Y-123604819D02*
X155428571Y-123604819D01*
X155428571Y-123604819D02*
X155333333Y-123557200D01*
X155333333Y-123557200D02*
X155285714Y-123509580D01*
X155285714Y-123509580D02*
X155238095Y-123414342D01*
X155238095Y-123414342D02*
X155190476Y-123223866D01*
X155190476Y-123223866D02*
X155190476Y-122985771D01*
X155190476Y-122985771D02*
X155238095Y-122795295D01*
X155238095Y-122795295D02*
X155285714Y-122700057D01*
X155285714Y-122700057D02*
X155333333Y-122652438D01*
X155333333Y-122652438D02*
X155428571Y-122604819D01*
X81124819Y-32666666D02*
X80648628Y-32999999D01*
X81124819Y-33238094D02*
X80124819Y-33238094D01*
X80124819Y-33238094D02*
X80124819Y-32857142D01*
X80124819Y-32857142D02*
X80172438Y-32761904D01*
X80172438Y-32761904D02*
X80220057Y-32714285D01*
X80220057Y-32714285D02*
X80315295Y-32666666D01*
X80315295Y-32666666D02*
X80458152Y-32666666D01*
X80458152Y-32666666D02*
X80553390Y-32714285D01*
X80553390Y-32714285D02*
X80601009Y-32761904D01*
X80601009Y-32761904D02*
X80648628Y-32857142D01*
X80648628Y-32857142D02*
X80648628Y-33238094D01*
X81124819Y-32190475D02*
X81124819Y-31999999D01*
X81124819Y-31999999D02*
X81077200Y-31904761D01*
X81077200Y-31904761D02*
X81029580Y-31857142D01*
X81029580Y-31857142D02*
X80886723Y-31761904D01*
X80886723Y-31761904D02*
X80696247Y-31714285D01*
X80696247Y-31714285D02*
X80315295Y-31714285D01*
X80315295Y-31714285D02*
X80220057Y-31761904D01*
X80220057Y-31761904D02*
X80172438Y-31809523D01*
X80172438Y-31809523D02*
X80124819Y-31904761D01*
X80124819Y-31904761D02*
X80124819Y-32095237D01*
X80124819Y-32095237D02*
X80172438Y-32190475D01*
X80172438Y-32190475D02*
X80220057Y-32238094D01*
X80220057Y-32238094D02*
X80315295Y-32285713D01*
X80315295Y-32285713D02*
X80553390Y-32285713D01*
X80553390Y-32285713D02*
X80648628Y-32238094D01*
X80648628Y-32238094D02*
X80696247Y-32190475D01*
X80696247Y-32190475D02*
X80743866Y-32095237D01*
X80743866Y-32095237D02*
X80743866Y-31904761D01*
X80743866Y-31904761D02*
X80696247Y-31809523D01*
X80696247Y-31809523D02*
X80648628Y-31761904D01*
X80648628Y-31761904D02*
X80553390Y-31714285D01*
X147369642Y-131124819D02*
X147036309Y-130648628D01*
X146798214Y-131124819D02*
X146798214Y-130124819D01*
X146798214Y-130124819D02*
X147179166Y-130124819D01*
X147179166Y-130124819D02*
X147274404Y-130172438D01*
X147274404Y-130172438D02*
X147322023Y-130220057D01*
X147322023Y-130220057D02*
X147369642Y-130315295D01*
X147369642Y-130315295D02*
X147369642Y-130458152D01*
X147369642Y-130458152D02*
X147322023Y-130553390D01*
X147322023Y-130553390D02*
X147274404Y-130601009D01*
X147274404Y-130601009D02*
X147179166Y-130648628D01*
X147179166Y-130648628D02*
X146798214Y-130648628D01*
X148322023Y-131124819D02*
X147750595Y-131124819D01*
X148036309Y-131124819D02*
X148036309Y-130124819D01*
X148036309Y-130124819D02*
X147941071Y-130267676D01*
X147941071Y-130267676D02*
X147845833Y-130362914D01*
X147845833Y-130362914D02*
X147750595Y-130410533D01*
X149179166Y-130124819D02*
X148988690Y-130124819D01*
X148988690Y-130124819D02*
X148893452Y-130172438D01*
X148893452Y-130172438D02*
X148845833Y-130220057D01*
X148845833Y-130220057D02*
X148750595Y-130362914D01*
X148750595Y-130362914D02*
X148702976Y-130553390D01*
X148702976Y-130553390D02*
X148702976Y-130934342D01*
X148702976Y-130934342D02*
X148750595Y-131029580D01*
X148750595Y-131029580D02*
X148798214Y-131077200D01*
X148798214Y-131077200D02*
X148893452Y-131124819D01*
X148893452Y-131124819D02*
X149083928Y-131124819D01*
X149083928Y-131124819D02*
X149179166Y-131077200D01*
X149179166Y-131077200D02*
X149226785Y-131029580D01*
X149226785Y-131029580D02*
X149274404Y-130934342D01*
X149274404Y-130934342D02*
X149274404Y-130696247D01*
X149274404Y-130696247D02*
X149226785Y-130601009D01*
X149226785Y-130601009D02*
X149179166Y-130553390D01*
X149179166Y-130553390D02*
X149083928Y-130505771D01*
X149083928Y-130505771D02*
X148893452Y-130505771D01*
X148893452Y-130505771D02*
X148798214Y-130553390D01*
X148798214Y-130553390D02*
X148750595Y-130601009D01*
X148750595Y-130601009D02*
X148702976Y-130696247D01*
X160369642Y-131124819D02*
X160036309Y-130648628D01*
X159798214Y-131124819D02*
X159798214Y-130124819D01*
X159798214Y-130124819D02*
X160179166Y-130124819D01*
X160179166Y-130124819D02*
X160274404Y-130172438D01*
X160274404Y-130172438D02*
X160322023Y-130220057D01*
X160322023Y-130220057D02*
X160369642Y-130315295D01*
X160369642Y-130315295D02*
X160369642Y-130458152D01*
X160369642Y-130458152D02*
X160322023Y-130553390D01*
X160322023Y-130553390D02*
X160274404Y-130601009D01*
X160274404Y-130601009D02*
X160179166Y-130648628D01*
X160179166Y-130648628D02*
X159798214Y-130648628D01*
X161322023Y-131124819D02*
X160750595Y-131124819D01*
X161036309Y-131124819D02*
X161036309Y-130124819D01*
X161036309Y-130124819D02*
X160941071Y-130267676D01*
X160941071Y-130267676D02*
X160845833Y-130362914D01*
X160845833Y-130362914D02*
X160750595Y-130410533D01*
X161893452Y-130553390D02*
X161798214Y-130505771D01*
X161798214Y-130505771D02*
X161750595Y-130458152D01*
X161750595Y-130458152D02*
X161702976Y-130362914D01*
X161702976Y-130362914D02*
X161702976Y-130315295D01*
X161702976Y-130315295D02*
X161750595Y-130220057D01*
X161750595Y-130220057D02*
X161798214Y-130172438D01*
X161798214Y-130172438D02*
X161893452Y-130124819D01*
X161893452Y-130124819D02*
X162083928Y-130124819D01*
X162083928Y-130124819D02*
X162179166Y-130172438D01*
X162179166Y-130172438D02*
X162226785Y-130220057D01*
X162226785Y-130220057D02*
X162274404Y-130315295D01*
X162274404Y-130315295D02*
X162274404Y-130362914D01*
X162274404Y-130362914D02*
X162226785Y-130458152D01*
X162226785Y-130458152D02*
X162179166Y-130505771D01*
X162179166Y-130505771D02*
X162083928Y-130553390D01*
X162083928Y-130553390D02*
X161893452Y-130553390D01*
X161893452Y-130553390D02*
X161798214Y-130601009D01*
X161798214Y-130601009D02*
X161750595Y-130648628D01*
X161750595Y-130648628D02*
X161702976Y-130743866D01*
X161702976Y-130743866D02*
X161702976Y-130934342D01*
X161702976Y-130934342D02*
X161750595Y-131029580D01*
X161750595Y-131029580D02*
X161798214Y-131077200D01*
X161798214Y-131077200D02*
X161893452Y-131124819D01*
X161893452Y-131124819D02*
X162083928Y-131124819D01*
X162083928Y-131124819D02*
X162179166Y-131077200D01*
X162179166Y-131077200D02*
X162226785Y-131029580D01*
X162226785Y-131029580D02*
X162274404Y-130934342D01*
X162274404Y-130934342D02*
X162274404Y-130743866D01*
X162274404Y-130743866D02*
X162226785Y-130648628D01*
X162226785Y-130648628D02*
X162179166Y-130601009D01*
X162179166Y-130601009D02*
X162083928Y-130553390D01*
X120307142Y-29624819D02*
X119973809Y-29148628D01*
X119735714Y-29624819D02*
X119735714Y-28624819D01*
X119735714Y-28624819D02*
X120116666Y-28624819D01*
X120116666Y-28624819D02*
X120211904Y-28672438D01*
X120211904Y-28672438D02*
X120259523Y-28720057D01*
X120259523Y-28720057D02*
X120307142Y-28815295D01*
X120307142Y-28815295D02*
X120307142Y-28958152D01*
X120307142Y-28958152D02*
X120259523Y-29053390D01*
X120259523Y-29053390D02*
X120211904Y-29101009D01*
X120211904Y-29101009D02*
X120116666Y-29148628D01*
X120116666Y-29148628D02*
X119735714Y-29148628D01*
X121259523Y-29624819D02*
X120688095Y-29624819D01*
X120973809Y-29624819D02*
X120973809Y-28624819D01*
X120973809Y-28624819D02*
X120878571Y-28767676D01*
X120878571Y-28767676D02*
X120783333Y-28862914D01*
X120783333Y-28862914D02*
X120688095Y-28910533D01*
X122116666Y-28958152D02*
X122116666Y-29624819D01*
X121878571Y-28577200D02*
X121640476Y-29291485D01*
X121640476Y-29291485D02*
X122259523Y-29291485D01*
X175833333Y-107954819D02*
X175500000Y-107478628D01*
X175261905Y-107954819D02*
X175261905Y-106954819D01*
X175261905Y-106954819D02*
X175642857Y-106954819D01*
X175642857Y-106954819D02*
X175738095Y-107002438D01*
X175738095Y-107002438D02*
X175785714Y-107050057D01*
X175785714Y-107050057D02*
X175833333Y-107145295D01*
X175833333Y-107145295D02*
X175833333Y-107288152D01*
X175833333Y-107288152D02*
X175785714Y-107383390D01*
X175785714Y-107383390D02*
X175738095Y-107431009D01*
X175738095Y-107431009D02*
X175642857Y-107478628D01*
X175642857Y-107478628D02*
X175261905Y-107478628D01*
X176690476Y-107288152D02*
X176690476Y-107954819D01*
X176452381Y-106907200D02*
X176214286Y-107621485D01*
X176214286Y-107621485D02*
X176833333Y-107621485D01*
X79709580Y-39166666D02*
X79757200Y-39214285D01*
X79757200Y-39214285D02*
X79804819Y-39357142D01*
X79804819Y-39357142D02*
X79804819Y-39452380D01*
X79804819Y-39452380D02*
X79757200Y-39595237D01*
X79757200Y-39595237D02*
X79661961Y-39690475D01*
X79661961Y-39690475D02*
X79566723Y-39738094D01*
X79566723Y-39738094D02*
X79376247Y-39785713D01*
X79376247Y-39785713D02*
X79233390Y-39785713D01*
X79233390Y-39785713D02*
X79042914Y-39738094D01*
X79042914Y-39738094D02*
X78947676Y-39690475D01*
X78947676Y-39690475D02*
X78852438Y-39595237D01*
X78852438Y-39595237D02*
X78804819Y-39452380D01*
X78804819Y-39452380D02*
X78804819Y-39357142D01*
X78804819Y-39357142D02*
X78852438Y-39214285D01*
X78852438Y-39214285D02*
X78900057Y-39166666D01*
X79804819Y-38690475D02*
X79804819Y-38499999D01*
X79804819Y-38499999D02*
X79757200Y-38404761D01*
X79757200Y-38404761D02*
X79709580Y-38357142D01*
X79709580Y-38357142D02*
X79566723Y-38261904D01*
X79566723Y-38261904D02*
X79376247Y-38214285D01*
X79376247Y-38214285D02*
X78995295Y-38214285D01*
X78995295Y-38214285D02*
X78900057Y-38261904D01*
X78900057Y-38261904D02*
X78852438Y-38309523D01*
X78852438Y-38309523D02*
X78804819Y-38404761D01*
X78804819Y-38404761D02*
X78804819Y-38595237D01*
X78804819Y-38595237D02*
X78852438Y-38690475D01*
X78852438Y-38690475D02*
X78900057Y-38738094D01*
X78900057Y-38738094D02*
X78995295Y-38785713D01*
X78995295Y-38785713D02*
X79233390Y-38785713D01*
X79233390Y-38785713D02*
X79328628Y-38738094D01*
X79328628Y-38738094D02*
X79376247Y-38690475D01*
X79376247Y-38690475D02*
X79423866Y-38595237D01*
X79423866Y-38595237D02*
X79423866Y-38404761D01*
X79423866Y-38404761D02*
X79376247Y-38309523D01*
X79376247Y-38309523D02*
X79328628Y-38261904D01*
X79328628Y-38261904D02*
X79233390Y-38214285D01*
X169209580Y-93166666D02*
X169257200Y-93214285D01*
X169257200Y-93214285D02*
X169304819Y-93357142D01*
X169304819Y-93357142D02*
X169304819Y-93452380D01*
X169304819Y-93452380D02*
X169257200Y-93595237D01*
X169257200Y-93595237D02*
X169161961Y-93690475D01*
X169161961Y-93690475D02*
X169066723Y-93738094D01*
X169066723Y-93738094D02*
X168876247Y-93785713D01*
X168876247Y-93785713D02*
X168733390Y-93785713D01*
X168733390Y-93785713D02*
X168542914Y-93738094D01*
X168542914Y-93738094D02*
X168447676Y-93690475D01*
X168447676Y-93690475D02*
X168352438Y-93595237D01*
X168352438Y-93595237D02*
X168304819Y-93452380D01*
X168304819Y-93452380D02*
X168304819Y-93357142D01*
X168304819Y-93357142D02*
X168352438Y-93214285D01*
X168352438Y-93214285D02*
X168400057Y-93166666D01*
X168400057Y-92785713D02*
X168352438Y-92738094D01*
X168352438Y-92738094D02*
X168304819Y-92642856D01*
X168304819Y-92642856D02*
X168304819Y-92404761D01*
X168304819Y-92404761D02*
X168352438Y-92309523D01*
X168352438Y-92309523D02*
X168400057Y-92261904D01*
X168400057Y-92261904D02*
X168495295Y-92214285D01*
X168495295Y-92214285D02*
X168590533Y-92214285D01*
X168590533Y-92214285D02*
X168733390Y-92261904D01*
X168733390Y-92261904D02*
X169304819Y-92833332D01*
X169304819Y-92833332D02*
X169304819Y-92214285D01*
X63166667Y-27304819D02*
X63166667Y-26304819D01*
X63166667Y-26304819D02*
X63500000Y-27019104D01*
X63500000Y-27019104D02*
X63833333Y-26304819D01*
X63833333Y-26304819D02*
X63833333Y-27304819D01*
X64309524Y-27304819D02*
X64309524Y-26304819D01*
X64309524Y-26781009D02*
X64880952Y-26781009D01*
X64880952Y-27304819D02*
X64880952Y-26304819D01*
X65880952Y-27304819D02*
X65309524Y-27304819D01*
X65595238Y-27304819D02*
X65595238Y-26304819D01*
X65595238Y-26304819D02*
X65500000Y-26447676D01*
X65500000Y-26447676D02*
X65404762Y-26542914D01*
X65404762Y-26542914D02*
X65309524Y-26590533D01*
%TO.C,R11*%
D11*
X86590000Y-31772936D02*
X86590000Y-33227064D01*
X88410000Y-31772936D02*
X88410000Y-33227064D01*
%TO.C,SW1*%
X74540000Y-25380000D02*
X74540000Y-24000000D01*
X75920000Y-25380000D02*
X74540000Y-25380000D01*
X77190000Y-25380000D02*
X87460000Y-25380000D01*
X77190000Y-25380000D02*
X77190000Y-22620000D01*
X87460000Y-25380000D02*
X87460000Y-22620000D01*
X77190000Y-22620000D02*
X87460000Y-22620000D01*
%TO.C,Control*%
X193450000Y-29700000D02*
X197800000Y-29700000D01*
X197800000Y-33300000D01*
X193450000Y-33300000D01*
X193450000Y-29700000D01*
X197800000Y-31250000D02*
X197500000Y-31250000D01*
X197500000Y-33000000D02*
X197500000Y-32000000D01*
X197500000Y-32000000D02*
X197800000Y-32000000D01*
X197500000Y-31250000D02*
X197500000Y-30150000D01*
X197500000Y-30150000D02*
X197200000Y-30150000D01*
X197200000Y-30150000D02*
X197200000Y-29700000D01*
X196000000Y-30150000D02*
X197200000Y-30150000D01*
X196000000Y-29850000D02*
X196000000Y-30150000D01*
X195250000Y-30150000D02*
X195250000Y-29850000D01*
X195250000Y-29850000D02*
X196000000Y-29850000D01*
X194050000Y-30150000D02*
X195250000Y-30150000D01*
X194050000Y-30150000D02*
X194050000Y-29700000D01*
X193750000Y-33000000D02*
X197500000Y-33000000D01*
X193750000Y-32000000D02*
X193750000Y-33000000D01*
X193750000Y-31250000D02*
X193750000Y-30150000D01*
X193750000Y-30150000D02*
X194050000Y-30150000D01*
X193450000Y-32000000D02*
X193750000Y-32000000D01*
X193450000Y-31250000D02*
X193750000Y-31250000D01*
X193140000Y-33610000D02*
X195050000Y-33610000D01*
X193140000Y-31700000D02*
X193140000Y-33610000D01*
%TO.C,R12*%
X145910000Y-33272936D02*
X145910000Y-34727064D01*
X144090000Y-33272936D02*
X144090000Y-34727064D01*
%TO.C,rPi1*%
X176469676Y-71539937D02*
G75*
G02*
X175890000Y-71960069I-579676J189837D01*
G01*
X175890000Y-20740000D02*
G75*
G02*
X176469676Y-21160063I0J-610000D01*
G01*
X155890000Y-71960000D02*
G75*
G02*
X155310324Y-71539937I1J610002D01*
G01*
X155310324Y-21160000D02*
G75*
G02*
X155890000Y-20740000I579692J-190051D01*
G01*
X176500000Y-69000000D02*
X176500000Y-69420000D01*
X176500000Y-66460000D02*
X176500000Y-66880000D01*
X176500000Y-63920000D02*
X176500000Y-64340000D01*
X176500000Y-61380000D02*
X176500000Y-61800000D01*
X176500000Y-58840000D02*
X176500000Y-59260000D01*
X176500000Y-56300000D02*
X176500000Y-56720000D01*
X176500000Y-53760000D02*
X176500000Y-54180000D01*
X176500000Y-51220000D02*
X176500000Y-51640000D01*
X176500000Y-48680000D02*
X176500000Y-49100000D01*
X176500000Y-46140000D02*
X176500000Y-46560000D01*
X176500000Y-43600000D02*
X176500000Y-44020000D01*
X176500000Y-41060000D02*
X176500000Y-41480000D01*
X176500000Y-38520000D02*
X176500000Y-38940000D01*
X176500000Y-35980000D02*
X176500000Y-36400000D01*
X176500000Y-33440000D02*
X176500000Y-33860000D01*
X176500000Y-30900000D02*
X176500000Y-31320000D01*
X176500000Y-28360000D02*
X176500000Y-28780000D01*
X176500000Y-25820000D02*
X176500000Y-26240000D01*
X176500000Y-23280000D02*
X176500000Y-23700000D01*
X176160000Y-71539937D02*
X176160000Y-71897000D01*
X176160000Y-69000000D02*
X176160000Y-69420000D01*
X176160000Y-66460000D02*
X176160000Y-66880000D01*
X176160000Y-63920000D02*
X176160000Y-64340000D01*
X176160000Y-61380000D02*
X176160000Y-61800000D01*
X176160000Y-58840000D02*
X176160000Y-59260000D01*
X176160000Y-56300000D02*
X176160000Y-56720000D01*
X176160000Y-53760000D02*
X176160000Y-54180000D01*
X176160000Y-51220000D02*
X176160000Y-51640000D01*
X176160000Y-48680000D02*
X176160000Y-49100000D01*
X176160000Y-46140000D02*
X176160000Y-46560000D01*
X176160000Y-43600000D02*
X176160000Y-44020000D01*
X176160000Y-41060000D02*
X176160000Y-41480000D01*
X176160000Y-38520000D02*
X176160000Y-38940000D01*
X176160000Y-35980000D02*
X176160000Y-36400000D01*
X176160000Y-33440000D02*
X176160000Y-33860000D01*
X176160000Y-30900000D02*
X176160000Y-31320000D01*
X176160000Y-28360000D02*
X176160000Y-28780000D01*
X176160000Y-25820000D02*
X176160000Y-26240000D01*
X176160000Y-23280000D02*
X176160000Y-23700000D01*
X176160000Y-21160063D02*
X176160000Y-20803000D01*
X175890000Y-20740000D02*
X173400000Y-20740000D01*
X173400000Y-71046480D02*
X173400000Y-71960000D01*
X173400000Y-24046480D02*
X173400000Y-68653520D01*
X173400000Y-20740000D02*
X173400000Y-21653520D01*
X172052061Y-71960000D02*
X175890000Y-71960000D01*
X172052061Y-20740000D02*
X173400000Y-20740000D01*
X171127939Y-71960000D02*
X169490000Y-71960000D01*
X170125000Y-20740000D02*
X171127939Y-20740000D01*
X169790000Y-24044000D02*
X169790000Y-25260000D01*
X169790000Y-20740000D02*
X169790000Y-21656000D01*
X169493910Y-25260000D02*
X169790000Y-25260000D01*
X169490000Y-71960000D02*
X162290000Y-71960000D01*
X164643910Y-25260000D02*
X167136090Y-25260000D01*
X162290000Y-71960000D02*
X160652061Y-71960000D01*
X161990000Y-25260000D02*
X162286090Y-25260000D01*
X161990000Y-24044000D02*
X161990000Y-25260000D01*
X161990000Y-20740000D02*
X161990000Y-21656000D01*
X161655000Y-20740000D02*
X170125000Y-20740000D01*
X160652061Y-20740000D02*
X161655000Y-20740000D01*
X158380000Y-71046480D02*
X158380000Y-71960000D01*
X158380000Y-24046480D02*
X158380000Y-68653520D01*
X158380000Y-20740000D02*
X159727940Y-20740000D01*
X158380000Y-20740000D02*
X158380000Y-21653520D01*
X155890000Y-71960000D02*
X159727939Y-71960000D01*
X155890000Y-20740000D02*
X158380000Y-20740000D01*
X155620000Y-71539937D02*
X155620000Y-71897000D01*
X155620000Y-69000000D02*
X155620000Y-69420000D01*
X155620000Y-66460000D02*
X155620000Y-66880000D01*
X155620000Y-63920000D02*
X155620000Y-64340000D01*
X155620000Y-61380000D02*
X155620000Y-61800000D01*
X155620000Y-58840000D02*
X155620000Y-59260000D01*
X155620000Y-56300000D02*
X155620000Y-56720000D01*
X155620000Y-53760000D02*
X155620000Y-54180000D01*
X155620000Y-51220000D02*
X155620000Y-51640000D01*
X155620000Y-48680000D02*
X155620000Y-49100000D01*
X155620000Y-46140000D02*
X155620000Y-46560000D01*
X155620000Y-43600000D02*
X155620000Y-44020000D01*
X155620000Y-41060000D02*
X155620000Y-41480000D01*
X155620000Y-38520000D02*
X155620000Y-38940000D01*
X155620000Y-35980000D02*
X155620000Y-36400000D01*
X155620000Y-33440000D02*
X155620000Y-33860000D01*
X155620000Y-30900000D02*
X155620000Y-31320000D01*
X155620000Y-28360000D02*
X155620000Y-28780000D01*
X155620000Y-25820000D02*
X155620000Y-26240000D01*
X155620000Y-23280000D02*
X155620000Y-23700000D01*
X155620000Y-21160063D02*
X155620000Y-20803000D01*
X155310324Y-21160000D02*
X154800000Y-21160000D01*
X155280000Y-69000000D02*
X155280000Y-69420000D01*
X155280000Y-66460000D02*
X155280000Y-66880000D01*
X155280000Y-63920000D02*
X155280000Y-64340000D01*
X155280000Y-61380000D02*
X155280000Y-61800000D01*
X155280000Y-58840000D02*
X155280000Y-59260000D01*
X155280000Y-56300000D02*
X155280000Y-56720000D01*
X155280000Y-53760000D02*
X155280000Y-54180000D01*
X155280000Y-51220000D02*
X155280000Y-51640000D01*
X155280000Y-48680000D02*
X155280000Y-49100000D01*
X155280000Y-46140000D02*
X155280000Y-46560000D01*
X155280000Y-43600000D02*
X155280000Y-44020000D01*
X155280000Y-41060000D02*
X155280000Y-41480000D01*
X155280000Y-38520000D02*
X155280000Y-38940000D01*
X155280000Y-35980000D02*
X155280000Y-36400000D01*
X155280000Y-33440000D02*
X155280000Y-33860000D01*
X155280000Y-30900000D02*
X155280000Y-31320000D01*
X155280000Y-28360000D02*
X155280000Y-28780000D01*
X155280000Y-25820000D02*
X155280000Y-26240000D01*
X155280000Y-23280000D02*
X155280000Y-23700000D01*
X155280000Y-23280000D02*
X154800000Y-23280000D01*
%TO.C,D10*%
X135850000Y-145890000D02*
X135850000Y-148550000D01*
X135850000Y-145890000D02*
X134150000Y-145890000D01*
X134150000Y-145890000D02*
X134150000Y-148550000D01*
%TO.C,TB1*%
X192890000Y-89000000D02*
X192890000Y-62890000D01*
X195110000Y-62890000D02*
X192890000Y-62890000D01*
X195110000Y-89000000D02*
X192890000Y-89000000D01*
X195110000Y-89000000D02*
X195110000Y-62890000D01*
X195110000Y-90000000D02*
X195110000Y-91110000D01*
X195110000Y-91110000D02*
X194000000Y-91110000D01*
%TO.C,C17*%
X117090000Y-74711252D02*
X117090000Y-73288748D01*
X118910000Y-74711252D02*
X118910000Y-73288748D01*
%TO.C,R17*%
X153785436Y-131590000D02*
X155239564Y-131590000D01*
X153785436Y-133410000D02*
X155239564Y-133410000D01*
%TO.C,U1*%
X165890000Y-159890000D02*
X166440000Y-159890000D01*
X165890000Y-160440000D02*
X165890000Y-159890000D01*
X165890000Y-174110000D02*
X165890000Y-173560000D01*
X166440000Y-174110000D02*
X165890000Y-174110000D01*
X179560000Y-159890000D02*
X180110000Y-159890000D01*
X180110000Y-159890000D02*
X180110000Y-160440000D01*
X180110000Y-173560000D02*
X180110000Y-174110000D01*
X180110000Y-174110000D02*
X179560000Y-174110000D01*
X165250000Y-160440000D02*
X164910000Y-159970000D01*
X165590000Y-159970000D01*
X165250000Y-160440000D01*
G36*
X165250000Y-160440000D02*
G01*
X164910000Y-159970000D01*
X165590000Y-159970000D01*
X165250000Y-160440000D01*
G37*
%TO.C,C10*%
X80711252Y-44590000D02*
X79288748Y-44590000D01*
X80711252Y-46410000D02*
X79288748Y-46410000D01*
%TO.C,i2S_Audio1*%
X190190000Y-41090000D02*
X194810000Y-41090000D01*
X194810000Y-47860000D02*
X190190000Y-47860000D01*
X188640000Y-41545000D02*
X188310000Y-41785000D01*
X188310000Y-41305000D01*
X188640000Y-41545000D01*
G36*
X188640000Y-41545000D02*
G01*
X188310000Y-41785000D01*
X188310000Y-41305000D01*
X188640000Y-41545000D01*
G37*
%TO.C,C19*%
X147288748Y-124090000D02*
X148711252Y-124090000D01*
X147288748Y-125910000D02*
X148711252Y-125910000D01*
%TO.C,C18*%
X135288748Y-33090000D02*
X136711252Y-33090000D01*
X135288748Y-34910000D02*
X136711252Y-34910000D01*
%TO.C,C11*%
X182426248Y-41590000D02*
X183848752Y-41590000D01*
X182426248Y-43410000D02*
X183848752Y-43410000D01*
%TO.C,C1*%
X171090000Y-92288748D02*
X171090000Y-93711252D01*
X172910000Y-92288748D02*
X172910000Y-93711252D01*
%TO.C,R10*%
X76590000Y-33227064D02*
X76590000Y-31772936D01*
X78410000Y-33227064D02*
X78410000Y-31772936D01*
%TO.C,SPi_Level1*%
X129615000Y-96810000D02*
X129615000Y-92190000D01*
X136385000Y-92190000D02*
X136385000Y-96810000D01*
X135930000Y-90640000D02*
X135690000Y-90310000D01*
X136170000Y-90310000D01*
X135930000Y-90640000D01*
G36*
X135930000Y-90640000D02*
G01*
X135690000Y-90310000D01*
X136170000Y-90310000D01*
X135930000Y-90640000D01*
G37*
%TO.C,C12*%
X123590000Y-74711252D02*
X123590000Y-73288748D01*
X125410000Y-74711252D02*
X125410000Y-73288748D01*
%TO.C,R6*%
X179090000Y-108272936D02*
X179090000Y-109727064D01*
X180910000Y-108272936D02*
X180910000Y-109727064D01*
%TO.C,R13*%
X128222936Y-30090000D02*
X129677064Y-30090000D01*
X128222936Y-31910000D02*
X129677064Y-31910000D01*
%TO.C,R20*%
X154285436Y-140090000D02*
X155739564Y-140090000D01*
X154285436Y-141910000D02*
X155739564Y-141910000D01*
%TO.C,C13*%
X182426248Y-36090000D02*
X183848752Y-36090000D01*
X182426248Y-37910000D02*
X183848752Y-37910000D01*
%TO.C,R2*%
X179090000Y-92772936D02*
X179090000Y-94227064D01*
X180910000Y-92772936D02*
X180910000Y-94227064D01*
%TO.C,D12*%
X140150000Y-157890000D02*
X140150000Y-160550000D01*
X141850000Y-157890000D02*
X140150000Y-157890000D01*
X141850000Y-157890000D02*
X141850000Y-160550000D01*
%TO.C,R1*%
X179090000Y-84772936D02*
X179090000Y-86227064D01*
X180910000Y-84772936D02*
X180910000Y-86227064D01*
%TO.C,R19*%
X147285436Y-140090000D02*
X148739564Y-140090000D01*
X147285436Y-141910000D02*
X148739564Y-141910000D01*
%TO.C,C4*%
X171590000Y-108288748D02*
X171590000Y-109711252D01*
X173410000Y-108288748D02*
X173410000Y-109711252D01*
%TO.C,R5*%
X179090000Y-100272936D02*
X179090000Y-101727064D01*
X180910000Y-100272936D02*
X180910000Y-101727064D01*
%TO.C,D11*%
X137150000Y-151890000D02*
X137150000Y-154550000D01*
X138850000Y-151890000D02*
X137150000Y-151890000D01*
X138850000Y-151890000D02*
X138850000Y-154550000D01*
%TO.C,C21*%
X160288748Y-124090000D02*
X161711252Y-124090000D01*
X160288748Y-125910000D02*
X161711252Y-125910000D01*
%TO.C,C16*%
X161590000Y-82648752D02*
X161590000Y-81226248D01*
X163410000Y-82648752D02*
X163410000Y-81226248D01*
%TO.C,C14*%
X182288748Y-52590000D02*
X183711252Y-52590000D01*
X182288748Y-54410000D02*
X183711252Y-54410000D01*
%TO.C,C15*%
X182288748Y-47090000D02*
X183711252Y-47090000D01*
X182288748Y-48910000D02*
X183711252Y-48910000D01*
%TO.C,D9*%
X131150000Y-139890000D02*
X131150000Y-142550000D01*
X132850000Y-139890000D02*
X131150000Y-139890000D01*
X132850000Y-139890000D02*
X132850000Y-142550000D01*
%TO.C,R3*%
X176727064Y-88590000D02*
X175272936Y-88590000D01*
X176727064Y-90410000D02*
X175272936Y-90410000D01*
%TO.C,CR2*%
D12*
X138971300Y-40925200D02*
X138971300Y-44074800D01*
X141028700Y-44074800D02*
X141028700Y-40925200D01*
%TO.C,C3*%
D11*
X166590000Y-108288748D02*
X166590000Y-109711252D01*
X168410000Y-108288748D02*
X168410000Y-109711252D01*
%TO.C,D8*%
X128150000Y-133890000D02*
X128150000Y-136550000D01*
X129850000Y-133890000D02*
X128150000Y-133890000D01*
X129850000Y-133890000D02*
X129850000Y-136550000D01*
%TO.C,R15*%
X143272936Y-84090000D02*
X144727064Y-84090000D01*
X143272936Y-85910000D02*
X144727064Y-85910000D01*
%TO.C,CR1*%
D12*
X139471300Y-24925200D02*
X139471300Y-28074800D01*
X141528700Y-28074800D02*
X141528700Y-24925200D01*
%TO.C,C20*%
D11*
X153788748Y-124090000D02*
X155211252Y-124090000D01*
X153788748Y-125910000D02*
X155211252Y-125910000D01*
%TO.C,R9*%
X81590000Y-33227064D02*
X81590000Y-31772936D01*
X83410000Y-33227064D02*
X83410000Y-31772936D01*
%TO.C,R16*%
X147285436Y-131590000D02*
X148739564Y-131590000D01*
X147285436Y-133410000D02*
X148739564Y-133410000D01*
%TO.C,R18*%
X160285436Y-131590000D02*
X161739564Y-131590000D01*
X160285436Y-133410000D02*
X161739564Y-133410000D01*
%TO.C,R14*%
X120222936Y-30090000D02*
X121677064Y-30090000D01*
X120222936Y-31910000D02*
X121677064Y-31910000D01*
%TO.C,R4*%
X176727064Y-104090000D02*
X175272936Y-104090000D01*
X176727064Y-105910000D02*
X175272936Y-105910000D01*
%TO.C,C9*%
X76590000Y-38288748D02*
X76590000Y-39711252D01*
X78410000Y-38288748D02*
X78410000Y-39711252D01*
%TO.C,C2*%
X166090000Y-92288748D02*
X166090000Y-93711252D01*
X167910000Y-92288748D02*
X167910000Y-93711252D01*
%TD*%
M02*
