%TF.GenerationSoftware,KiCad,Pcbnew,10.0.3*%
%TF.CreationDate,2026-07-14T22:36:17+02:00*%
%TF.ProjectId,CDJAY100S,43444a41-5931-4303-9053-2e6b69636164,rev?*%
%TF.SameCoordinates,Original*%
%TF.FileFunction,Soldermask,Top*%
%TF.FilePolarity,Negative*%
%FSLAX46Y46*%
G04 Gerber Fmt 4.6, Leading zero omitted, Abs format (unit mm)*
G04 Created by KiCad (PCBNEW 10.0.3) date 2026-07-14 22:36:17*
%MOMM*%
%LPD*%
G01*
G04 APERTURE LIST*
G04 Aperture macros list*
%AMRoundRect*
0 Rectangle with rounded corners*
0 $1 Rounding radius*
0 $2 $3 $4 $5 $6 $7 $8 $9 X,Y pos of 4 corners*
0 Add a 4 corners polygon primitive as box body*
4,1,4,$2,$3,$4,$5,$6,$7,$8,$9,$2,$3,0*
0 Add four circle primitives for the rounded corners*
1,1,$1+$1,$2,$3*
1,1,$1+$1,$4,$5*
1,1,$1+$1,$6,$7*
1,1,$1+$1,$8,$9*
0 Add four rect primitives between the rounded corners*
20,1,$1+$1,$2,$3,$4,$5,0*
20,1,$1+$1,$4,$5,$6,$7,0*
20,1,$1+$1,$6,$7,$8,$9,0*
20,1,$1+$1,$8,$9,$2,$3,0*%
%AMFreePoly0*
4,1,37,0.800000,0.796148,0.878414,0.796148,1.032228,0.765552,1.177117,0.705537,1.307515,0.618408,1.418408,0.507515,1.505537,0.377117,1.565552,0.232228,1.596148,0.078414,1.596148,-0.078414,1.565552,-0.232228,1.505537,-0.377117,1.418408,-0.507515,1.307515,-0.618408,1.177117,-0.705537,1.032228,-0.765552,0.878414,-0.796148,0.800000,-0.796148,0.800000,-0.800000,-1.400000,-0.800000,
-1.403843,-0.796157,-1.439018,-0.796157,-1.511114,-0.766294,-1.566294,-0.711114,-1.596157,-0.639018,-1.596157,-0.603843,-1.600000,-0.600000,-1.600000,0.600000,-1.596157,0.603843,-1.596157,0.639018,-1.566294,0.711114,-1.511114,0.766294,-1.439018,0.796157,-1.403843,0.796157,-1.400000,0.800000,0.800000,0.800000,0.800000,0.796148,0.800000,0.796148,$1*%
%AMFreePoly1*
4,1,37,0.000000,0.796148,0.078414,0.796148,0.232228,0.765552,0.377117,0.705537,0.507515,0.618408,0.618408,0.507515,0.705537,0.377117,0.765552,0.232228,0.796148,0.078414,0.796148,-0.078414,0.765552,-0.232228,0.705537,-0.377117,0.618408,-0.507515,0.507515,-0.618408,0.377117,-0.705537,0.232228,-0.765552,0.078414,-0.796148,0.000000,-0.796148,0.000000,-0.800000,-0.600000,-0.800000,
-0.603843,-0.796157,-0.639018,-0.796157,-0.711114,-0.766294,-0.766294,-0.711114,-0.796157,-0.639018,-0.796157,-0.603843,-0.800000,-0.600000,-0.800000,0.600000,-0.796157,0.603843,-0.796157,0.639018,-0.766294,0.711114,-0.711114,0.766294,-0.639018,0.796157,-0.603843,0.796157,-0.600000,0.800000,0.000000,0.800000,0.000000,0.796148,0.000000,0.796148,$1*%
%AMFreePoly2*
4,1,37,0.603843,0.796157,0.639018,0.796157,0.711114,0.766294,0.766294,0.711114,0.796157,0.639018,0.796157,0.603843,0.800000,0.600000,0.800000,-0.600000,0.796157,-0.603843,0.796157,-0.639018,0.766294,-0.711114,0.711114,-0.766294,0.639018,-0.796157,0.603843,-0.796157,0.600000,-0.800000,0.000000,-0.800000,0.000000,-0.796148,-0.078414,-0.796148,-0.232228,-0.765552,-0.377117,-0.705537,
-0.507515,-0.618408,-0.618408,-0.507515,-0.705537,-0.377117,-0.765552,-0.232228,-0.796148,-0.078414,-0.796148,0.078414,-0.765552,0.232228,-0.705537,0.377117,-0.618408,0.507515,-0.507515,0.618408,-0.377117,0.705537,-0.232228,0.765552,-0.078414,0.796148,0.000000,0.796148,0.000000,0.800000,0.600000,0.800000,0.603843,0.796157,0.603843,0.796157,$1*%
%AMFreePoly3*
4,1,37,1.403843,0.796157,1.439018,0.796157,1.511114,0.766294,1.566294,0.711114,1.596157,0.639018,1.596157,0.603843,1.600000,0.600000,1.600000,-0.600000,1.596157,-0.603843,1.596157,-0.639018,1.566294,-0.711114,1.511114,-0.766294,1.439018,-0.796157,1.403843,-0.796157,1.400000,-0.800000,-0.800000,-0.800000,-0.800000,-0.796148,-0.878414,-0.796148,-1.032228,-0.765552,-1.177117,-0.705537,
-1.307515,-0.618408,-1.418408,-0.507515,-1.505537,-0.377117,-1.565552,-0.232228,-1.596148,-0.078414,-1.596148,0.078414,-1.565552,0.232228,-1.505537,0.377117,-1.418408,0.507515,-1.307515,0.618408,-1.177117,0.705537,-1.032228,0.765552,-0.878414,0.796148,-0.800000,0.796148,-0.800000,0.800000,1.400000,0.800000,1.403843,0.796157,1.403843,0.796157,$1*%
G04 Aperture macros list end*
%ADD10RoundRect,0.250000X-0.625000X0.400000X-0.625000X-0.400000X0.625000X-0.400000X0.625000X0.400000X0*%
%ADD11R,1.700000X1.700000*%
%ADD12C,1.700000*%
%ADD13C,2.200000*%
%ADD14O,0.900000X1.400000*%
%ADD15RoundRect,0.225000X-0.225000X-0.475000X0.225000X-0.475000X0.225000X0.475000X-0.225000X0.475000X0*%
%ADD16RoundRect,0.800000X-0.800000X-0.000010X0.800000X-0.000010X0.800000X0.000010X-0.800000X0.000010X0*%
%ADD17C,1.600000*%
%ADD18FreePoly0,0.000000*%
%ADD19FreePoly1,0.000000*%
%ADD20FreePoly2,0.000000*%
%ADD21FreePoly3,0.000000*%
%ADD22RoundRect,0.200000X-0.600000X-0.600000X0.600000X-0.600000X0.600000X0.600000X-0.600000X0.600000X0*%
%ADD23C,1.850000*%
%ADD24RoundRect,0.125000X-0.125000X0.125000X-0.125000X-0.125000X0.125000X-0.125000X0.125000X0.125000X0*%
%ADD25R,1.350000X1.350000*%
%ADD26C,1.350000*%
%ADD27RoundRect,0.250000X0.650000X-0.412500X0.650000X0.412500X-0.650000X0.412500X-0.650000X-0.412500X0*%
%ADD28RoundRect,0.250000X-0.400000X-0.625000X0.400000X-0.625000X0.400000X0.625000X-0.400000X0.625000X0*%
%ADD29RoundRect,0.150000X-0.625000X-0.150000X0.625000X-0.150000X0.625000X0.150000X-0.625000X0.150000X0*%
%ADD30RoundRect,0.150000X-0.150000X-0.625000X0.150000X-0.625000X0.150000X0.625000X-0.150000X0.625000X0*%
%ADD31RoundRect,0.250000X0.412500X0.650000X-0.412500X0.650000X-0.412500X-0.650000X0.412500X-0.650000X0*%
%ADD32RoundRect,0.100000X-0.637500X-0.100000X0.637500X-0.100000X0.637500X0.100000X-0.637500X0.100000X0*%
%ADD33RoundRect,0.250000X-0.412500X-0.650000X0.412500X-0.650000X0.412500X0.650000X-0.412500X0.650000X0*%
%ADD34RoundRect,0.250000X-0.650000X0.412500X-0.650000X-0.412500X0.650000X-0.412500X0.650000X0.412500X0*%
%ADD35RoundRect,0.250000X0.625000X-0.400000X0.625000X0.400000X-0.625000X0.400000X-0.625000X-0.400000X0*%
%ADD36RoundRect,0.100000X-0.100000X0.637500X-0.100000X-0.637500X0.100000X-0.637500X0.100000X0.637500X0*%
%ADD37RoundRect,0.250000X0.400000X0.625000X-0.400000X0.625000X-0.400000X-0.625000X0.400000X-0.625000X0*%
%ADD38R,1.092200X1.143000*%
%ADD39RoundRect,0.225000X0.525000X-0.525000X0.525000X0.525000X-0.525000X0.525000X-0.525000X-0.525000X0*%
G04 APERTURE END LIST*
D10*
%TO.C,R11*%
X87500000Y-30950000D03*
X87500000Y-34050000D03*
%TD*%
D11*
%TO.C,SW1*%
X75920000Y-24000000D03*
D12*
X78460000Y-24000000D03*
X81000000Y-24000000D03*
X83540000Y-24000000D03*
X86080000Y-24000000D03*
%TD*%
D13*
%TO.C,MH4*%
X184500000Y-198000000D03*
%TD*%
%TO.C,MH3*%
X185000000Y-25000000D03*
%TD*%
D14*
%TO.C,Control*%
X196250000Y-32000000D03*
D15*
X195000000Y-32000000D03*
%TD*%
D10*
%TO.C,R12*%
X145000000Y-35550000D03*
X145000000Y-32450000D03*
%TD*%
D16*
%TO.C,rPi1*%
X175580000Y-22220000D03*
D17*
X174780000Y-22220000D03*
D16*
X175580000Y-24760000D03*
D17*
X174780000Y-24760000D03*
D18*
X175580000Y-27300000D03*
D19*
X174780000Y-27300000D03*
D16*
X175580000Y-29840000D03*
D17*
X174780000Y-29840000D03*
D16*
X175580000Y-32380000D03*
D17*
X174780000Y-32380000D03*
D16*
X175580000Y-34920000D03*
D17*
X174780000Y-34920000D03*
D16*
X175580000Y-37460000D03*
D17*
X174780000Y-37460000D03*
D18*
X175580000Y-40000000D03*
D19*
X174780000Y-40000000D03*
D16*
X175580000Y-42540000D03*
D17*
X174780000Y-42540000D03*
D16*
X175580000Y-45080000D03*
D17*
X174780000Y-45080000D03*
D16*
X175580000Y-47620000D03*
D17*
X174780000Y-47620000D03*
D16*
X175580000Y-50160000D03*
D17*
X174780000Y-50160000D03*
D18*
X175580000Y-52700000D03*
D19*
X174780000Y-52700000D03*
D16*
X175580000Y-55240000D03*
D17*
X174780000Y-55240000D03*
D16*
X175580000Y-57780000D03*
D17*
X174780000Y-57780000D03*
D16*
X175580000Y-60320000D03*
D17*
X174780000Y-60320000D03*
D16*
X175580000Y-62860000D03*
D17*
X174780000Y-62860000D03*
D18*
X175580000Y-65400000D03*
D19*
X174780000Y-65400000D03*
D16*
X175580000Y-67940000D03*
D17*
X174780000Y-67940000D03*
D16*
X175580000Y-70480000D03*
D17*
X174780000Y-70480000D03*
X157000000Y-70480000D03*
D16*
X156200000Y-70480000D03*
D17*
X157000000Y-67940000D03*
D16*
X156200000Y-67940000D03*
D20*
X157000000Y-65400000D03*
D21*
X156200000Y-65400000D03*
D17*
X157000000Y-62860000D03*
D16*
X156200000Y-62860000D03*
D17*
X157000000Y-60320000D03*
D16*
X156200000Y-60320000D03*
D17*
X157000000Y-57780000D03*
D16*
X156200000Y-57780000D03*
D17*
X157000000Y-55240000D03*
D16*
X156200000Y-55240000D03*
D20*
X157000000Y-52700000D03*
D21*
X156200000Y-52700000D03*
D17*
X157000000Y-50160000D03*
D16*
X156200000Y-50160000D03*
D17*
X157000000Y-47620000D03*
D16*
X156200000Y-47620000D03*
D17*
X157000000Y-45080000D03*
D16*
X156200000Y-45080000D03*
D17*
X157000000Y-42540000D03*
D16*
X156200000Y-42540000D03*
D20*
X157000000Y-40000000D03*
D21*
X156200000Y-40000000D03*
D17*
X157000000Y-37460000D03*
D16*
X156200000Y-37460000D03*
D17*
X157000000Y-34920000D03*
D16*
X156200000Y-34920000D03*
D17*
X157000000Y-32380000D03*
D16*
X156200000Y-32380000D03*
D17*
X157000000Y-29840000D03*
D16*
X156200000Y-29840000D03*
D20*
X157000000Y-27300000D03*
D21*
X156200000Y-27300000D03*
D17*
X157000000Y-24760000D03*
D16*
X156200000Y-24760000D03*
D22*
X157000000Y-22220000D03*
D18*
X156200000Y-22220000D03*
D13*
X168615000Y-22350000D03*
D23*
X168315000Y-25380000D03*
X163465000Y-25380000D03*
D13*
X163165000Y-22350000D03*
%TD*%
D24*
%TO.C,D10*%
X135000000Y-148600000D03*
X135000000Y-146400000D03*
%TD*%
D25*
%TO.C,TB1*%
X194000000Y-90000000D03*
D26*
X194000000Y-88000000D03*
X194000000Y-86000000D03*
X194000000Y-84000000D03*
X194000000Y-82000000D03*
X194000000Y-80000000D03*
X194000000Y-78000000D03*
X194000000Y-76000000D03*
X194000000Y-74000000D03*
X194000000Y-72000000D03*
X194000000Y-70000000D03*
X194000000Y-68000000D03*
X194000000Y-66000000D03*
X194000000Y-64000000D03*
%TD*%
D27*
%TO.C,C17*%
X118000000Y-75562500D03*
X118000000Y-72437500D03*
%TD*%
D28*
%TO.C,R17*%
X152962500Y-132500000D03*
X156062500Y-132500000D03*
%TD*%
D29*
%TO.C,U1*%
X165325000Y-161000000D03*
X165325000Y-162000000D03*
X165325000Y-163000000D03*
X165325000Y-164000000D03*
X165325000Y-165000000D03*
X165325000Y-166000000D03*
X165325000Y-167000000D03*
X165325000Y-168000000D03*
X165325000Y-169000000D03*
X165325000Y-170000000D03*
X165325000Y-171000000D03*
X165325000Y-172000000D03*
X165325000Y-173000000D03*
D30*
X167000000Y-174675000D03*
X168000000Y-174675000D03*
X169000000Y-174675000D03*
X170000000Y-174675000D03*
X171000000Y-174675000D03*
X172000000Y-174675000D03*
X173000000Y-174675000D03*
X174000000Y-174675000D03*
X175000000Y-174675000D03*
X176000000Y-174675000D03*
X177000000Y-174675000D03*
X178000000Y-174675000D03*
X179000000Y-174675000D03*
D29*
X180675000Y-173000000D03*
X180675000Y-172000000D03*
X180675000Y-171000000D03*
X180675000Y-170000000D03*
X180675000Y-169000000D03*
X180675000Y-168000000D03*
X180675000Y-167000000D03*
X180675000Y-166000000D03*
X180675000Y-165000000D03*
X180675000Y-164000000D03*
X180675000Y-163000000D03*
X180675000Y-162000000D03*
X180675000Y-161000000D03*
D30*
X179000000Y-159325000D03*
X178000000Y-159325000D03*
X177000000Y-159325000D03*
X176000000Y-159325000D03*
X175000000Y-159325000D03*
X174000000Y-159325000D03*
X173000000Y-159325000D03*
X172000000Y-159325000D03*
X171000000Y-159325000D03*
X170000000Y-159325000D03*
X169000000Y-159325000D03*
X168000000Y-159325000D03*
X167000000Y-159325000D03*
%TD*%
D31*
%TO.C,C10*%
X81562500Y-45500000D03*
X78437500Y-45500000D03*
%TD*%
D32*
%TO.C,i2S_Audio1*%
X189637500Y-41550000D03*
X189637500Y-42200000D03*
X189637500Y-42850000D03*
X189637500Y-43500000D03*
X189637500Y-44150000D03*
X189637500Y-44800000D03*
X189637500Y-45450000D03*
X189637500Y-46100000D03*
X189637500Y-46750000D03*
X189637500Y-47400000D03*
X195362500Y-47400000D03*
X195362500Y-46750000D03*
X195362500Y-46100000D03*
X195362500Y-45450000D03*
X195362500Y-44800000D03*
X195362500Y-44150000D03*
X195362500Y-43500000D03*
X195362500Y-42850000D03*
X195362500Y-42200000D03*
X195362500Y-41550000D03*
%TD*%
D33*
%TO.C,C19*%
X146437500Y-125000000D03*
X149562500Y-125000000D03*
%TD*%
%TO.C,C18*%
X134437500Y-34000000D03*
X137562500Y-34000000D03*
%TD*%
%TO.C,C11*%
X181575000Y-42500000D03*
X184700000Y-42500000D03*
%TD*%
D34*
%TO.C,C1*%
X172000000Y-91437500D03*
X172000000Y-94562500D03*
%TD*%
D35*
%TO.C,R10*%
X77500000Y-34050000D03*
X77500000Y-30950000D03*
%TD*%
D36*
%TO.C,SPi_Level1*%
X135925000Y-91637500D03*
X135275000Y-91637500D03*
X134625000Y-91637500D03*
X133975000Y-91637500D03*
X133325000Y-91637500D03*
X132675000Y-91637500D03*
X132025000Y-91637500D03*
X131375000Y-91637500D03*
X130725000Y-91637500D03*
X130075000Y-91637500D03*
X130075000Y-97362500D03*
X130725000Y-97362500D03*
X131375000Y-97362500D03*
X132025000Y-97362500D03*
X132675000Y-97362500D03*
X133325000Y-97362500D03*
X133975000Y-97362500D03*
X134625000Y-97362500D03*
X135275000Y-97362500D03*
X135925000Y-97362500D03*
%TD*%
D27*
%TO.C,C12*%
X124500000Y-75562500D03*
X124500000Y-72437500D03*
%TD*%
D10*
%TO.C,R6*%
X180000000Y-107450000D03*
X180000000Y-110550000D03*
%TD*%
D28*
%TO.C,R13*%
X127400000Y-31000000D03*
X130500000Y-31000000D03*
%TD*%
%TO.C,R20*%
X153462500Y-141000000D03*
X156562500Y-141000000D03*
%TD*%
D33*
%TO.C,C13*%
X181575000Y-37000000D03*
X184700000Y-37000000D03*
%TD*%
D10*
%TO.C,R2*%
X180000000Y-91950000D03*
X180000000Y-95050000D03*
%TD*%
D24*
%TO.C,D12*%
X141000000Y-158400000D03*
X141000000Y-160600000D03*
%TD*%
D10*
%TO.C,R1*%
X180000000Y-83950000D03*
X180000000Y-87050000D03*
%TD*%
D28*
%TO.C,R19*%
X146462500Y-141000000D03*
X149562500Y-141000000D03*
%TD*%
D34*
%TO.C,C4*%
X172500000Y-107437500D03*
X172500000Y-110562500D03*
%TD*%
D10*
%TO.C,R5*%
X180000000Y-99450000D03*
X180000000Y-102550000D03*
%TD*%
D24*
%TO.C,D11*%
X138000000Y-152400000D03*
X138000000Y-154600000D03*
%TD*%
D33*
%TO.C,C21*%
X159437500Y-125000000D03*
X162562500Y-125000000D03*
%TD*%
D27*
%TO.C,C16*%
X162500000Y-83500000D03*
X162500000Y-80375000D03*
%TD*%
D33*
%TO.C,C14*%
X181437500Y-53500000D03*
X184562500Y-53500000D03*
%TD*%
%TO.C,C15*%
X181437500Y-48000000D03*
X184562500Y-48000000D03*
%TD*%
D24*
%TO.C,D9*%
X132000000Y-140400000D03*
X132000000Y-142600000D03*
%TD*%
D37*
%TO.C,R3*%
X177550000Y-89500000D03*
X174450000Y-89500000D03*
%TD*%
D38*
%TO.C,CR2*%
X140000000Y-40963300D03*
X140000000Y-44036700D03*
%TD*%
D34*
%TO.C,C3*%
X167500000Y-107437500D03*
X167500000Y-110562500D03*
%TD*%
D24*
%TO.C,D8*%
X129000000Y-134400000D03*
X129000000Y-136600000D03*
%TD*%
D13*
%TO.C,MH2*%
X64500000Y-40000000D03*
%TD*%
D28*
%TO.C,R15*%
X142450000Y-85000000D03*
X145550000Y-85000000D03*
%TD*%
D38*
%TO.C,CR1*%
X140500000Y-28036700D03*
X140500000Y-24963300D03*
%TD*%
D33*
%TO.C,C20*%
X152937500Y-125000000D03*
X156062500Y-125000000D03*
%TD*%
D35*
%TO.C,R9*%
X82500000Y-34050000D03*
X82500000Y-30950000D03*
%TD*%
D28*
%TO.C,R16*%
X146462500Y-132500000D03*
X149562500Y-132500000D03*
%TD*%
%TO.C,R18*%
X159462500Y-132500000D03*
X162562500Y-132500000D03*
%TD*%
%TO.C,R14*%
X119400000Y-31000000D03*
X122500000Y-31000000D03*
%TD*%
D37*
%TO.C,R4*%
X177550000Y-105000000D03*
X174450000Y-105000000D03*
%TD*%
D34*
%TO.C,C9*%
X77500000Y-37437500D03*
X77500000Y-40562500D03*
%TD*%
%TO.C,C2*%
X167000000Y-91437500D03*
X167000000Y-94562500D03*
%TD*%
D39*
%TO.C,DSPB_Conn1*%
X195500000Y-147000000D03*
X193000000Y-145750000D03*
X195500000Y-144500000D03*
X193000000Y-143250000D03*
X195500000Y-142000000D03*
X193000000Y-140750000D03*
X195500000Y-139500000D03*
X193000000Y-138250000D03*
X195500000Y-137000000D03*
X193000000Y-135750000D03*
X195500000Y-134500000D03*
X193000000Y-133250000D03*
X195500000Y-132000000D03*
X193000000Y-130750000D03*
X195500000Y-129500000D03*
X193000000Y-128250000D03*
X195500000Y-127000000D03*
X193000000Y-125750000D03*
X195500000Y-124500000D03*
X193000000Y-123250000D03*
X195500000Y-122000000D03*
X193000000Y-120750000D03*
X195500000Y-119500000D03*
X193000000Y-118250000D03*
X195500000Y-117000000D03*
X193000000Y-115750000D03*
X195500000Y-114500000D03*
X193000000Y-113250000D03*
X195500000Y-112000000D03*
X193000000Y-110750000D03*
X195500000Y-109500000D03*
X193000000Y-108250000D03*
X195500000Y-107000000D03*
X193000000Y-105750000D03*
X195500000Y-104500000D03*
X193000000Y-103250000D03*
%TD*%
D13*
%TO.C,MH1*%
X64500000Y-30000000D03*
%TD*%
M02*
